<svg width="214" height="204" viewBox="0 0 214 204" fill="none" xmlns="http://www.w3.org/2000/svg">
<mask id="mask0" mask-type="alpha" maskUnits="userSpaceOnUse" x="0" y="0" width="473" height="204">
<path d="M105.773 14.7671C109.23 8.80746 114.68 4.37478 120.98 1.99109C124.32 0.711955 127.895 0 131.557 0H339.485C350.091 0 359.98 5.65391 365.269 14.7671L469.24 193.423C471.072 196.562 472.229 199.992 472.785 203.48C467.556 199.266 460.963 196.824 454.048 196.824H444.775L345.433 26.1328C344.217 24.0251 341.931 22.717 339.485 22.717H140.816H131.557C129.111 22.717 126.825 24.0251 125.61 26.1328L120.98 34.0972L26.2825 196.824H17.0229C13.3464 196.824 9.78661 197.551 6.44572 198.815C4.38041 198.03 2.22669 197.434 0 197.129C0.512465 195.85 1.11334 194.614 1.81637 193.423L6.43113 185.473L101.144 22.717L105.773 14.7671Z" fill="white"/>
</mask>
<g mask="url(#mask0)">
<path fill-rule="evenodd" clip-rule="evenodd" d="M-8.58398 211.996H481.369V-8.51672H-8.58398V211.996Z" fill="#30A8A2"/>
</g>
</svg>
