<svg width="18" height="14" viewBox="0 0 18 14" fill="none" xmlns="http://www.w3.org/2000/svg">
<path fill-rule="evenodd" clip-rule="evenodd" d="M16.9627 7.08343L11.0199 13.0262C10.8999 13.1462 10.7499 13.2062 10.5999 13.2062C10.4499 13.2062 10.2899 13.1462 10.1799 13.0262C9.9499 12.7962 9.9499 12.4162 10.1799 12.1762L15.1499 7.20633H0.6C0.27 7.20633 0 6.93633 0 6.60633C0 6.27633 0.27 6.00633 0.6 6.00633H15.15L10.1699 1.02627C9.9399 0.79627 9.9399 0.41627 10.1699 0.17627C10.3999 -0.06373 10.7799 -0.0537301 11.0199 0.17627L17.0199 6.17623C17.048 6.20433 17.0726 6.23463 17.0939 6.26663C17.1607 6.36343 17.2 6.48053 17.2 6.60633C17.2 6.80033 17.1067 6.97363 16.9627 7.08343Z" fill="#232323"/>
</svg>
