<svg width="356" height="1424" viewBox="0 0 356 1424" fill="none" xmlns="http://www.w3.org/2000/svg">
<path d="M287 1148.47L332.749 1067.73L287 987" stroke="#30A8A2" stroke-width="24" stroke-linecap="round" stroke-linejoin="round"/>
<path d="M287 436.466L332.749 355.733L287 275" stroke="#FF9900" stroke-width="24" stroke-linecap="round" stroke-linejoin="round"/>
<path d="M68.7485 792.466L22.9998 711.733L68.7485 631" stroke="#ADCA00" stroke-width="24" stroke-linecap="round" stroke-linejoin="round"/>
<g clip-path="url(#clip0)">
<g filter="url(#filter0_di)">
<path d="M339.845 176C340.56 177.238 340.56 178.762 339.845 180L260.655 317.162C259.94 318.4 258.62 319.162 257.191 319.162L98.8094 319.162C97.3803 319.162 96.0598 318.4 95.3453 317.162L16.1547 180C15.4402 178.762 15.4401 177.238 16.1547 176L95.3453 38.8379C96.0598 37.6003 97.3803 36.8378 98.8094 36.8378L257.191 36.8379C258.62 36.8379 259.94 37.6003 260.655 38.8379L339.845 176Z" fill="#171717"/>
</g>
<path fill-rule="evenodd" clip-rule="evenodd" d="M195 114H161.75C159.75 114 158 115.75 158 117.75V140.75C158 142.75 159.75 144.5 161.75 144.5H167.25V152.75C167.25 153.25 167.5 154 168.25 154.25H168.75C169.25 154.25 169.5 154 169.75 153.75L179 144.5H195C197 144.5 198.75 142.75 198.75 140.75V117.75C198.5 115.75 197 114 195 114ZM195.5 140.75C195.5 141.25 195.25 141.5 194.75 141.5H178.25C177.75 141.5 177.5 141.75 177.25 142L170 149V143C170 142.25 169.25 141.5 168.5 141.5H161.75C161.25 141.5 161 141.25 161 140.75V117.75C161 117.25 161.25 117 161.75 117H195C195.25 117 195.5 117.25 195.5 117.75V140.75ZM175.426 120.5C175.367 120.56 175.25 120.633 175.101 120.728C174.623 121.031 173.807 121.548 173.426 122.5C172.926 123.25 173.426 124 174.176 124.5C175.141 124.821 175.5 124.401 175.898 123.935C176.112 123.684 176.338 123.419 176.676 123.25C177.426 122.75 179.84 122.394 180.426 123.75C180.697 124.377 180.654 124.856 180.426 125.5C180.042 126.588 179.088 126.872 178.238 127.124C177.407 127.371 176.676 127.588 176.676 128.5V130.25V131.75C176.676 132.5 177.426 133.25 178.176 133.25C178.926 133.25 179.676 132.5 179.676 131.75V130.5V129.75C180.926 129.25 182.676 128.25 183.176 126.25C183.426 125.75 183.926 123.75 182.926 122C181.426 119.25 177.426 119.5 175.426 120.5ZM176.676 137.25C176.676 136.25 177.426 135.75 178.176 135.75C178.926 135.75 179.676 136.5 179.676 137.25C179.676 138 178.926 138.75 178.176 138.75C177.426 138.75 176.676 138.25 176.676 137.25Z" fill="#828282"/>
<path d="M107.497 217.144C106.249 217.144 105.049 216.944 103.897 216.544C102.761 216.144 101.881 215.616 101.257 214.96L101.953 213.592C102.561 214.2 103.369 214.696 104.377 215.08C105.385 215.448 106.425 215.632 107.497 215.632C109.001 215.632 110.129 215.36 110.881 214.816C111.633 214.256 112.009 213.536 112.009 212.656C112.009 211.984 111.801 211.448 111.385 211.048C110.985 210.648 110.489 210.344 109.897 210.136C109.305 209.912 108.481 209.672 107.425 209.416C106.161 209.096 105.153 208.792 104.401 208.504C103.649 208.2 103.001 207.744 102.457 207.136C101.929 206.528 101.665 205.704 101.665 204.664C101.665 203.816 101.889 203.048 102.337 202.36C102.785 201.656 103.473 201.096 104.401 200.68C105.329 200.264 106.481 200.056 107.857 200.056C108.817 200.056 109.753 200.192 110.665 200.464C111.593 200.72 112.393 201.08 113.065 201.544L112.465 202.96C111.761 202.496 111.009 202.152 110.209 201.928C109.409 201.688 108.625 201.568 107.857 201.568C106.385 201.568 105.273 201.856 104.521 202.432C103.785 202.992 103.417 203.72 103.417 204.616C103.417 205.288 103.617 205.832 104.017 206.248C104.433 206.648 104.945 206.96 105.553 207.184C106.177 207.392 107.009 207.624 108.049 207.88C109.281 208.184 110.273 208.488 111.025 208.792C111.793 209.08 112.441 209.528 112.969 210.136C113.497 210.728 113.761 211.536 113.761 212.56C113.761 213.408 113.529 214.184 113.065 214.888C112.617 215.576 111.921 216.128 110.977 216.544C110.033 216.944 108.873 217.144 107.497 217.144ZM123.919 216.232C123.599 216.52 123.199 216.744 122.719 216.904C122.255 217.048 121.767 217.12 121.255 217.12C120.071 217.12 119.159 216.8 118.519 216.16C117.879 215.52 117.559 214.616 117.559 213.448V205.816H115.303V204.376H117.559V201.616H119.263V204.376H123.103V205.816H119.263V213.352C119.263 214.104 119.447 214.68 119.815 215.08C120.199 215.464 120.743 215.656 121.447 215.656C121.799 215.656 122.135 215.6 122.455 215.488C122.791 215.376 123.079 215.216 123.319 215.008L123.919 216.232ZM138.397 204.376V217H136.765V214.696C136.317 215.464 135.701 216.064 134.917 216.496C134.133 216.912 133.237 217.12 132.229 217.12C130.581 217.12 129.277 216.664 128.317 215.752C127.373 214.824 126.901 213.472 126.901 211.696V204.376H128.605V211.528C128.605 212.856 128.933 213.864 129.589 214.552C130.245 215.24 131.181 215.584 132.397 215.584C133.725 215.584 134.773 215.184 135.541 214.384C136.309 213.568 136.693 212.44 136.693 211V204.376H138.397ZM154.689 199.192V217H153.057V214.504C152.545 215.352 151.865 216 151.017 216.448C150.185 216.896 149.241 217.12 148.185 217.12C147.001 217.12 145.929 216.848 144.969 216.304C144.009 215.76 143.257 215 142.713 214.024C142.169 213.048 141.897 211.936 141.897 210.688C141.897 209.44 142.169 208.328 142.713 207.352C143.257 206.376 144.009 205.624 144.969 205.096C145.929 204.552 147.001 204.28 148.185 204.28C149.209 204.28 150.129 204.496 150.945 204.928C151.777 205.344 152.457 205.96 152.985 206.776V199.192H154.689ZM148.329 215.608C149.209 215.608 150.001 215.408 150.705 215.008C151.425 214.592 151.985 214.008 152.385 213.256C152.801 212.504 153.009 211.648 153.009 210.688C153.009 209.728 152.801 208.872 152.385 208.12C151.985 207.368 151.425 206.792 150.705 206.392C150.001 205.976 149.209 205.768 148.329 205.768C147.433 205.768 146.625 205.976 145.905 206.392C145.201 206.792 144.641 207.368 144.225 208.12C143.825 208.872 143.625 209.728 143.625 210.688C143.625 211.648 143.825 212.504 144.225 213.256C144.641 214.008 145.201 214.592 145.905 215.008C146.625 215.408 147.433 215.608 148.329 215.608ZM170.427 211.216H159.867C159.963 212.528 160.467 213.592 161.379 214.408C162.291 215.208 163.443 215.608 164.835 215.608C165.619 215.608 166.339 215.472 166.995 215.2C167.651 214.912 168.219 214.496 168.699 213.952L169.659 215.056C169.099 215.728 168.395 216.24 167.547 216.592C166.715 216.944 165.795 217.12 164.787 217.12C163.491 217.12 162.339 216.848 161.331 216.304C160.339 215.744 159.563 214.976 159.003 214C158.443 213.024 158.163 211.92 158.163 210.688C158.163 209.456 158.427 208.352 158.955 207.376C159.499 206.4 160.235 205.64 161.163 205.096C162.107 204.552 163.163 204.28 164.331 204.28C165.499 204.28 166.547 204.552 167.475 205.096C168.403 205.64 169.131 206.4 169.659 207.376C170.187 208.336 170.451 209.44 170.451 210.688L170.427 211.216ZM164.331 205.744C163.115 205.744 162.091 206.136 161.259 206.92C160.443 207.688 159.979 208.696 159.867 209.944H168.819C168.707 208.696 168.235 207.688 167.403 206.92C166.587 206.136 165.563 205.744 164.331 205.744ZM180.351 204.28C181.935 204.28 183.191 204.744 184.119 205.672C185.063 206.584 185.535 207.92 185.535 209.68V217H183.831V209.848C183.831 208.536 183.503 207.536 182.847 206.848C182.191 206.16 181.255 205.816 180.039 205.816C178.679 205.816 177.599 206.224 176.799 207.04C176.015 207.84 175.623 208.952 175.623 210.376V217H173.919V204.376H175.551V206.704C176.015 205.936 176.655 205.344 177.471 204.928C178.303 204.496 179.263 204.28 180.351 204.28ZM196.809 216.232C196.489 216.52 196.089 216.744 195.609 216.904C195.145 217.048 194.657 217.12 194.145 217.12C192.961 217.12 192.049 216.8 191.409 216.16C190.769 215.52 190.449 214.616 190.449 213.448V205.816H188.193V204.376H190.449V201.616H192.153V204.376H195.993V205.816H192.153V213.352C192.153 214.104 192.337 214.68 192.705 215.08C193.089 215.464 193.633 215.656 194.337 215.656C194.689 215.656 195.025 215.6 195.345 215.488C195.681 215.376 195.969 215.216 196.209 215.008L196.809 216.232ZM203.295 217.12C202.271 217.12 201.287 216.976 200.343 216.688C199.415 216.384 198.687 216.008 198.159 215.56L198.927 214.216C199.455 214.632 200.119 214.976 200.919 215.248C201.719 215.504 202.551 215.632 203.415 215.632C204.567 215.632 205.415 215.456 205.959 215.104C206.519 214.736 206.799 214.224 206.799 213.568C206.799 213.104 206.647 212.744 206.343 212.488C206.039 212.216 205.655 212.016 205.191 211.888C204.727 211.744 204.111 211.608 203.343 211.48C202.319 211.288 201.495 211.096 200.871 210.904C200.247 210.696 199.711 210.352 199.263 209.872C198.831 209.392 198.615 208.728 198.615 207.88C198.615 206.824 199.055 205.96 199.935 205.288C200.815 204.616 202.039 204.28 203.607 204.28C204.423 204.28 205.239 204.392 206.055 204.616C206.871 204.824 207.543 205.104 208.071 205.456L207.327 206.824C206.287 206.104 205.047 205.744 203.607 205.744C202.519 205.744 201.695 205.936 201.135 206.32C200.591 206.704 200.319 207.208 200.319 207.832C200.319 208.312 200.471 208.696 200.775 208.984C201.095 209.272 201.487 209.488 201.951 209.632C202.415 209.76 203.055 209.896 203.871 210.04C204.879 210.232 205.687 210.424 206.295 210.616C206.903 210.808 207.423 211.136 207.855 211.6C208.287 212.064 208.503 212.704 208.503 213.52C208.503 214.624 208.039 215.504 207.111 216.16C206.199 216.8 204.927 217.12 203.295 217.12ZM222.351 204.28C223.999 204.28 225.263 204.696 226.143 205.528C227.023 206.344 227.463 207.56 227.463 209.176V217H225.831V215.032C225.447 215.688 224.879 216.2 224.127 216.568C223.391 216.936 222.511 217.12 221.487 217.12C220.079 217.12 218.959 216.784 218.127 216.112C217.295 215.44 216.879 214.552 216.879 213.448C216.879 212.376 217.263 211.512 218.031 210.856C218.815 210.2 220.055 209.872 221.751 209.872H225.759V209.104C225.759 208.016 225.455 207.192 224.847 206.632C224.239 206.056 223.351 205.768 222.183 205.768C221.383 205.768 220.615 205.904 219.879 206.176C219.143 206.432 218.511 206.792 217.983 207.256L217.215 205.984C217.855 205.44 218.623 205.024 219.519 204.736C220.415 204.432 221.359 204.28 222.351 204.28ZM221.751 215.776C222.711 215.776 223.535 215.56 224.223 215.128C224.911 214.68 225.423 214.04 225.759 213.208V211.144H221.799C219.639 211.144 218.559 211.896 218.559 213.4C218.559 214.136 218.839 214.72 219.399 215.152C219.959 215.568 220.743 215.776 221.751 215.776ZM235.475 217.12C234.451 217.12 233.467 216.976 232.523 216.688C231.595 216.384 230.867 216.008 230.339 215.56L231.107 214.216C231.635 214.632 232.299 214.976 233.099 215.248C233.899 215.504 234.731 215.632 235.595 215.632C236.747 215.632 237.595 215.456 238.139 215.104C238.699 214.736 238.979 214.224 238.979 213.568C238.979 213.104 238.827 212.744 238.523 212.488C238.219 212.216 237.835 212.016 237.371 211.888C236.907 211.744 236.291 211.608 235.523 211.48C234.499 211.288 233.675 211.096 233.051 210.904C232.427 210.696 231.891 210.352 231.443 209.872C231.011 209.392 230.795 208.728 230.795 207.88C230.795 206.824 231.235 205.96 232.115 205.288C232.995 204.616 234.219 204.28 235.787 204.28C236.603 204.28 237.419 204.392 238.235 204.616C239.051 204.824 239.723 205.104 240.251 205.456L239.507 206.824C238.467 206.104 237.227 205.744 235.787 205.744C234.699 205.744 233.875 205.936 233.315 206.32C232.771 206.704 232.499 207.208 232.499 207.832C232.499 208.312 232.651 208.696 232.955 208.984C233.275 209.272 233.667 209.488 234.131 209.632C234.595 209.76 235.235 209.896 236.051 210.04C237.059 210.232 237.867 210.424 238.475 210.616C239.083 210.808 239.603 211.136 240.035 211.6C240.467 212.064 240.683 212.704 240.683 213.52C240.683 214.624 240.219 215.504 239.291 216.16C238.379 216.8 237.107 217.12 235.475 217.12ZM248.513 210.664L245.537 213.4V217H243.833V199.192H245.537V211.264L253.073 204.376H255.185L249.785 209.536L255.689 217H253.601L248.513 210.664ZM132.962 240.376V257.656H131.258V250.624C130.73 251.44 130.05 252.064 129.218 252.496C128.402 252.912 127.482 253.12 126.458 253.12C125.258 253.12 124.178 252.856 123.218 252.328C122.274 251.784 121.53 251.024 120.986 250.048C120.442 249.072 120.17 247.952 120.17 246.688C120.17 245.44 120.442 244.328 120.986 243.352C121.53 242.376 122.282 241.624 123.242 241.096C124.202 240.552 125.274 240.28 126.458 240.28C127.514 240.28 128.458 240.504 129.29 240.952C130.138 241.4 130.818 242.04 131.33 242.872V240.376H132.962ZM126.602 251.608C127.482 251.608 128.274 251.408 128.978 251.008C129.698 250.592 130.258 250.008 130.658 249.256C131.074 248.504 131.282 247.648 131.282 246.688C131.282 245.728 131.074 244.88 130.658 244.144C130.258 243.392 129.698 242.808 128.978 242.392C128.274 241.976 127.482 241.768 126.602 241.768C125.706 241.768 124.898 241.976 124.178 242.392C123.474 242.808 122.914 243.392 122.498 244.144C122.098 244.88 121.898 245.728 121.898 246.688C121.898 247.648 122.098 248.504 122.498 249.256C122.914 250.008 123.474 250.592 124.178 251.008C124.898 251.408 125.706 251.608 126.602 251.608ZM149.084 240.376V253H147.452V250.696C147.004 251.464 146.388 252.064 145.604 252.496C144.82 252.912 143.924 253.12 142.916 253.12C141.268 253.12 139.964 252.664 139.004 251.752C138.06 250.824 137.588 249.472 137.588 247.696V240.376H139.292V247.528C139.292 248.856 139.62 249.864 140.276 250.552C140.932 251.24 141.868 251.584 143.084 251.584C144.412 251.584 145.46 251.184 146.228 250.384C146.996 249.568 147.38 248.44 147.38 247V240.376H149.084ZM164.848 247.216H154.288C154.384 248.528 154.888 249.592 155.8 250.408C156.712 251.208 157.864 251.608 159.256 251.608C160.04 251.608 160.76 251.472 161.416 251.2C162.072 250.912 162.64 250.496 163.12 249.952L164.08 251.056C163.52 251.728 162.816 252.24 161.968 252.592C161.136 252.944 160.216 253.12 159.208 253.12C157.912 253.12 156.76 252.848 155.752 252.304C154.76 251.744 153.984 250.976 153.424 250C152.864 249.024 152.584 247.92 152.584 246.688C152.584 245.456 152.848 244.352 153.376 243.376C153.92 242.4 154.656 241.64 155.584 241.096C156.528 240.552 157.584 240.28 158.752 240.28C159.92 240.28 160.968 240.552 161.896 241.096C162.824 241.64 163.552 242.4 164.08 243.376C164.608 244.336 164.872 245.44 164.872 246.688L164.848 247.216ZM158.752 241.744C157.536 241.744 156.512 242.136 155.68 242.92C154.864 243.688 154.4 244.696 154.288 245.944H163.24C163.128 244.696 162.656 243.688 161.824 242.92C161.008 242.136 159.984 241.744 158.752 241.744ZM171.725 253.12C170.701 253.12 169.717 252.976 168.773 252.688C167.845 252.384 167.117 252.008 166.589 251.56L167.357 250.216C167.885 250.632 168.549 250.976 169.349 251.248C170.149 251.504 170.981 251.632 171.845 251.632C172.997 251.632 173.845 251.456 174.389 251.104C174.949 250.736 175.229 250.224 175.229 249.568C175.229 249.104 175.077 248.744 174.773 248.488C174.469 248.216 174.085 248.016 173.621 247.888C173.157 247.744 172.541 247.608 171.773 247.48C170.749 247.288 169.925 247.096 169.301 246.904C168.677 246.696 168.141 246.352 167.693 245.872C167.261 245.392 167.045 244.728 167.045 243.88C167.045 242.824 167.485 241.96 168.365 241.288C169.245 240.616 170.469 240.28 172.037 240.28C172.853 240.28 173.669 240.392 174.485 240.616C175.301 240.824 175.973 241.104 176.501 241.456L175.757 242.824C174.717 242.104 173.477 241.744 172.037 241.744C170.949 241.744 170.125 241.936 169.565 242.32C169.021 242.704 168.749 243.208 168.749 243.832C168.749 244.312 168.901 244.696 169.205 244.984C169.525 245.272 169.917 245.488 170.381 245.632C170.845 245.76 171.485 245.896 172.301 246.04C173.309 246.232 174.117 246.424 174.725 246.616C175.333 246.808 175.853 247.136 176.285 247.6C176.717 248.064 176.933 248.704 176.933 249.52C176.933 250.624 176.469 251.504 175.541 252.16C174.629 252.8 173.357 253.12 171.725 253.12ZM186.731 252.232C186.411 252.52 186.011 252.744 185.531 252.904C185.067 253.048 184.579 253.12 184.067 253.12C182.883 253.12 181.971 252.8 181.331 252.16C180.691 251.52 180.371 250.616 180.371 249.448V241.816H178.115V240.376H180.371V237.616H182.075V240.376H185.915V241.816H182.075V249.352C182.075 250.104 182.259 250.68 182.627 251.08C183.011 251.464 183.555 251.656 184.259 251.656C184.611 251.656 184.947 251.6 185.267 251.488C185.603 251.376 185.891 251.216 186.131 251.008L186.731 252.232ZM189.833 240.376H191.537V253H189.833V240.376ZM190.697 237.616C190.345 237.616 190.049 237.496 189.809 237.256C189.569 237.016 189.449 236.728 189.449 236.392C189.449 236.072 189.569 235.792 189.809 235.552C190.049 235.312 190.345 235.192 190.697 235.192C191.049 235.192 191.345 235.312 191.585 235.552C191.825 235.776 191.945 236.048 191.945 236.368C191.945 236.72 191.825 237.016 191.585 237.256C191.345 237.496 191.049 237.616 190.697 237.616ZM201.438 253.12C200.222 253.12 199.126 252.848 198.15 252.304C197.174 251.744 196.406 250.976 195.846 250C195.286 249.024 195.006 247.92 195.006 246.688C195.006 245.456 195.286 244.352 195.846 243.376C196.406 242.4 197.174 241.64 198.15 241.096C199.126 240.552 200.222 240.28 201.438 240.28C202.654 240.28 203.75 240.552 204.726 241.096C205.702 241.64 206.462 242.4 207.006 243.376C207.566 244.352 207.846 245.456 207.846 246.688C207.846 247.92 207.566 249.024 207.006 250C206.462 250.976 205.702 251.744 204.726 252.304C203.75 252.848 202.654 253.12 201.438 253.12ZM201.438 251.608C202.334 251.608 203.134 251.408 203.838 251.008C204.558 250.592 205.118 250.008 205.518 249.256C205.918 248.504 206.118 247.648 206.118 246.688C206.118 245.728 205.918 244.872 205.518 244.12C205.118 243.368 204.558 242.792 203.838 242.392C203.134 241.976 202.334 241.768 201.438 241.768C200.542 241.768 199.734 241.976 199.014 242.392C198.31 242.792 197.75 243.368 197.334 244.12C196.934 244.872 196.734 245.728 196.734 246.688C196.734 247.648 196.934 248.504 197.334 249.256C197.75 250.008 198.31 250.592 199.014 251.008C199.734 251.408 200.542 251.608 201.438 251.608ZM217.757 240.28C219.341 240.28 220.597 240.744 221.525 241.672C222.469 242.584 222.941 243.92 222.941 245.68V253H221.237V245.848C221.237 244.536 220.909 243.536 220.253 242.848C219.597 242.16 218.661 241.816 217.445 241.816C216.085 241.816 215.005 242.224 214.205 243.04C213.421 243.84 213.029 244.952 213.029 246.376V253H211.325V240.376H212.957V242.704C213.421 241.936 214.061 241.344 214.877 240.928C215.709 240.496 216.669 240.28 217.757 240.28ZM230.951 253.12C229.927 253.12 228.943 252.976 227.999 252.688C227.071 252.384 226.343 252.008 225.815 251.56L226.583 250.216C227.111 250.632 227.775 250.976 228.575 251.248C229.375 251.504 230.207 251.632 231.071 251.632C232.223 251.632 233.071 251.456 233.615 251.104C234.175 250.736 234.455 250.224 234.455 249.568C234.455 249.104 234.303 248.744 233.999 248.488C233.695 248.216 233.311 248.016 232.847 247.888C232.383 247.744 231.767 247.608 230.999 247.48C229.975 247.288 229.151 247.096 228.527 246.904C227.903 246.696 227.367 246.352 226.919 245.872C226.487 245.392 226.271 244.728 226.271 243.88C226.271 242.824 226.711 241.96 227.591 241.288C228.471 240.616 229.695 240.28 231.263 240.28C232.079 240.28 232.895 240.392 233.711 240.616C234.527 240.824 235.199 241.104 235.727 241.456L234.983 242.824C233.943 242.104 232.703 241.744 231.263 241.744C230.175 241.744 229.351 241.936 228.791 242.32C228.247 242.704 227.975 243.208 227.975 243.832C227.975 244.312 228.127 244.696 228.431 244.984C228.751 245.272 229.143 245.488 229.607 245.632C230.071 245.76 230.711 245.896 231.527 246.04C232.535 246.232 233.343 246.424 233.951 246.616C234.559 246.808 235.079 247.136 235.511 247.6C235.943 248.064 236.159 248.704 236.159 249.52C236.159 250.624 235.695 251.504 234.767 252.16C233.855 252.8 232.583 253.12 230.951 253.12Z" fill="#F2F2F2"/>
</g>
<g clip-path="url(#clip1)">
<g filter="url(#filter1_di)">
<path d="M339.845 532C340.56 533.238 340.56 534.762 339.845 536L260.655 673.162C259.94 674.4 258.62 675.162 257.191 675.162L98.8094 675.162C97.3803 675.162 96.0598 674.4 95.3453 673.162L16.1547 536C15.4402 534.762 15.4401 533.238 16.1547 532L95.3453 394.838C96.0598 393.6 97.3803 392.838 98.8094 392.838L257.191 392.838C258.62 392.838 259.94 393.6 260.655 394.838L339.845 532Z" fill="#171717"/>
</g>
<path fill-rule="evenodd" clip-rule="evenodd" d="M200.915 479.001H188.7V473.425C188.7 471.525 187.15 470 185.275 470H156.4C154.525 470 153 471.525 153 473.425V493.425C153 495.3 154.525 496.85 156.4 496.85H160.925V503.75C160.925 504.35 161.275 504.9 161.85 505.125C162.025 505.2 162.225 505.25 162.425 505.25C162.8 505.25 163.175 505.1 163.475 504.8L171.45 496.85H173.215V499.169C173.215 500.9 174.621 502.306 176.352 502.306H188.015L194.746 509.013C195.034 509.299 195.417 509.45 195.805 509.45C195.998 509.45 196.193 509.413 196.381 509.335C196.94 509.103 197.304 508.556 197.304 507.951V502.306H200.915C202.646 502.306 204.052 500.9 204.052 499.169V482.138C204.052 480.407 202.646 479.001 200.915 479.001ZM170.825 493.85C170.45 493.85 170.05 494 169.775 494.275L163.925 500.125V495.35C163.925 494.525 163.25 493.85 162.425 493.85H156.4C156.175 493.85 155.975 493.65 155.975 493.425V473.425C155.975 473.175 156.175 473 156.4 473H185.275C185.5 473 185.7 473.175 185.7 473.425V479.001H176.352C174.621 479.001 173.215 480.407 173.215 482.138V493.85H170.825ZM200.915 499.308H195.805C194.978 499.308 194.306 499.98 194.306 500.807V504.34L189.694 499.745C189.411 499.465 189.033 499.308 188.635 499.308H176.352L176.213 499.169L176.352 481.999L201.054 482.138L200.915 499.308Z" fill="#828282"/>
<path d="M121.376 556.2C123.52 556.2 125.2 556.712 126.416 557.736C127.632 558.76 128.24 560.168 128.24 561.96C128.24 563.752 127.632 565.16 126.416 566.184C125.2 567.192 123.52 567.696 121.376 567.696H116.864V573H115.088V556.2H121.376ZM121.328 566.136C122.992 566.136 124.264 565.776 125.144 565.056C126.024 564.32 126.464 563.288 126.464 561.96C126.464 560.6 126.024 559.56 125.144 558.84C124.264 558.104 122.992 557.736 121.328 557.736H116.864V566.136H121.328ZM133.024 562.848C133.424 562 134.016 561.36 134.8 560.928C135.6 560.496 136.584 560.28 137.752 560.28V561.936L137.344 561.912C136.016 561.912 134.976 562.32 134.224 563.136C133.472 563.952 133.096 565.096 133.096 566.568V573H131.392V560.376H133.024V562.848ZM145.88 573.12C144.664 573.12 143.568 572.848 142.592 572.304C141.616 571.744 140.848 570.976 140.288 570C139.728 569.024 139.448 567.92 139.448 566.688C139.448 565.456 139.728 564.352 140.288 563.376C140.848 562.4 141.616 561.64 142.592 561.096C143.568 560.552 144.664 560.28 145.88 560.28C147.096 560.28 148.192 560.552 149.168 561.096C150.144 561.64 150.904 562.4 151.448 563.376C152.008 564.352 152.288 565.456 152.288 566.688C152.288 567.92 152.008 569.024 151.448 570C150.904 570.976 150.144 571.744 149.168 572.304C148.192 572.848 147.096 573.12 145.88 573.12ZM145.88 571.608C146.776 571.608 147.576 571.408 148.28 571.008C149 570.592 149.56 570.008 149.96 569.256C150.36 568.504 150.56 567.648 150.56 566.688C150.56 565.728 150.36 564.872 149.96 564.12C149.56 563.368 149 562.792 148.28 562.392C147.576 561.976 146.776 561.768 145.88 561.768C144.984 561.768 144.176 561.976 143.456 562.392C142.752 562.792 142.192 563.368 141.776 564.12C141.376 564.872 141.176 565.728 141.176 566.688C141.176 567.648 141.376 568.504 141.776 569.256C142.192 570.008 142.752 570.592 143.456 571.008C144.176 571.408 144.984 571.608 145.88 571.608ZM159.151 573.12C158.127 573.12 157.143 572.976 156.199 572.688C155.271 572.384 154.543 572.008 154.015 571.56L154.783 570.216C155.311 570.632 155.975 570.976 156.775 571.248C157.575 571.504 158.407 571.632 159.271 571.632C160.423 571.632 161.271 571.456 161.815 571.104C162.375 570.736 162.655 570.224 162.655 569.568C162.655 569.104 162.503 568.744 162.199 568.488C161.895 568.216 161.511 568.016 161.047 567.888C160.583 567.744 159.967 567.608 159.199 567.48C158.175 567.288 157.351 567.096 156.727 566.904C156.103 566.696 155.567 566.352 155.119 565.872C154.687 565.392 154.471 564.728 154.471 563.88C154.471 562.824 154.911 561.96 155.791 561.288C156.671 560.616 157.895 560.28 159.463 560.28C160.279 560.28 161.095 560.392 161.911 560.616C162.727 560.824 163.399 561.104 163.927 561.456L163.183 562.824C162.143 562.104 160.903 561.744 159.463 561.744C158.375 561.744 157.551 561.936 156.991 562.32C156.447 562.704 156.175 563.208 156.175 563.832C156.175 564.312 156.327 564.696 156.631 564.984C156.951 565.272 157.343 565.488 157.807 565.632C158.271 565.76 158.911 565.896 159.727 566.04C160.735 566.232 161.543 566.424 162.151 566.616C162.759 566.808 163.279 567.136 163.711 567.6C164.143 568.064 164.359 568.704 164.359 569.52C164.359 570.624 163.895 571.504 162.967 572.16C162.055 572.8 160.783 573.12 159.151 573.12ZM177.174 573.12C176.15 573.12 175.166 572.976 174.222 572.688C173.294 572.384 172.566 572.008 172.038 571.56L172.806 570.216C173.334 570.632 173.998 570.976 174.798 571.248C175.598 571.504 176.43 571.632 177.294 571.632C178.446 571.632 179.294 571.456 179.838 571.104C180.398 570.736 180.678 570.224 180.678 569.568C180.678 569.104 180.526 568.744 180.222 568.488C179.918 568.216 179.534 568.016 179.07 567.888C178.606 567.744 177.99 567.608 177.222 567.48C176.198 567.288 175.374 567.096 174.75 566.904C174.126 566.696 173.59 566.352 173.142 565.872C172.71 565.392 172.494 564.728 172.494 563.88C172.494 562.824 172.934 561.96 173.814 561.288C174.694 560.616 175.918 560.28 177.486 560.28C178.302 560.28 179.118 560.392 179.934 560.616C180.75 560.824 181.422 561.104 181.95 561.456L181.206 562.824C180.166 562.104 178.926 561.744 177.486 561.744C176.398 561.744 175.574 561.936 175.014 562.32C174.47 562.704 174.198 563.208 174.198 563.832C174.198 564.312 174.35 564.696 174.654 564.984C174.974 565.272 175.366 565.488 175.83 565.632C176.294 565.76 176.934 565.896 177.75 566.04C178.758 566.232 179.566 566.424 180.174 566.616C180.782 566.808 181.302 567.136 181.734 567.6C182.166 568.064 182.382 568.704 182.382 569.52C182.382 570.624 181.918 571.504 180.99 572.16C180.078 572.8 178.806 573.12 177.174 573.12ZM191.964 560.28C193.548 560.28 194.804 560.744 195.732 561.672C196.676 562.584 197.148 563.92 197.148 565.68V573H195.444V565.848C195.444 564.536 195.116 563.536 194.46 562.848C193.804 562.16 192.868 561.816 191.652 561.816C190.292 561.816 189.212 562.224 188.412 563.04C187.628 563.84 187.236 564.952 187.236 566.376V573H185.532V555.192H187.236V562.584C187.7 561.848 188.34 561.28 189.156 560.88C189.972 560.48 190.908 560.28 191.964 560.28ZM206.19 560.28C207.838 560.28 209.102 560.696 209.982 561.528C210.862 562.344 211.302 563.56 211.302 565.176V573H209.67V571.032C209.286 571.688 208.718 572.2 207.966 572.568C207.23 572.936 206.35 573.12 205.326 573.12C203.918 573.12 202.798 572.784 201.966 572.112C201.134 571.44 200.718 570.552 200.718 569.448C200.718 568.376 201.102 567.512 201.87 566.856C202.654 566.2 203.894 565.872 205.59 565.872H209.598V565.104C209.598 564.016 209.294 563.192 208.686 562.632C208.078 562.056 207.19 561.768 206.022 561.768C205.222 561.768 204.454 561.904 203.718 562.176C202.982 562.432 202.35 562.792 201.822 563.256L201.054 561.984C201.694 561.44 202.462 561.024 203.358 560.736C204.254 560.432 205.198 560.28 206.19 560.28ZM205.59 571.776C206.55 571.776 207.374 571.56 208.062 571.128C208.75 570.68 209.262 570.04 209.598 569.208V567.144H205.638C203.478 567.144 202.398 567.896 202.398 569.4C202.398 570.136 202.678 570.72 203.238 571.152C203.798 571.568 204.582 571.776 205.59 571.776ZM217.563 562.848C217.963 562 218.555 561.36 219.339 560.928C220.139 560.496 221.123 560.28 222.291 560.28V561.936L221.883 561.912C220.555 561.912 219.515 562.32 218.763 563.136C218.011 563.952 217.635 565.096 217.635 566.568V573H215.931V560.376H217.563V562.848ZM236.251 567.216H225.691C225.787 568.528 226.291 569.592 227.203 570.408C228.115 571.208 229.267 571.608 230.659 571.608C231.443 571.608 232.163 571.472 232.819 571.2C233.475 570.912 234.043 570.496 234.523 569.952L235.483 571.056C234.923 571.728 234.219 572.24 233.371 572.592C232.539 572.944 231.619 573.12 230.611 573.12C229.315 573.12 228.163 572.848 227.155 572.304C226.163 571.744 225.387 570.976 224.827 570C224.267 569.024 223.987 567.92 223.987 566.688C223.987 565.456 224.251 564.352 224.779 563.376C225.323 562.4 226.059 561.64 226.987 561.096C227.931 560.552 228.987 560.28 230.155 560.28C231.323 560.28 232.371 560.552 233.299 561.096C234.227 561.64 234.955 562.4 235.483 563.376C236.011 564.336 236.275 565.44 236.275 566.688L236.251 567.216ZM230.155 561.744C228.939 561.744 227.915 562.136 227.083 562.92C226.267 563.688 225.803 564.696 225.691 565.944H234.643C234.531 564.696 234.059 563.688 233.227 562.92C232.411 562.136 231.387 561.744 230.155 561.744ZM145.933 596.28C147.581 596.28 148.845 596.696 149.725 597.528C150.605 598.344 151.045 599.56 151.045 601.176V609H149.413V607.032C149.029 607.688 148.461 608.2 147.709 608.568C146.973 608.936 146.093 609.12 145.069 609.12C143.661 609.12 142.541 608.784 141.709 608.112C140.877 607.44 140.461 606.552 140.461 605.448C140.461 604.376 140.845 603.512 141.613 602.856C142.397 602.2 143.637 601.872 145.333 601.872H149.341V601.104C149.341 600.016 149.037 599.192 148.429 598.632C147.821 598.056 146.933 597.768 145.765 597.768C144.965 597.768 144.197 597.904 143.461 598.176C142.725 598.432 142.093 598.792 141.565 599.256L140.797 597.984C141.437 597.44 142.205 597.024 143.101 596.736C143.997 596.432 144.941 596.28 145.933 596.28ZM145.333 607.776C146.293 607.776 147.117 607.56 147.805 607.128C148.493 606.68 149.005 606.04 149.341 605.208V603.144H145.381C143.221 603.144 142.141 603.896 142.141 605.4C142.141 606.136 142.421 606.72 142.981 607.152C143.541 607.568 144.325 607.776 145.333 607.776ZM167.24 591.192V609H165.608V606.504C165.096 607.352 164.416 608 163.568 608.448C162.736 608.896 161.792 609.12 160.736 609.12C159.552 609.12 158.48 608.848 157.52 608.304C156.56 607.76 155.808 607 155.264 606.024C154.72 605.048 154.448 603.936 154.448 602.688C154.448 601.44 154.72 600.328 155.264 599.352C155.808 598.376 156.56 597.624 157.52 597.096C158.48 596.552 159.552 596.28 160.736 596.28C161.76 596.28 162.68 596.496 163.496 596.928C164.328 597.344 165.008 597.96 165.536 598.776V591.192H167.24ZM160.88 607.608C161.76 607.608 162.552 607.408 163.256 607.008C163.976 606.592 164.536 606.008 164.936 605.256C165.352 604.504 165.56 603.648 165.56 602.688C165.56 601.728 165.352 600.872 164.936 600.12C164.536 599.368 163.976 598.792 163.256 598.392C162.552 597.976 161.76 597.768 160.88 597.768C159.984 597.768 159.176 597.976 158.456 598.392C157.752 598.792 157.192 599.368 156.776 600.12C156.376 600.872 156.176 601.728 156.176 602.688C156.176 603.648 156.376 604.504 156.776 605.256C157.192 606.008 157.752 606.592 158.456 607.008C159.176 607.408 159.984 607.608 160.88 607.608ZM182.593 596.376L176.977 609H175.225L169.633 596.376H171.409L176.137 607.128L180.913 596.376H182.593ZM184.993 596.376H186.697V609H184.993V596.376ZM185.857 593.616C185.505 593.616 185.209 593.496 184.969 593.256C184.729 593.016 184.609 592.728 184.609 592.392C184.609 592.072 184.729 591.792 184.969 591.552C185.209 591.312 185.505 591.192 185.857 591.192C186.209 591.192 186.505 591.312 186.745 591.552C186.985 591.776 187.105 592.048 187.105 592.368C187.105 592.72 186.985 593.016 186.745 593.256C186.505 593.496 186.209 593.616 185.857 593.616ZM196.671 609.12C195.423 609.12 194.303 608.848 193.311 608.304C192.335 607.76 191.567 607 191.007 606.024C190.447 605.032 190.167 603.92 190.167 602.688C190.167 601.456 190.447 600.352 191.007 599.376C191.567 598.4 192.335 597.64 193.311 597.096C194.303 596.552 195.423 596.28 196.671 596.28C197.759 596.28 198.727 596.496 199.575 596.928C200.439 597.344 201.119 597.96 201.615 598.776L200.343 599.64C199.927 599.016 199.399 598.552 198.759 598.248C198.119 597.928 197.423 597.768 196.671 597.768C195.759 597.768 194.935 597.976 194.199 598.392C193.479 598.792 192.911 599.368 192.495 600.12C192.095 600.872 191.895 601.728 191.895 602.688C191.895 603.664 192.095 604.528 192.495 605.28C192.911 606.016 193.479 606.592 194.199 607.008C194.935 607.408 195.759 607.608 196.671 607.608C197.423 607.608 198.119 607.456 198.759 607.152C199.399 606.848 199.927 606.384 200.343 605.76L201.615 606.624C201.119 607.44 200.439 608.064 199.575 608.496C198.711 608.912 197.743 609.12 196.671 609.12ZM215.743 603.216H205.183C205.279 604.528 205.783 605.592 206.695 606.408C207.607 607.208 208.759 607.608 210.151 607.608C210.935 607.608 211.655 607.472 212.311 607.2C212.967 606.912 213.535 606.496 214.015 605.952L214.975 607.056C214.415 607.728 213.711 608.24 212.863 608.592C212.031 608.944 211.111 609.12 210.103 609.12C208.807 609.12 207.655 608.848 206.647 608.304C205.655 607.744 204.879 606.976 204.319 606C203.759 605.024 203.479 603.92 203.479 602.688C203.479 601.456 203.743 600.352 204.271 599.376C204.815 598.4 205.551 597.64 206.479 597.096C207.423 596.552 208.479 596.28 209.647 596.28C210.815 596.28 211.863 596.552 212.791 597.096C213.719 597.64 214.447 598.4 214.975 599.376C215.503 600.336 215.767 601.44 215.767 602.688L215.743 603.216ZM209.647 597.744C208.431 597.744 207.407 598.136 206.575 598.92C205.759 599.688 205.295 600.696 205.183 601.944H214.135C214.023 600.696 213.551 599.688 212.719 598.92C211.903 598.136 210.879 597.744 209.647 597.744Z" fill="#F2F2F2"/>
</g>
<g clip-path="url(#clip2)">
<g filter="url(#filter2_di)">
<path d="M339.845 888C340.56 889.238 340.56 890.762 339.845 892L260.655 1029.16C259.94 1030.4 258.62 1031.16 257.191 1031.16L98.8094 1031.16C97.3803 1031.16 96.0598 1030.4 95.3453 1029.16L16.1547 892C15.4402 890.762 15.4401 889.238 16.1547 888L95.3453 750.838C96.0598 749.6 97.3803 748.838 98.8094 748.838L257.191 748.838C258.62 748.838 259.94 749.6 260.655 750.838L339.845 888Z" fill="#171717"/>
</g>
<path fill-rule="evenodd" clip-rule="evenodd" d="M179.725 870.264C165.95 870.264 154.725 859.039 154.725 845.264C154.725 831.489 165.95 820.264 179.725 820.264C193.5 820.264 204.725 831.489 204.725 845.264C204.725 859.039 193.5 870.264 179.725 870.264ZM179.725 823.264C167.6 823.264 157.725 833.139 157.725 845.264C157.725 857.389 167.6 867.264 179.725 867.264C191.85 867.264 201.725 857.389 201.725 845.264C201.725 833.139 191.85 823.264 179.725 823.264Z" fill="#828282"/>
<path fill-rule="evenodd" clip-rule="evenodd" d="M189.9 856.939C189.575 856.189 188.7 855.839 187.925 856.164C186.8 856.664 185.675 856.864 184.575 856.764C183.7 856.689 183.1 856.439 182.425 856.164C182 855.989 181.575 855.814 181.1 855.664C180 855.339 178.8 855.264 177.55 855.414C178.4 853.689 178.6 852.164 178.6 851.014C178.575 850.214 178.425 849.539 178.225 848.864H183.8C184.625 848.864 185.3 848.189 185.3 847.364C185.3 846.539 184.625 845.864 183.8 845.864H176.775C176.725 845.764 176.65 845.664 176.6 845.564C175.7 844.139 174.825 842.764 174.8 840.639C174.8 839.889 174.75 837.914 176.075 836.189C177 834.989 178.45 834.139 180.175 833.839C184.125 833.139 187.25 836.389 187.375 836.539C187.95 837.139 188.9 837.164 189.5 836.614C190.1 836.039 190.125 835.089 189.575 834.489C189.125 834.014 185.1 829.939 179.675 830.889C177.2 831.339 175.1 832.564 173.7 834.389C171.75 836.914 171.8 839.764 171.8 840.689C171.825 842.889 172.5 844.514 173.275 845.889H170.9C170.075 845.889 169.4 846.564 169.4 847.389C169.4 848.214 170.075 848.889 170.9 848.889H175.025C175.35 849.564 175.575 850.264 175.575 851.089C175.6 852.464 175.1 854.664 172.525 857.214C172 857.739 171.95 858.564 172.375 859.164C172.8 859.764 173.6 859.964 174.275 859.614C176.6 858.439 178.6 858.064 180.225 858.539C180.6 858.639 180.925 858.789 181.25 858.914C182.05 859.239 182.95 859.614 184.325 859.739C184.575 859.764 184.825 859.764 185.1 859.764C186.45 859.764 187.8 859.464 189.125 858.889C189.9 858.564 190.25 857.689 189.9 856.939Z" fill="#828282"/>
<path d="M80.5438 929.144C79.2958 929.144 78.0958 928.944 76.9438 928.544C75.8078 928.144 74.9278 927.616 74.3038 926.96L74.9998 925.592C75.6078 926.2 76.4158 926.696 77.4238 927.08C78.4318 927.448 79.4718 927.632 80.5438 927.632C82.0478 927.632 83.1758 927.36 83.9278 926.816C84.6798 926.256 85.0558 925.536 85.0558 924.656C85.0558 923.984 84.8478 923.448 84.4318 923.048C84.0318 922.648 83.5358 922.344 82.9438 922.136C82.3518 921.912 81.5278 921.672 80.4718 921.416C79.2078 921.096 78.1998 920.792 77.4478 920.504C76.6958 920.2 76.0478 919.744 75.5038 919.136C74.9758 918.528 74.7118 917.704 74.7118 916.664C74.7118 915.816 74.9358 915.048 75.3838 914.36C75.8318 913.656 76.5198 913.096 77.4478 912.68C78.3758 912.264 79.5278 912.056 80.9038 912.056C81.8638 912.056 82.7998 912.192 83.7118 912.464C84.6398 912.72 85.4398 913.08 86.1118 913.544L85.5118 914.96C84.8078 914.496 84.0558 914.152 83.2558 913.928C82.4558 913.688 81.6718 913.568 80.9038 913.568C79.4318 913.568 78.3198 913.856 77.5678 914.432C76.8318 914.992 76.4638 915.72 76.4638 916.616C76.4638 917.288 76.6638 917.832 77.0638 918.248C77.4798 918.648 77.9918 918.96 78.5998 919.184C79.2238 919.392 80.0558 919.624 81.0958 919.88C82.3278 920.184 83.3198 920.488 84.0718 920.792C84.8398 921.08 85.4878 921.528 86.0158 922.136C86.5438 922.728 86.8078 923.536 86.8078 924.56C86.8078 925.408 86.5758 926.184 86.1118 926.888C85.6638 927.576 84.9678 928.128 84.0238 928.544C83.0798 928.944 81.9198 929.144 80.5438 929.144ZM90.3174 916.376H92.0214V929H90.3174V916.376ZM91.1814 913.616C90.8294 913.616 90.5334 913.496 90.2934 913.256C90.0534 913.016 89.9334 912.728 89.9334 912.392C89.9334 912.072 90.0534 911.792 90.2934 911.552C90.5334 911.312 90.8294 911.192 91.1814 911.192C91.5334 911.192 91.8294 911.312 92.0694 911.552C92.3094 911.776 92.4294 912.048 92.4294 912.368C92.4294 912.72 92.3094 913.016 92.0694 913.256C91.8294 913.496 91.5334 913.616 91.1814 913.616ZM103.411 928.232C103.091 928.52 102.691 928.744 102.211 928.904C101.747 929.048 101.259 929.12 100.747 929.12C99.5627 929.12 98.6507 928.8 98.0107 928.16C97.3707 927.52 97.0507 926.616 97.0507 925.448V917.816H94.7947V916.376H97.0507V913.616H98.7547V916.376H102.595V917.816H98.7547V925.352C98.7547 926.104 98.9387 926.68 99.3067 927.08C99.6907 927.464 100.235 927.656 100.939 927.656C101.291 927.656 101.627 927.6 101.947 927.488C102.283 927.376 102.571 927.216 102.811 927.008L103.411 928.232ZM117.059 923.216H106.499C106.595 924.528 107.099 925.592 108.011 926.408C108.923 927.208 110.075 927.608 111.467 927.608C112.251 927.608 112.971 927.472 113.627 927.2C114.283 926.912 114.851 926.496 115.331 925.952L116.291 927.056C115.731 927.728 115.027 928.24 114.179 928.592C113.347 928.944 112.427 929.12 111.419 929.12C110.123 929.12 108.971 928.848 107.963 928.304C106.971 927.744 106.195 926.976 105.635 926C105.075 925.024 104.795 923.92 104.795 922.688C104.795 921.456 105.059 920.352 105.587 919.376C106.131 918.4 106.867 917.64 107.795 917.096C108.739 916.552 109.795 916.28 110.963 916.28C112.131 916.28 113.179 916.552 114.107 917.096C115.035 917.64 115.763 918.4 116.291 919.376C116.819 920.336 117.083 921.44 117.083 922.688L117.059 923.216ZM110.963 917.744C109.747 917.744 108.723 918.136 107.891 918.92C107.075 919.688 106.611 920.696 106.499 921.944H115.451C115.339 920.696 114.867 919.688 114.035 918.92C113.219 918.136 112.195 917.744 110.963 917.744ZM128.465 918.848C128.865 918 129.457 917.36 130.241 916.928C131.041 916.496 132.025 916.28 133.193 916.28V917.936L132.785 917.912C131.457 917.912 130.417 918.32 129.665 919.136C128.913 919.952 128.537 921.096 128.537 922.568V929H126.833V916.376H128.465V918.848ZM140.671 916.28C142.319 916.28 143.583 916.696 144.463 917.528C145.343 918.344 145.783 919.56 145.783 921.176V929H144.151V927.032C143.767 927.688 143.199 928.2 142.447 928.568C141.711 928.936 140.831 929.12 139.807 929.12C138.399 929.12 137.279 928.784 136.447 928.112C135.615 927.44 135.199 926.552 135.199 925.448C135.199 924.376 135.583 923.512 136.351 922.856C137.135 922.2 138.375 921.872 140.071 921.872H144.079V921.104C144.079 920.016 143.775 919.192 143.167 918.632C142.559 918.056 141.671 917.768 140.503 917.768C139.703 917.768 138.935 917.904 138.199 918.176C137.463 918.432 136.831 918.792 136.303 919.256L135.535 917.984C136.175 917.44 136.943 917.024 137.839 916.736C138.735 916.432 139.679 916.28 140.671 916.28ZM140.071 927.776C141.031 927.776 141.855 927.56 142.543 927.128C143.231 926.68 143.743 926.04 144.079 925.208V923.144H140.119C137.959 923.144 136.879 923.896 136.879 925.4C136.879 926.136 137.159 926.72 137.719 927.152C138.279 927.568 139.063 927.776 140.071 927.776ZM150.411 916.376H152.115V929H150.411V916.376ZM151.275 913.616C150.923 913.616 150.627 913.496 150.387 913.256C150.147 913.016 150.027 912.728 150.027 912.392C150.027 912.072 150.147 911.792 150.387 911.552C150.627 911.312 150.923 911.192 151.275 911.192C151.627 911.192 151.923 911.312 152.163 911.552C152.403 911.776 152.523 912.048 152.523 912.368C152.523 912.72 152.403 913.016 152.163 913.256C151.923 913.496 151.627 913.616 151.275 913.616ZM160.24 929.12C159.216 929.12 158.232 928.976 157.288 928.688C156.36 928.384 155.632 928.008 155.104 927.56L155.872 926.216C156.4 926.632 157.064 926.976 157.864 927.248C158.664 927.504 159.496 927.632 160.36 927.632C161.512 927.632 162.36 927.456 162.904 927.104C163.464 926.736 163.744 926.224 163.744 925.568C163.744 925.104 163.592 924.744 163.288 924.488C162.984 924.216 162.6 924.016 162.136 923.888C161.672 923.744 161.056 923.608 160.288 923.48C159.264 923.288 158.44 923.096 157.816 922.904C157.192 922.696 156.656 922.352 156.208 921.872C155.776 921.392 155.56 920.728 155.56 919.88C155.56 918.824 156 917.96 156.88 917.288C157.76 916.616 158.984 916.28 160.552 916.28C161.368 916.28 162.184 916.392 163 916.616C163.816 916.824 164.488 917.104 165.016 917.456L164.272 918.824C163.232 918.104 161.992 917.744 160.552 917.744C159.464 917.744 158.64 917.936 158.08 918.32C157.536 918.704 157.264 919.208 157.264 919.832C157.264 920.312 157.416 920.696 157.72 920.984C158.04 921.272 158.432 921.488 158.896 921.632C159.36 921.76 160 921.896 160.816 922.04C161.824 922.232 162.632 922.424 163.24 922.616C163.848 922.808 164.368 923.136 164.8 923.6C165.232 924.064 165.448 924.704 165.448 925.52C165.448 926.624 164.984 927.504 164.056 928.16C163.144 928.8 161.872 929.12 160.24 929.12ZM179.591 923.216H169.031C169.127 924.528 169.631 925.592 170.543 926.408C171.455 927.208 172.607 927.608 173.999 927.608C174.783 927.608 175.503 927.472 176.159 927.2C176.815 926.912 177.383 926.496 177.863 925.952L178.823 927.056C178.263 927.728 177.559 928.24 176.711 928.592C175.879 928.944 174.959 929.12 173.951 929.12C172.655 929.12 171.503 928.848 170.495 928.304C169.503 927.744 168.727 926.976 168.167 926C167.607 925.024 167.327 923.92 167.327 922.688C167.327 921.456 167.591 920.352 168.119 919.376C168.663 918.4 169.399 917.64 170.327 917.096C171.271 916.552 172.327 916.28 173.495 916.28C174.663 916.28 175.711 916.552 176.639 917.096C177.567 917.64 178.295 918.4 178.823 919.376C179.351 920.336 179.615 921.44 179.615 922.688L179.591 923.216ZM173.495 917.744C172.279 917.744 171.255 918.136 170.423 918.92C169.607 919.688 169.143 920.696 169.031 921.944H177.983C177.871 920.696 177.399 919.688 176.567 918.92C175.751 918.136 174.727 917.744 173.495 917.744ZM186.467 929.12C185.443 929.12 184.459 928.976 183.515 928.688C182.587 928.384 181.859 928.008 181.331 927.56L182.099 926.216C182.627 926.632 183.291 926.976 184.091 927.248C184.891 927.504 185.723 927.632 186.587 927.632C187.739 927.632 188.587 927.456 189.131 927.104C189.691 926.736 189.971 926.224 189.971 925.568C189.971 925.104 189.819 924.744 189.515 924.488C189.211 924.216 188.827 924.016 188.363 923.888C187.899 923.744 187.283 923.608 186.515 923.48C185.491 923.288 184.667 923.096 184.043 922.904C183.419 922.696 182.883 922.352 182.435 921.872C182.003 921.392 181.787 920.728 181.787 919.88C181.787 918.824 182.227 917.96 183.107 917.288C183.987 916.616 185.211 916.28 186.779 916.28C187.595 916.28 188.411 916.392 189.227 916.616C190.043 916.824 190.715 917.104 191.243 917.456L190.499 918.824C189.459 918.104 188.219 917.744 186.779 917.744C185.691 917.744 184.867 917.936 184.307 918.32C183.763 918.704 183.491 919.208 183.491 919.832C183.491 920.312 183.643 920.696 183.947 920.984C184.267 921.272 184.659 921.488 185.123 921.632C185.587 921.76 186.227 921.896 187.043 922.04C188.051 922.232 188.859 922.424 189.467 922.616C190.075 922.808 190.595 923.136 191.027 923.6C191.459 924.064 191.675 924.704 191.675 925.52C191.675 926.624 191.211 927.504 190.283 928.16C189.371 928.8 188.099 929.12 186.467 929.12ZM216.85 916.28C218.434 916.28 219.674 916.736 220.57 917.648C221.482 918.56 221.938 919.904 221.938 921.68V929H220.234V921.848C220.234 920.536 219.914 919.536 219.274 918.848C218.65 918.16 217.762 917.816 216.61 917.816C215.298 917.816 214.266 918.224 213.514 919.04C212.762 919.84 212.386 920.952 212.386 922.376V929H210.682V921.848C210.682 920.536 210.362 919.536 209.722 918.848C209.098 918.16 208.202 917.816 207.034 917.816C205.738 917.816 204.706 918.224 203.938 919.04C203.186 919.84 202.81 920.952 202.81 922.376V929H201.106V916.376H202.738V918.68C203.186 917.912 203.81 917.32 204.61 916.904C205.41 916.488 206.33 916.28 207.37 916.28C208.426 916.28 209.338 916.504 210.106 916.952C210.89 917.4 211.474 918.064 211.858 918.944C212.322 918.112 212.986 917.464 213.85 917C214.73 916.52 215.73 916.28 216.85 916.28ZM231.766 929.12C230.55 929.12 229.454 928.848 228.478 928.304C227.502 927.744 226.734 926.976 226.174 926C225.614 925.024 225.334 923.92 225.334 922.688C225.334 921.456 225.614 920.352 226.174 919.376C226.734 918.4 227.502 917.64 228.478 917.096C229.454 916.552 230.55 916.28 231.766 916.28C232.982 916.28 234.078 916.552 235.054 917.096C236.03 917.64 236.79 918.4 237.334 919.376C237.894 920.352 238.174 921.456 238.174 922.688C238.174 923.92 237.894 925.024 237.334 926C236.79 926.976 236.03 927.744 235.054 928.304C234.078 928.848 232.982 929.12 231.766 929.12ZM231.766 927.608C232.662 927.608 233.462 927.408 234.166 927.008C234.886 926.592 235.446 926.008 235.846 925.256C236.246 924.504 236.446 923.648 236.446 922.688C236.446 921.728 236.246 920.872 235.846 920.12C235.446 919.368 234.886 918.792 234.166 918.392C233.462 917.976 232.662 917.768 231.766 917.768C230.87 917.768 230.062 917.976 229.342 918.392C228.638 918.792 228.078 919.368 227.662 920.12C227.262 920.872 227.062 921.728 227.062 922.688C227.062 923.648 227.262 924.504 227.662 925.256C228.078 926.008 228.638 926.592 229.342 927.008C230.062 927.408 230.87 927.608 231.766 927.608ZM248.085 916.28C249.669 916.28 250.925 916.744 251.853 917.672C252.797 918.584 253.269 919.92 253.269 921.68V929H251.565V921.848C251.565 920.536 251.237 919.536 250.581 918.848C249.925 918.16 248.989 917.816 247.773 917.816C246.413 917.816 245.333 918.224 244.533 919.04C243.749 919.84 243.357 920.952 243.357 922.376V929H241.653V916.376H243.285V918.704C243.749 917.936 244.389 917.344 245.205 916.928C246.037 916.496 246.997 916.28 248.085 916.28ZM268.934 923.216H258.374C258.47 924.528 258.974 925.592 259.886 926.408C260.798 927.208 261.95 927.608 263.342 927.608C264.126 927.608 264.846 927.472 265.502 927.2C266.158 926.912 266.726 926.496 267.206 925.952L268.166 927.056C267.606 927.728 266.902 928.24 266.054 928.592C265.222 928.944 264.302 929.12 263.294 929.12C261.998 929.12 260.846 928.848 259.838 928.304C258.846 927.744 258.07 926.976 257.51 926C256.95 925.024 256.67 923.92 256.67 922.688C256.67 921.456 256.934 920.352 257.462 919.376C258.006 918.4 258.742 917.64 259.67 917.096C260.614 916.552 261.67 916.28 262.838 916.28C264.006 916.28 265.054 916.552 265.982 917.096C266.91 917.64 267.638 918.4 268.166 919.376C268.694 920.336 268.958 921.44 268.958 922.688L268.934 923.216ZM262.838 917.744C261.622 917.744 260.598 918.136 259.766 918.92C258.95 919.688 258.486 920.696 258.374 921.944H267.326C267.214 920.696 266.742 919.688 265.91 918.92C265.094 918.136 264.07 917.744 262.838 917.744ZM282.8 916.376L276.488 930.512C275.976 931.696 275.384 932.536 274.712 933.032C274.04 933.528 273.232 933.776 272.288 933.776C271.68 933.776 271.112 933.68 270.584 933.488C270.056 933.296 269.6 933.008 269.216 932.624L270.008 931.352C270.648 931.992 271.416 932.312 272.312 932.312C272.888 932.312 273.376 932.152 273.776 931.832C274.192 931.512 274.576 930.968 274.928 930.2L275.48 928.976L269.84 916.376H271.616L276.368 927.104L281.12 916.376H282.8ZM106.927 948.512C106.191 948.512 105.631 948.712 105.247 949.112C104.879 949.512 104.695 950.104 104.695 950.888V952.376H108.583V953.816H104.743V965H103.039V953.816H100.783V952.376H103.039V950.816C103.039 949.664 103.367 948.752 104.023 948.08C104.695 947.408 105.639 947.072 106.855 947.072C107.335 947.072 107.799 947.144 108.247 947.288C108.695 947.416 109.071 947.608 109.375 947.864L108.799 949.136C108.303 948.72 107.679 948.512 106.927 948.512ZM114.438 954.848C114.838 954 115.43 953.36 116.214 952.928C117.014 952.496 117.998 952.28 119.166 952.28V953.936L118.758 953.912C117.43 953.912 116.39 954.32 115.638 955.136C114.886 955.952 114.51 957.096 114.51 958.568V965H112.806V952.376H114.438V954.848ZM127.294 965.12C126.078 965.12 124.982 964.848 124.006 964.304C123.03 963.744 122.262 962.976 121.702 962C121.142 961.024 120.862 959.92 120.862 958.688C120.862 957.456 121.142 956.352 121.702 955.376C122.262 954.4 123.03 953.64 124.006 953.096C124.982 952.552 126.078 952.28 127.294 952.28C128.51 952.28 129.606 952.552 130.582 953.096C131.558 953.64 132.318 954.4 132.862 955.376C133.422 956.352 133.702 957.456 133.702 958.688C133.702 959.92 133.422 961.024 132.862 962C132.318 962.976 131.558 963.744 130.582 964.304C129.606 964.848 128.51 965.12 127.294 965.12ZM127.294 963.608C128.19 963.608 128.99 963.408 129.694 963.008C130.414 962.592 130.974 962.008 131.374 961.256C131.774 960.504 131.974 959.648 131.974 958.688C131.974 957.728 131.774 956.872 131.374 956.12C130.974 955.368 130.414 954.792 129.694 954.392C128.99 953.976 128.19 953.768 127.294 953.768C126.398 953.768 125.59 953.976 124.87 954.392C124.166 954.792 123.606 955.368 123.19 956.12C122.79 956.872 122.59 957.728 122.59 958.688C122.59 959.648 122.79 960.504 123.19 961.256C123.606 962.008 124.166 962.592 124.87 963.008C125.59 963.408 126.398 963.608 127.294 963.608ZM152.925 952.28C154.509 952.28 155.749 952.736 156.645 953.648C157.557 954.56 158.013 955.904 158.013 957.68V965H156.309V957.848C156.309 956.536 155.989 955.536 155.349 954.848C154.725 954.16 153.837 953.816 152.685 953.816C151.373 953.816 150.341 954.224 149.589 955.04C148.837 955.84 148.461 956.952 148.461 958.376V965H146.757V957.848C146.757 956.536 146.437 955.536 145.797 954.848C145.173 954.16 144.277 953.816 143.109 953.816C141.813 953.816 140.781 954.224 140.013 955.04C139.261 955.84 138.885 956.952 138.885 958.376V965H137.181V952.376H138.813V954.68C139.261 953.912 139.885 953.32 140.685 952.904C141.485 952.488 142.405 952.28 143.445 952.28C144.501 952.28 145.413 952.504 146.181 952.952C146.965 953.4 147.549 954.064 147.933 954.944C148.397 954.112 149.061 953.464 149.925 953C150.805 952.52 151.805 952.28 152.925 952.28ZM173.331 952.28C174.979 952.28 176.243 952.696 177.123 953.528C178.003 954.344 178.443 955.56 178.443 957.176V965H176.811V963.032C176.427 963.688 175.859 964.2 175.107 964.568C174.371 964.936 173.491 965.12 172.467 965.12C171.059 965.12 169.939 964.784 169.107 964.112C168.275 963.44 167.859 962.552 167.859 961.448C167.859 960.376 168.243 959.512 169.011 958.856C169.795 958.2 171.035 957.872 172.731 957.872H176.739V957.104C176.739 956.016 176.435 955.192 175.827 954.632C175.219 954.056 174.331 953.768 173.163 953.768C172.363 953.768 171.595 953.904 170.859 954.176C170.123 954.432 169.491 954.792 168.963 955.256L168.195 953.984C168.835 953.44 169.603 953.024 170.499 952.736C171.395 952.432 172.339 952.28 173.331 952.28ZM172.731 963.776C173.691 963.776 174.515 963.56 175.203 963.128C175.891 962.68 176.403 962.04 176.739 961.208V959.144H172.779C170.619 959.144 169.539 959.896 169.539 961.4C169.539 962.136 169.819 962.72 170.379 963.152C170.939 963.568 171.723 963.776 172.731 963.776ZM194.638 947.192V965H193.006V962.504C192.494 963.352 191.814 964 190.966 964.448C190.134 964.896 189.19 965.12 188.134 965.12C186.95 965.12 185.878 964.848 184.918 964.304C183.958 963.76 183.206 963 182.662 962.024C182.118 961.048 181.846 959.936 181.846 958.688C181.846 957.44 182.118 956.328 182.662 955.352C183.206 954.376 183.958 953.624 184.918 953.096C185.878 952.552 186.95 952.28 188.134 952.28C189.158 952.28 190.078 952.496 190.894 952.928C191.726 953.344 192.406 953.96 192.934 954.776V947.192H194.638ZM188.278 963.608C189.158 963.608 189.95 963.408 190.654 963.008C191.374 962.592 191.934 962.008 192.334 961.256C192.75 960.504 192.958 959.648 192.958 958.688C192.958 957.728 192.75 956.872 192.334 956.12C191.934 955.368 191.374 954.792 190.654 954.392C189.95 953.976 189.158 953.768 188.278 953.768C187.382 953.768 186.574 953.976 185.854 954.392C185.15 954.792 184.59 955.368 184.174 956.12C183.774 956.872 183.574 957.728 183.574 958.688C183.574 959.648 183.774 960.504 184.174 961.256C184.59 962.008 185.15 962.592 185.854 963.008C186.574 963.408 187.382 963.608 188.278 963.608ZM209.992 952.376L204.376 965H202.624L197.032 952.376H198.808L203.536 963.128L208.312 952.376H209.992ZM223.032 959.216H212.472C212.568 960.528 213.072 961.592 213.984 962.408C214.896 963.208 216.048 963.608 217.44 963.608C218.224 963.608 218.944 963.472 219.6 963.2C220.256 962.912 220.824 962.496 221.304 961.952L222.264 963.056C221.704 963.728 221 964.24 220.152 964.592C219.32 964.944 218.4 965.12 217.392 965.12C216.096 965.12 214.944 964.848 213.936 964.304C212.944 963.744 212.168 962.976 211.608 962C211.048 961.024 210.768 959.92 210.768 958.688C210.768 957.456 211.032 956.352 211.56 955.376C212.104 954.4 212.84 953.64 213.768 953.096C214.712 952.552 215.768 952.28 216.936 952.28C218.104 952.28 219.152 952.552 220.08 953.096C221.008 953.64 221.736 954.4 222.264 955.376C222.792 956.336 223.056 957.44 223.056 958.688L223.032 959.216ZM216.936 953.744C215.72 953.744 214.696 954.136 213.864 954.92C213.048 955.688 212.584 956.696 212.472 957.944H221.424C221.312 956.696 220.84 955.688 220.008 954.92C219.192 954.136 218.168 953.744 216.936 953.744ZM228.156 954.848C228.556 954 229.148 953.36 229.932 952.928C230.732 952.496 231.716 952.28 232.884 952.28V953.936L232.476 953.912C231.148 953.912 230.108 954.32 229.356 955.136C228.604 955.952 228.228 957.096 228.228 958.568V965H226.524V952.376H228.156V954.848ZM243.157 964.232C242.837 964.52 242.437 964.744 241.957 964.904C241.493 965.048 241.005 965.12 240.493 965.12C239.309 965.12 238.397 964.8 237.757 964.16C237.117 963.52 236.797 962.616 236.797 961.448V953.816H234.541V952.376H236.797V949.616H238.501V952.376H242.341V953.816H238.501V961.352C238.501 962.104 238.685 962.68 239.053 963.08C239.437 963.464 239.981 963.656 240.685 963.656C241.037 963.656 241.373 963.6 241.693 963.488C242.029 963.376 242.317 963.216 242.557 963.008L243.157 964.232ZM249.643 965.12C248.619 965.12 247.635 964.976 246.691 964.688C245.763 964.384 245.035 964.008 244.507 963.56L245.275 962.216C245.803 962.632 246.467 962.976 247.267 963.248C248.067 963.504 248.899 963.632 249.763 963.632C250.915 963.632 251.763 963.456 252.307 963.104C252.867 962.736 253.147 962.224 253.147 961.568C253.147 961.104 252.995 960.744 252.691 960.488C252.387 960.216 252.003 960.016 251.539 959.888C251.075 959.744 250.459 959.608 249.691 959.48C248.667 959.288 247.843 959.096 247.219 958.904C246.595 958.696 246.059 958.352 245.611 957.872C245.179 957.392 244.963 956.728 244.963 955.88C244.963 954.824 245.403 953.96 246.283 953.288C247.163 952.616 248.387 952.28 249.955 952.28C250.771 952.28 251.587 952.392 252.403 952.616C253.219 952.824 253.891 953.104 254.419 953.456L253.675 954.824C252.635 954.104 251.395 953.744 249.955 953.744C248.867 953.744 248.043 953.936 247.483 954.32C246.939 954.704 246.667 955.208 246.667 955.832C246.667 956.312 246.819 956.696 247.123 956.984C247.443 957.272 247.835 957.488 248.299 957.632C248.763 957.76 249.403 957.896 250.219 958.04C251.227 958.232 252.035 958.424 252.643 958.616C253.251 958.808 253.771 959.136 254.203 959.6C254.635 960.064 254.851 960.704 254.851 961.52C254.851 962.624 254.387 963.504 253.459 964.16C252.547 964.8 251.275 965.12 249.643 965.12Z" fill="#F2F2F2"/>
</g>
<g clip-path="url(#clip3)">
<g filter="url(#filter3_di)">
<path d="M339.845 1244C340.56 1245.24 340.56 1246.76 339.845 1248L260.655 1385.16C259.94 1386.4 258.62 1387.16 257.191 1387.16L98.8094 1387.16C97.3803 1387.16 96.0598 1386.4 95.3453 1385.16L16.1547 1248C15.4402 1246.76 15.4401 1245.24 16.1547 1244L95.3453 1106.84C96.0598 1105.6 97.3803 1104.84 98.8094 1104.84L257.191 1104.84C258.62 1104.84 259.94 1105.6 260.655 1106.84L339.845 1244Z" fill="#171717"/>
</g>
<path fill-rule="evenodd" clip-rule="evenodd" d="M203 1196.35L198 1198.9V1217C195.483 1222.1 183.985 1224.5 176.75 1224.5C168.813 1224.5 158.277 1222.02 155.5 1217V1197.51L148 1192.77L178 1179.5L205.5 1195.08V1217L208 1224.5H200.5L203 1217V1196.35ZM158 1199.09V1216.27C160.395 1219.47 168.543 1222 176.75 1222C183.985 1222 193.222 1219.6 195.5 1216.33V1200.17L175.692 1210.27L158 1199.09ZM153.297 1193.16L175.825 1207.39L200.222 1194.96L177.862 1182.3L153.297 1193.16V1193.16Z" fill="#828282"/>
<path d="M92.9569 1279.19V1285H91.2049V1279.19L84.4849 1268.2H86.3809L92.1409 1277.63L97.9009 1268.2H99.6769L92.9569 1279.19ZM105.802 1285.12C104.586 1285.12 103.49 1284.85 102.514 1284.3C101.538 1283.74 100.77 1282.98 100.21 1282C99.6496 1281.02 99.3696 1279.92 99.3696 1278.69C99.3696 1277.46 99.6496 1276.35 100.21 1275.38C100.77 1274.4 101.538 1273.64 102.514 1273.1C103.49 1272.55 104.586 1272.28 105.802 1272.28C107.018 1272.28 108.114 1272.55 109.09 1273.1C110.066 1273.64 110.826 1274.4 111.37 1275.38C111.93 1276.35 112.21 1277.46 112.21 1278.69C112.21 1279.92 111.93 1281.02 111.37 1282C110.826 1282.98 110.066 1283.74 109.09 1284.3C108.114 1284.85 107.018 1285.12 105.802 1285.12ZM105.802 1283.61C106.698 1283.61 107.498 1283.41 108.202 1283.01C108.922 1282.59 109.482 1282.01 109.882 1281.26C110.282 1280.5 110.482 1279.65 110.482 1278.69C110.482 1277.73 110.282 1276.87 109.882 1276.12C109.482 1275.37 108.922 1274.79 108.202 1274.39C107.498 1273.98 106.698 1273.77 105.802 1273.77C104.906 1273.77 104.098 1273.98 103.378 1274.39C102.674 1274.79 102.114 1275.37 101.698 1276.12C101.298 1276.87 101.098 1277.73 101.098 1278.69C101.098 1279.65 101.298 1280.5 101.698 1281.26C102.114 1282.01 102.674 1282.59 103.378 1283.01C104.098 1283.41 104.906 1283.61 105.802 1283.61ZM127.065 1272.38V1285H125.432V1282.7C124.985 1283.46 124.369 1284.06 123.585 1284.5C122.801 1284.91 121.905 1285.12 120.897 1285.12C119.249 1285.12 117.945 1284.66 116.985 1283.75C116.041 1282.82 115.569 1281.47 115.569 1279.7V1272.38H117.273V1279.53C117.273 1280.86 117.601 1281.86 118.257 1282.55C118.913 1283.24 119.849 1283.58 121.065 1283.58C122.393 1283.58 123.441 1283.18 124.209 1282.38C124.977 1281.57 125.361 1280.44 125.361 1279V1272.38H127.065ZM138.269 1272.28C139.853 1272.28 141.109 1272.74 142.037 1273.67C142.981 1274.58 143.453 1275.92 143.453 1277.68V1285H141.749V1277.85C141.749 1276.54 141.421 1275.54 140.765 1274.85C140.109 1274.16 139.173 1273.82 137.957 1273.82C136.597 1273.82 135.517 1274.22 134.717 1275.04C133.933 1275.84 133.541 1276.95 133.541 1278.38V1285H131.837V1272.38H133.469V1274.7C133.933 1273.94 134.573 1273.34 135.389 1272.93C136.221 1272.5 137.181 1272.28 138.269 1272.28ZM159.814 1272.38V1283.46C159.814 1285.61 159.286 1287.19 158.23 1288.22C157.19 1289.26 155.614 1289.78 153.502 1289.78C152.334 1289.78 151.222 1289.6 150.166 1289.25C149.126 1288.91 148.278 1288.44 147.622 1287.83L148.486 1286.54C149.094 1287.08 149.83 1287.5 150.694 1287.81C151.574 1288.11 152.494 1288.26 153.454 1288.26C155.054 1288.26 156.23 1287.89 156.982 1287.14C157.734 1286.4 158.11 1285.25 158.11 1283.68V1282.07C157.582 1282.87 156.886 1283.48 156.022 1283.9C155.174 1284.31 154.23 1284.52 153.19 1284.52C152.006 1284.52 150.926 1284.26 149.95 1283.75C148.99 1283.22 148.23 1282.5 147.67 1281.57C147.126 1280.62 146.854 1279.56 146.854 1278.38C146.854 1277.19 147.126 1276.14 147.67 1275.21C148.23 1274.28 148.99 1273.56 149.95 1273.05C150.91 1272.54 151.99 1272.28 153.19 1272.28C154.262 1272.28 155.23 1272.5 156.094 1272.93C156.958 1273.36 157.654 1273.98 158.182 1274.8V1272.38H159.814ZM153.358 1283.01C154.27 1283.01 155.094 1282.82 155.83 1282.43C156.566 1282.03 157.134 1281.48 157.534 1280.78C157.95 1280.07 158.158 1279.27 158.158 1278.38C158.158 1277.48 157.95 1276.69 157.534 1276C157.134 1275.3 156.566 1274.75 155.83 1274.37C155.11 1273.97 154.286 1273.77 153.358 1273.77C152.446 1273.77 151.622 1273.96 150.886 1274.34C150.166 1274.73 149.598 1275.27 149.182 1275.98C148.782 1276.68 148.582 1277.48 148.582 1278.38C148.582 1279.27 148.782 1280.07 149.182 1280.78C149.598 1281.48 150.166 1282.03 150.886 1282.43C151.622 1282.82 152.446 1283.01 153.358 1283.01ZM176.092 1285.12C174.844 1285.12 173.724 1284.85 172.732 1284.3C171.756 1283.76 170.988 1283 170.428 1282.02C169.868 1281.03 169.588 1279.92 169.588 1278.69C169.588 1277.46 169.868 1276.35 170.428 1275.38C170.988 1274.4 171.756 1273.64 172.732 1273.1C173.724 1272.55 174.844 1272.28 176.092 1272.28C177.18 1272.28 178.148 1272.5 178.996 1272.93C179.86 1273.34 180.54 1273.96 181.036 1274.78L179.764 1275.64C179.348 1275.02 178.82 1274.55 178.18 1274.25C177.54 1273.93 176.844 1273.77 176.092 1273.77C175.18 1273.77 174.356 1273.98 173.62 1274.39C172.9 1274.79 172.332 1275.37 171.916 1276.12C171.516 1276.87 171.316 1277.73 171.316 1278.69C171.316 1279.66 171.516 1280.53 171.916 1281.28C172.332 1282.02 172.9 1282.59 173.62 1283.01C174.356 1283.41 175.18 1283.61 176.092 1283.61C176.844 1283.61 177.54 1283.46 178.18 1283.15C178.82 1282.85 179.348 1282.38 179.764 1281.76L181.036 1282.62C180.54 1283.44 179.86 1284.06 178.996 1284.5C178.132 1284.91 177.164 1285.12 176.092 1285.12ZM186.016 1274.85C186.416 1274 187.008 1273.36 187.792 1272.93C188.592 1272.5 189.576 1272.28 190.744 1272.28V1273.94L190.336 1273.91C189.008 1273.91 187.968 1274.32 187.216 1275.14C186.464 1275.95 186.088 1277.1 186.088 1278.57V1285H184.384V1272.38H186.016V1274.85ZM204.704 1279.22H194.144C194.24 1280.53 194.744 1281.59 195.656 1282.41C196.568 1283.21 197.72 1283.61 199.112 1283.61C199.896 1283.61 200.616 1283.47 201.272 1283.2C201.928 1282.91 202.496 1282.5 202.976 1281.95L203.936 1283.06C203.376 1283.73 202.672 1284.24 201.824 1284.59C200.992 1284.94 200.072 1285.12 199.064 1285.12C197.768 1285.12 196.616 1284.85 195.608 1284.3C194.616 1283.74 193.84 1282.98 193.28 1282C192.72 1281.02 192.44 1279.92 192.44 1278.69C192.44 1277.46 192.704 1276.35 193.232 1275.38C193.776 1274.4 194.512 1273.64 195.44 1273.1C196.384 1272.55 197.44 1272.28 198.608 1272.28C199.776 1272.28 200.824 1272.55 201.752 1273.1C202.68 1273.64 203.408 1274.4 203.936 1275.38C204.464 1276.34 204.728 1277.44 204.728 1278.69L204.704 1279.22ZM198.608 1273.74C197.392 1273.74 196.368 1274.14 195.536 1274.92C194.72 1275.69 194.256 1276.7 194.144 1277.94H203.096C202.984 1276.7 202.512 1275.69 201.68 1274.92C200.864 1274.14 199.84 1273.74 198.608 1273.74ZM212.261 1272.28C213.909 1272.28 215.173 1272.7 216.053 1273.53C216.933 1274.34 217.373 1275.56 217.373 1277.18V1285H215.741V1283.03C215.357 1283.69 214.789 1284.2 214.037 1284.57C213.301 1284.94 212.421 1285.12 211.397 1285.12C209.989 1285.12 208.869 1284.78 208.037 1284.11C207.205 1283.44 206.789 1282.55 206.789 1281.45C206.789 1280.38 207.173 1279.51 207.941 1278.86C208.725 1278.2 209.965 1277.87 211.661 1277.87H215.669V1277.1C215.669 1276.02 215.365 1275.19 214.757 1274.63C214.149 1274.06 213.261 1273.77 212.093 1273.77C211.293 1273.77 210.525 1273.9 209.789 1274.18C209.053 1274.43 208.421 1274.79 207.893 1275.26L207.125 1273.98C207.765 1273.44 208.533 1273.02 209.429 1272.74C210.325 1272.43 211.269 1272.28 212.261 1272.28ZM211.661 1283.78C212.621 1283.78 213.445 1283.56 214.133 1283.13C214.821 1282.68 215.333 1282.04 215.669 1281.21V1279.14H211.709C209.549 1279.14 208.469 1279.9 208.469 1281.4C208.469 1282.14 208.749 1282.72 209.309 1283.15C209.869 1283.57 210.653 1283.78 211.661 1283.78ZM228.649 1284.23C228.329 1284.52 227.929 1284.74 227.449 1284.9C226.985 1285.05 226.497 1285.12 225.985 1285.12C224.801 1285.12 223.889 1284.8 223.249 1284.16C222.609 1283.52 222.289 1282.62 222.289 1281.45V1273.82H220.033V1272.38H222.289V1269.62H223.993V1272.38H227.833V1273.82H223.993V1281.35C223.993 1282.1 224.177 1282.68 224.545 1283.08C224.929 1283.46 225.473 1283.66 226.177 1283.66C226.529 1283.66 226.865 1283.6 227.185 1283.49C227.521 1283.38 227.809 1283.22 228.049 1283.01L228.649 1284.23ZM236.466 1285.12C235.25 1285.12 234.154 1284.85 233.178 1284.3C232.202 1283.74 231.434 1282.98 230.874 1282C230.314 1281.02 230.034 1279.92 230.034 1278.69C230.034 1277.46 230.314 1276.35 230.874 1275.38C231.434 1274.4 232.202 1273.64 233.178 1273.1C234.154 1272.55 235.25 1272.28 236.466 1272.28C237.682 1272.28 238.778 1272.55 239.754 1273.1C240.73 1273.64 241.49 1274.4 242.034 1275.38C242.594 1276.35 242.874 1277.46 242.874 1278.69C242.874 1279.92 242.594 1281.02 242.034 1282C241.49 1282.98 240.73 1283.74 239.754 1284.3C238.778 1284.85 237.682 1285.12 236.466 1285.12ZM236.466 1283.61C237.362 1283.61 238.162 1283.41 238.866 1283.01C239.586 1282.59 240.146 1282.01 240.546 1281.26C240.946 1280.5 241.146 1279.65 241.146 1278.69C241.146 1277.73 240.946 1276.87 240.546 1276.12C240.146 1275.37 239.586 1274.79 238.866 1274.39C238.162 1273.98 237.362 1273.77 236.466 1273.77C235.57 1273.77 234.762 1273.98 234.042 1274.39C233.338 1274.79 232.778 1275.37 232.362 1276.12C231.962 1276.87 231.762 1277.73 231.762 1278.69C231.762 1279.65 231.962 1280.5 232.362 1281.26C232.778 1282.01 233.338 1282.59 234.042 1283.01C234.762 1283.41 235.57 1283.61 236.466 1283.61ZM247.985 1274.85C248.385 1274 248.977 1273.36 249.761 1272.93C250.561 1272.5 251.545 1272.28 252.713 1272.28V1273.94L252.305 1273.91C250.977 1273.91 249.937 1274.32 249.185 1275.14C248.433 1275.95 248.057 1277.1 248.057 1278.57V1285H246.353V1272.38H247.985V1274.85ZM259.276 1285.12C258.252 1285.12 257.268 1284.98 256.324 1284.69C255.396 1284.38 254.668 1284.01 254.14 1283.56L254.908 1282.22C255.436 1282.63 256.1 1282.98 256.9 1283.25C257.7 1283.5 258.532 1283.63 259.396 1283.63C260.548 1283.63 261.396 1283.46 261.94 1283.1C262.5 1282.74 262.78 1282.22 262.78 1281.57C262.78 1281.1 262.628 1280.74 262.324 1280.49C262.02 1280.22 261.636 1280.02 261.172 1279.89C260.708 1279.74 260.092 1279.61 259.324 1279.48C258.3 1279.29 257.476 1279.1 256.852 1278.9C256.228 1278.7 255.692 1278.35 255.244 1277.87C254.812 1277.39 254.596 1276.73 254.596 1275.88C254.596 1274.82 255.036 1273.96 255.916 1273.29C256.796 1272.62 258.02 1272.28 259.588 1272.28C260.404 1272.28 261.22 1272.39 262.036 1272.62C262.852 1272.82 263.524 1273.1 264.052 1273.46L263.308 1274.82C262.268 1274.1 261.028 1273.74 259.588 1273.74C258.5 1273.74 257.676 1273.94 257.116 1274.32C256.572 1274.7 256.3 1275.21 256.3 1275.83C256.3 1276.31 256.452 1276.7 256.756 1276.98C257.076 1277.27 257.468 1277.49 257.932 1277.63C258.396 1277.76 259.036 1277.9 259.852 1278.04C260.86 1278.23 261.668 1278.42 262.276 1278.62C262.884 1278.81 263.404 1279.14 263.836 1279.6C264.268 1280.06 264.484 1280.7 264.484 1281.52C264.484 1282.62 264.02 1283.5 263.092 1284.16C262.18 1284.8 260.908 1285.12 259.276 1285.12ZM116.923 1308.38V1319.46C116.923 1321.61 116.395 1323.19 115.339 1324.22C114.299 1325.26 112.723 1325.78 110.611 1325.78C109.443 1325.78 108.331 1325.6 107.275 1325.25C106.235 1324.91 105.387 1324.44 104.731 1323.83L105.595 1322.54C106.203 1323.08 106.939 1323.5 107.803 1323.81C108.683 1324.11 109.603 1324.26 110.563 1324.26C112.163 1324.26 113.339 1323.89 114.091 1323.14C114.843 1322.4 115.219 1321.25 115.219 1319.68V1318.07C114.691 1318.87 113.995 1319.48 113.131 1319.9C112.283 1320.31 111.339 1320.52 110.299 1320.52C109.115 1320.52 108.035 1320.26 107.059 1319.75C106.099 1319.22 105.339 1318.5 104.779 1317.57C104.235 1316.62 103.963 1315.56 103.963 1314.38C103.963 1313.19 104.235 1312.14 104.779 1311.21C105.339 1310.28 106.099 1309.56 107.059 1309.05C108.019 1308.54 109.099 1308.28 110.299 1308.28C111.371 1308.28 112.339 1308.5 113.203 1308.93C114.067 1309.36 114.763 1309.98 115.291 1310.8V1308.38H116.923ZM110.467 1319.01C111.379 1319.01 112.203 1318.82 112.939 1318.43C113.675 1318.03 114.243 1317.48 114.643 1316.78C115.059 1316.07 115.267 1315.27 115.267 1314.38C115.267 1313.48 115.059 1312.69 114.643 1312C114.243 1311.3 113.675 1310.75 112.939 1310.37C112.219 1309.97 111.395 1309.77 110.467 1309.77C109.555 1309.77 108.731 1309.96 107.995 1310.34C107.275 1310.73 106.707 1311.27 106.291 1311.98C105.891 1312.68 105.691 1313.48 105.691 1314.38C105.691 1315.27 105.891 1316.07 106.291 1316.78C106.707 1317.48 107.275 1318.03 107.995 1318.43C108.731 1318.82 109.555 1319.01 110.467 1319.01ZM132.681 1315.22H122.121C122.217 1316.53 122.721 1317.59 123.633 1318.41C124.545 1319.21 125.697 1319.61 127.089 1319.61C127.873 1319.61 128.593 1319.47 129.249 1319.2C129.905 1318.91 130.473 1318.5 130.953 1317.95L131.913 1319.06C131.353 1319.73 130.649 1320.24 129.801 1320.59C128.969 1320.94 128.049 1321.12 127.041 1321.12C125.745 1321.12 124.593 1320.85 123.585 1320.3C122.593 1319.74 121.817 1318.98 121.257 1318C120.697 1317.02 120.417 1315.92 120.417 1314.69C120.417 1313.46 120.681 1312.35 121.209 1311.38C121.753 1310.4 122.489 1309.64 123.417 1309.1C124.361 1308.55 125.417 1308.28 126.585 1308.28C127.753 1308.28 128.801 1308.55 129.729 1309.1C130.657 1309.64 131.385 1310.4 131.913 1311.38C132.441 1312.34 132.705 1313.44 132.705 1314.69L132.681 1315.22ZM126.585 1309.74C125.369 1309.74 124.345 1310.14 123.513 1310.92C122.697 1311.69 122.233 1312.7 122.121 1313.94H131.073C130.961 1312.7 130.489 1311.69 129.657 1310.92C128.841 1310.14 127.817 1309.74 126.585 1309.74ZM142.821 1320.23C142.501 1320.52 142.101 1320.74 141.621 1320.9C141.157 1321.05 140.669 1321.12 140.157 1321.12C138.973 1321.12 138.061 1320.8 137.421 1320.16C136.781 1319.52 136.461 1318.62 136.461 1317.45V1309.82H134.205V1308.38H136.461V1305.62H138.165V1308.38H142.005V1309.82H138.165V1317.35C138.165 1318.1 138.349 1318.68 138.717 1319.08C139.101 1319.46 139.645 1319.66 140.349 1319.66C140.701 1319.66 141.037 1319.6 141.357 1319.49C141.693 1319.38 141.981 1319.22 142.221 1319.01L142.821 1320.23ZM156.38 1304.51C155.644 1304.51 155.084 1304.71 154.7 1305.11C154.332 1305.51 154.148 1306.1 154.148 1306.89V1308.38H158.036V1309.82H154.196V1321H152.492V1309.82H150.236V1308.38H152.492V1306.82C152.492 1305.66 152.82 1304.75 153.476 1304.08C154.148 1303.41 155.092 1303.07 156.308 1303.07C156.788 1303.07 157.252 1303.14 157.7 1303.29C158.148 1303.42 158.524 1303.61 158.828 1303.86L158.252 1305.14C157.756 1304.72 157.132 1304.51 156.38 1304.51ZM163.891 1310.85C164.291 1310 164.883 1309.36 165.667 1308.93C166.467 1308.5 167.451 1308.28 168.619 1308.28V1309.94L168.211 1309.91C166.883 1309.91 165.843 1310.32 165.091 1311.14C164.339 1311.95 163.963 1313.1 163.963 1314.57V1321H162.259V1308.38H163.891V1310.85ZM182.579 1315.22H172.019C172.115 1316.53 172.619 1317.59 173.531 1318.41C174.443 1319.21 175.595 1319.61 176.987 1319.61C177.771 1319.61 178.491 1319.47 179.147 1319.2C179.803 1318.91 180.371 1318.5 180.851 1317.95L181.811 1319.06C181.251 1319.73 180.547 1320.24 179.699 1320.59C178.867 1320.94 177.947 1321.12 176.939 1321.12C175.643 1321.12 174.491 1320.85 173.483 1320.3C172.491 1319.74 171.715 1318.98 171.155 1318C170.595 1317.02 170.315 1315.92 170.315 1314.69C170.315 1313.46 170.579 1312.35 171.107 1311.38C171.651 1310.4 172.387 1309.64 173.315 1309.1C174.259 1308.55 175.315 1308.28 176.483 1308.28C177.651 1308.28 178.699 1308.55 179.627 1309.1C180.555 1309.64 181.283 1310.4 181.811 1311.38C182.339 1312.34 182.603 1313.44 182.603 1314.69L182.579 1315.22ZM176.483 1309.74C175.267 1309.74 174.243 1310.14 173.411 1310.92C172.595 1311.69 172.131 1312.7 172.019 1313.94H180.971C180.859 1312.7 180.387 1311.69 179.555 1310.92C178.739 1310.14 177.715 1309.74 176.483 1309.74ZM197.063 1315.22H186.503C186.599 1316.53 187.103 1317.59 188.015 1318.41C188.927 1319.21 190.079 1319.61 191.471 1319.61C192.255 1319.61 192.975 1319.47 193.631 1319.2C194.287 1318.91 194.855 1318.5 195.335 1317.95L196.295 1319.06C195.735 1319.73 195.031 1320.24 194.183 1320.59C193.351 1320.94 192.431 1321.12 191.423 1321.12C190.127 1321.12 188.975 1320.85 187.967 1320.3C186.975 1319.74 186.199 1318.98 185.639 1318C185.079 1317.02 184.799 1315.92 184.799 1314.69C184.799 1313.46 185.063 1312.35 185.591 1311.38C186.135 1310.4 186.871 1309.64 187.799 1309.1C188.743 1308.55 189.799 1308.28 190.967 1308.28C192.135 1308.28 193.183 1308.55 194.111 1309.1C195.039 1309.64 195.767 1310.4 196.295 1311.38C196.823 1312.34 197.087 1313.44 197.087 1314.69L197.063 1315.22ZM190.967 1309.74C189.751 1309.74 188.727 1310.14 187.895 1310.92C187.079 1311.69 186.615 1312.7 186.503 1313.94H195.455C195.343 1312.7 194.871 1311.69 194.039 1310.92C193.223 1310.14 192.199 1309.74 190.967 1309.74ZM217.733 1316.51H208.373L206.357 1321H204.509L212.189 1304.2H213.941L221.621 1321H219.749L217.733 1316.51ZM217.085 1315.07L213.053 1306.05L209.021 1315.07H217.085ZM225.672 1310.85C226.072 1310 226.664 1309.36 227.448 1308.93C228.248 1308.5 229.232 1308.28 230.4 1308.28V1309.94L229.992 1309.91C228.664 1309.91 227.624 1310.32 226.872 1311.14C226.12 1311.95 225.744 1313.1 225.744 1314.57V1321H224.04V1308.38H225.672V1310.85ZM240.672 1320.23C240.352 1320.52 239.952 1320.74 239.472 1320.9C239.008 1321.05 238.52 1321.12 238.008 1321.12C236.824 1321.12 235.912 1320.8 235.272 1320.16C234.632 1319.52 234.312 1318.62 234.312 1317.45V1309.82H232.056V1308.38H234.312V1305.62H236.016V1308.38H239.856V1309.82H236.016V1317.35C236.016 1318.1 236.2 1318.68 236.568 1319.08C236.952 1319.46 237.496 1319.66 238.2 1319.66C238.552 1319.66 238.888 1319.6 239.208 1319.49C239.544 1319.38 239.832 1319.22 240.072 1319.01L240.672 1320.23ZM247.158 1321.12C246.134 1321.12 245.15 1320.98 244.206 1320.69C243.278 1320.38 242.55 1320.01 242.022 1319.56L242.79 1318.22C243.318 1318.63 243.982 1318.98 244.782 1319.25C245.582 1319.5 246.414 1319.63 247.278 1319.63C248.43 1319.63 249.278 1319.46 249.822 1319.1C250.382 1318.74 250.662 1318.22 250.662 1317.57C250.662 1317.1 250.51 1316.74 250.206 1316.49C249.902 1316.22 249.518 1316.02 249.054 1315.89C248.59 1315.74 247.974 1315.61 247.206 1315.48C246.182 1315.29 245.358 1315.1 244.734 1314.9C244.11 1314.7 243.574 1314.35 243.126 1313.87C242.694 1313.39 242.478 1312.73 242.478 1311.88C242.478 1310.82 242.918 1309.96 243.798 1309.29C244.678 1308.62 245.902 1308.28 247.47 1308.28C248.286 1308.28 249.102 1308.39 249.918 1308.62C250.734 1308.82 251.406 1309.1 251.934 1309.46L251.19 1310.82C250.15 1310.1 248.91 1309.74 247.47 1309.74C246.382 1309.74 245.558 1309.94 244.998 1310.32C244.454 1310.7 244.182 1311.21 244.182 1311.83C244.182 1312.31 244.334 1312.7 244.638 1312.98C244.958 1313.27 245.35 1313.49 245.814 1313.63C246.278 1313.76 246.918 1313.9 247.734 1314.04C248.742 1314.23 249.55 1314.42 250.158 1314.62C250.766 1314.81 251.286 1315.14 251.718 1315.6C252.15 1316.06 252.366 1316.7 252.366 1317.52C252.366 1318.62 251.902 1319.5 250.974 1320.16C250.062 1320.8 248.79 1321.12 247.158 1321.12ZM130.893 1355.46V1357H119.013V1340.2H130.533V1341.74H120.789V1347.71H129.477V1349.22H120.789V1355.46H130.893ZM146.041 1339.19V1357H144.409V1354.5C143.897 1355.35 143.217 1356 142.369 1356.45C141.537 1356.9 140.593 1357.12 139.537 1357.12C138.353 1357.12 137.281 1356.85 136.321 1356.3C135.361 1355.76 134.609 1355 134.065 1354.02C133.521 1353.05 133.249 1351.94 133.249 1350.69C133.249 1349.44 133.521 1348.33 134.065 1347.35C134.609 1346.38 135.361 1345.62 136.321 1345.1C137.281 1344.55 138.353 1344.28 139.537 1344.28C140.561 1344.28 141.481 1344.5 142.297 1344.93C143.129 1345.34 143.809 1345.96 144.337 1346.78V1339.19H146.041ZM139.681 1355.61C140.561 1355.61 141.353 1355.41 142.057 1355.01C142.777 1354.59 143.337 1354.01 143.737 1353.26C144.153 1352.5 144.361 1351.65 144.361 1350.69C144.361 1349.73 144.153 1348.87 143.737 1348.12C143.337 1347.37 142.777 1346.79 142.057 1346.39C141.353 1345.98 140.561 1345.77 139.681 1345.77C138.785 1345.77 137.977 1345.98 137.257 1346.39C136.553 1346.79 135.993 1347.37 135.577 1348.12C135.177 1348.87 134.977 1349.73 134.977 1350.69C134.977 1351.65 135.177 1352.5 135.577 1353.26C135.993 1354.01 136.553 1354.59 137.257 1355.01C137.977 1355.41 138.785 1355.61 139.681 1355.61ZM162.162 1344.38V1357H160.53V1354.7C160.082 1355.46 159.466 1356.06 158.682 1356.5C157.898 1356.91 157.002 1357.12 155.994 1357.12C154.346 1357.12 153.042 1356.66 152.082 1355.75C151.138 1354.82 150.666 1353.47 150.666 1351.7V1344.38H152.37V1351.53C152.37 1352.86 152.698 1353.86 153.354 1354.55C154.01 1355.24 154.946 1355.58 156.162 1355.58C157.49 1355.58 158.538 1355.18 159.306 1354.38C160.074 1353.57 160.458 1352.44 160.458 1351V1344.38H162.162ZM172.167 1357.12C170.919 1357.12 169.799 1356.85 168.807 1356.3C167.831 1355.76 167.063 1355 166.503 1354.02C165.943 1353.03 165.663 1351.92 165.663 1350.69C165.663 1349.46 165.943 1348.35 166.503 1347.38C167.063 1346.4 167.831 1345.64 168.807 1345.1C169.799 1344.55 170.919 1344.28 172.167 1344.28C173.255 1344.28 174.223 1344.5 175.071 1344.93C175.935 1345.34 176.615 1345.96 177.111 1346.78L175.839 1347.64C175.423 1347.02 174.895 1346.55 174.255 1346.25C173.615 1345.93 172.919 1345.77 172.167 1345.77C171.255 1345.77 170.431 1345.98 169.695 1346.39C168.975 1346.79 168.407 1347.37 167.991 1348.12C167.591 1348.87 167.391 1349.73 167.391 1350.69C167.391 1351.66 167.591 1352.53 167.991 1353.28C168.407 1354.02 168.975 1354.59 169.695 1355.01C170.431 1355.41 171.255 1355.61 172.167 1355.61C172.919 1355.61 173.615 1355.46 174.255 1355.15C174.895 1354.85 175.423 1354.38 175.839 1353.76L177.111 1354.62C176.615 1355.44 175.935 1356.06 175.071 1356.5C174.207 1356.91 173.239 1357.12 172.167 1357.12ZM184.874 1344.28C186.522 1344.28 187.786 1344.7 188.666 1345.53C189.546 1346.34 189.986 1347.56 189.986 1349.18V1357H188.354V1355.03C187.97 1355.69 187.402 1356.2 186.65 1356.57C185.914 1356.94 185.034 1357.12 184.01 1357.12C182.602 1357.12 181.482 1356.78 180.65 1356.11C179.818 1355.44 179.402 1354.55 179.402 1353.45C179.402 1352.38 179.786 1351.51 180.554 1350.86C181.338 1350.2 182.578 1349.87 184.274 1349.87H188.282V1349.1C188.282 1348.02 187.978 1347.19 187.37 1346.63C186.762 1346.06 185.874 1345.77 184.706 1345.77C183.906 1345.77 183.138 1345.9 182.402 1346.18C181.666 1346.43 181.034 1346.79 180.506 1347.26L179.738 1345.98C180.378 1345.44 181.146 1345.02 182.042 1344.74C182.938 1344.43 183.882 1344.28 184.874 1344.28ZM184.274 1355.78C185.234 1355.78 186.058 1355.56 186.746 1355.13C187.434 1354.68 187.946 1354.04 188.282 1353.21V1351.14H184.322C182.162 1351.14 181.082 1351.9 181.082 1353.4C181.082 1354.14 181.362 1354.72 181.922 1355.15C182.482 1355.57 183.266 1355.78 184.274 1355.78ZM201.262 1356.23C200.942 1356.52 200.542 1356.74 200.062 1356.9C199.598 1357.05 199.11 1357.12 198.598 1357.12C197.414 1357.12 196.502 1356.8 195.862 1356.16C195.222 1355.52 194.902 1354.62 194.902 1353.45V1345.82H192.646V1344.38H194.902V1341.62H196.606V1344.38H200.446V1345.82H196.606V1353.35C196.606 1354.1 196.79 1354.68 197.158 1355.08C197.542 1355.46 198.086 1355.66 198.79 1355.66C199.142 1355.66 199.478 1355.6 199.798 1355.49C200.134 1355.38 200.422 1355.22 200.662 1355.01L201.262 1356.23ZM204.364 1344.38H206.068V1357H204.364V1344.38ZM205.228 1341.62C204.876 1341.62 204.58 1341.5 204.34 1341.26C204.1 1341.02 203.98 1340.73 203.98 1340.39C203.98 1340.07 204.1 1339.79 204.34 1339.55C204.58 1339.31 204.876 1339.19 205.228 1339.19C205.58 1339.19 205.876 1339.31 206.116 1339.55C206.356 1339.78 206.476 1340.05 206.476 1340.37C206.476 1340.72 206.356 1341.02 206.116 1341.26C205.876 1341.5 205.58 1341.62 205.228 1341.62ZM215.97 1357.12C214.754 1357.12 213.658 1356.85 212.682 1356.3C211.706 1355.74 210.938 1354.98 210.378 1354C209.818 1353.02 209.538 1351.92 209.538 1350.69C209.538 1349.46 209.818 1348.35 210.378 1347.38C210.938 1346.4 211.706 1345.64 212.682 1345.1C213.658 1344.55 214.754 1344.28 215.97 1344.28C217.186 1344.28 218.282 1344.55 219.258 1345.1C220.234 1345.64 220.994 1346.4 221.538 1347.38C222.098 1348.35 222.378 1349.46 222.378 1350.69C222.378 1351.92 222.098 1353.02 221.538 1354C220.994 1354.98 220.234 1355.74 219.258 1356.3C218.282 1356.85 217.186 1357.12 215.97 1357.12ZM215.97 1355.61C216.866 1355.61 217.666 1355.41 218.37 1355.01C219.09 1354.59 219.65 1354.01 220.05 1353.26C220.45 1352.5 220.65 1351.65 220.65 1350.69C220.65 1349.73 220.45 1348.87 220.05 1348.12C219.65 1347.37 219.09 1346.79 218.37 1346.39C217.666 1345.98 216.866 1345.77 215.97 1345.77C215.074 1345.77 214.266 1345.98 213.546 1346.39C212.842 1346.79 212.282 1347.37 211.866 1348.12C211.466 1348.87 211.266 1349.73 211.266 1350.69C211.266 1351.65 211.466 1352.5 211.866 1353.26C212.282 1354.01 212.842 1354.59 213.546 1355.01C214.266 1355.41 215.074 1355.61 215.97 1355.61ZM232.288 1344.28C233.872 1344.28 235.128 1344.74 236.056 1345.67C237 1346.58 237.472 1347.92 237.472 1349.68V1357H235.768V1349.85C235.768 1348.54 235.44 1347.54 234.784 1346.85C234.128 1346.16 233.192 1345.82 231.976 1345.82C230.616 1345.82 229.536 1346.22 228.736 1347.04C227.952 1347.84 227.56 1348.95 227.56 1350.38V1357H225.856V1344.38H227.488V1346.7C227.952 1345.94 228.592 1345.34 229.408 1344.93C230.24 1344.5 231.2 1344.28 232.288 1344.28Z" fill="#F2F2F2"/>
</g>
<defs>
<filter id="filter0_di" x="-0.381104" y="20.8379" width="356.762" height="314.324" filterUnits="userSpaceOnUse" color-interpolation-filters="sRGB">
<feFlood flood-opacity="0" result="BackgroundImageFix"/>
<feColorMatrix in="SourceAlpha" type="matrix" values="0 0 0 0 0 0 0 0 0 0 0 0 0 0 0 0 0 0 127 0"/>
<feOffset/>
<feGaussianBlur stdDeviation="8"/>
<feColorMatrix type="matrix" values="0 0 0 0 0 0 0 0 0 0 0 0 0 0 0 0 0 0 1 0"/>
<feBlend mode="normal" in2="BackgroundImageFix" result="effect1_dropShadow"/>
<feBlend mode="normal" in="SourceGraphic" in2="effect1_dropShadow" result="shape"/>
<feColorMatrix in="SourceAlpha" type="matrix" values="0 0 0 0 0 0 0 0 0 0 0 0 0 0 0 0 0 0 127 0" result="hardAlpha"/>
<feOffset dx="1" dy="1"/>
<feComposite in2="hardAlpha" operator="arithmetic" k2="-1" k3="1"/>
<feColorMatrix type="matrix" values="0 0 0 0 0.2 0 0 0 0 0.2 0 0 0 0 0.2 0 0 0 1 0"/>
<feBlend mode="normal" in2="shape" result="effect2_innerShadow"/>
</filter>
<filter id="filter1_di" x="-0.381104" y="376.838" width="356.762" height="314.324" filterUnits="userSpaceOnUse" color-interpolation-filters="sRGB">
<feFlood flood-opacity="0" result="BackgroundImageFix"/>
<feColorMatrix in="SourceAlpha" type="matrix" values="0 0 0 0 0 0 0 0 0 0 0 0 0 0 0 0 0 0 127 0"/>
<feOffset/>
<feGaussianBlur stdDeviation="8"/>
<feColorMatrix type="matrix" values="0 0 0 0 0 0 0 0 0 0 0 0 0 0 0 0 0 0 1 0"/>
<feBlend mode="normal" in2="BackgroundImageFix" result="effect1_dropShadow"/>
<feBlend mode="normal" in="SourceGraphic" in2="effect1_dropShadow" result="shape"/>
<feColorMatrix in="SourceAlpha" type="matrix" values="0 0 0 0 0 0 0 0 0 0 0 0 0 0 0 0 0 0 127 0" result="hardAlpha"/>
<feOffset dx="1" dy="1"/>
<feComposite in2="hardAlpha" operator="arithmetic" k2="-1" k3="1"/>
<feColorMatrix type="matrix" values="0 0 0 0 0.2 0 0 0 0 0.2 0 0 0 0 0.2 0 0 0 1 0"/>
<feBlend mode="normal" in2="shape" result="effect2_innerShadow"/>
</filter>
<filter id="filter2_di" x="-0.381104" y="732.838" width="356.762" height="314.324" filterUnits="userSpaceOnUse" color-interpolation-filters="sRGB">
<feFlood flood-opacity="0" result="BackgroundImageFix"/>
<feColorMatrix in="SourceAlpha" type="matrix" values="0 0 0 0 0 0 0 0 0 0 0 0 0 0 0 0 0 0 127 0"/>
<feOffset/>
<feGaussianBlur stdDeviation="8"/>
<feColorMatrix type="matrix" values="0 0 0 0 0 0 0 0 0 0 0 0 0 0 0 0 0 0 1 0"/>
<feBlend mode="normal" in2="BackgroundImageFix" result="effect1_dropShadow"/>
<feBlend mode="normal" in="SourceGraphic" in2="effect1_dropShadow" result="shape"/>
<feColorMatrix in="SourceAlpha" type="matrix" values="0 0 0 0 0 0 0 0 0 0 0 0 0 0 0 0 0 0 127 0" result="hardAlpha"/>
<feOffset dx="1" dy="1"/>
<feComposite in2="hardAlpha" operator="arithmetic" k2="-1" k3="1"/>
<feColorMatrix type="matrix" values="0 0 0 0 0.2 0 0 0 0 0.2 0 0 0 0 0.2 0 0 0 1 0"/>
<feBlend mode="normal" in2="shape" result="effect2_innerShadow"/>
</filter>
<filter id="filter3_di" x="-0.381104" y="1088.84" width="356.762" height="314.324" filterUnits="userSpaceOnUse" color-interpolation-filters="sRGB">
<feFlood flood-opacity="0" result="BackgroundImageFix"/>
<feColorMatrix in="SourceAlpha" type="matrix" values="0 0 0 0 0 0 0 0 0 0 0 0 0 0 0 0 0 0 127 0"/>
<feOffset/>
<feGaussianBlur stdDeviation="8"/>
<feColorMatrix type="matrix" values="0 0 0 0 0 0 0 0 0 0 0 0 0 0 0 0 0 0 1 0"/>
<feBlend mode="normal" in2="BackgroundImageFix" result="effect1_dropShadow"/>
<feBlend mode="normal" in="SourceGraphic" in2="effect1_dropShadow" result="shape"/>
<feColorMatrix in="SourceAlpha" type="matrix" values="0 0 0 0 0 0 0 0 0 0 0 0 0 0 0 0 0 0 127 0" result="hardAlpha"/>
<feOffset dx="1" dy="1"/>
<feComposite in2="hardAlpha" operator="arithmetic" k2="-1" k3="1"/>
<feColorMatrix type="matrix" values="0 0 0 0 0.2 0 0 0 0 0.2 0 0 0 0 0.2 0 0 0 1 0"/>
<feBlend mode="normal" in2="shape" result="effect2_innerShadow"/>
</filter>
<clipPath id="clip0">
<rect width="356" height="356" fill="white"/>
</clipPath>
<clipPath id="clip1">
<rect width="356" height="356" fill="white" transform="translate(0 356)"/>
</clipPath>
<clipPath id="clip2">
<rect width="356" height="356" fill="white" transform="translate(0 712)"/>
</clipPath>
<clipPath id="clip3">
<rect width="356" height="356" fill="white" transform="translate(0 1068)"/>
</clipPath>
</defs>
</svg>
