<svg width="1154" height="523" viewBox="0 0 1154 523" fill="none" xmlns="http://www.w3.org/2000/svg">
<path d="M593.708 122.619L500.917 123.366L453.874 203.352" stroke="#ADCA00" stroke-width="24" stroke-linecap="round" stroke-linejoin="round"/>
<path d="M175.874 316L222.917 395.986L315.708 396.733" stroke="#FF9900" stroke-width="24" stroke-linecap="round" stroke-linejoin="round"/>
<path d="M709.874 316L756.917 395.986L849.708 396.733" stroke="#30A8A2" stroke-width="24" stroke-linecap="round" stroke-linejoin="round"/>
<g clip-path="url(#clip0)">
<g filter="url(#filter0_di)">
<path d="M339.845 176C340.56 177.238 340.56 178.762 339.845 180L260.655 317.162C259.94 318.4 258.62 319.162 257.191 319.162L98.8094 319.162C97.3803 319.162 96.0598 318.4 95.3453 317.162L16.1547 180C15.4402 178.762 15.4402 177.238 16.1547 176L95.3453 38.8379C96.0598 37.6003 97.3803 36.8378 98.8094 36.8378L257.191 36.8379C258.62 36.8379 259.94 37.6003 260.655 38.8379L339.845 176Z" fill="#171717"/>
</g>
<path fill-rule="evenodd" clip-rule="evenodd" d="M195 114H161.75C159.75 114 158 115.75 158 117.75V140.75C158 142.75 159.75 144.5 161.75 144.5H167.25V152.75C167.25 153.25 167.5 154 168.25 154.25H168.75C169.25 154.25 169.5 154 169.75 153.75L179 144.5H195C197 144.5 198.75 142.75 198.75 140.75V117.75C198.5 115.75 197 114 195 114ZM195.5 140.75C195.5 141.25 195.25 141.5 194.75 141.5H178.25C177.75 141.5 177.5 141.75 177.25 142L170 149V143C170 142.25 169.25 141.5 168.5 141.5H161.75C161.25 141.5 161 141.25 161 140.75V117.75C161 117.25 161.25 117 161.75 117H195C195.25 117 195.5 117.25 195.5 117.75V140.75ZM175.426 120.5C175.367 120.56 175.25 120.633 175.101 120.728C174.623 121.031 173.807 121.548 173.426 122.5C172.926 123.25 173.426 124 174.176 124.5C175.141 124.821 175.5 124.401 175.898 123.935C176.112 123.684 176.338 123.419 176.676 123.25C177.426 122.75 179.84 122.394 180.426 123.75C180.697 124.377 180.654 124.856 180.426 125.5C180.042 126.588 179.088 126.872 178.238 127.124C177.407 127.371 176.676 127.588 176.676 128.5V130.25V131.75C176.676 132.5 177.426 133.25 178.176 133.25C178.926 133.25 179.676 132.5 179.676 131.75V130.5V129.75C180.926 129.25 182.676 128.25 183.176 126.25C183.426 125.75 183.926 123.75 182.926 122C181.426 119.25 177.426 119.5 175.426 120.5ZM176.676 137.25C176.676 136.25 177.426 135.75 178.176 135.75C178.926 135.75 179.676 136.5 179.676 137.25C179.676 138 178.926 138.75 178.176 138.75C177.426 138.75 176.676 138.25 176.676 137.25Z" fill="#828282"/>
<path d="M107.497 217.144C106.249 217.144 105.049 216.944 103.897 216.544C102.761 216.144 101.881 215.616 101.257 214.96L101.953 213.592C102.561 214.2 103.369 214.696 104.377 215.08C105.385 215.448 106.425 215.632 107.497 215.632C109.001 215.632 110.129 215.36 110.881 214.816C111.633 214.256 112.009 213.536 112.009 212.656C112.009 211.984 111.801 211.448 111.385 211.048C110.985 210.648 110.489 210.344 109.897 210.136C109.305 209.912 108.481 209.672 107.425 209.416C106.161 209.096 105.153 208.792 104.401 208.504C103.649 208.2 103.001 207.744 102.457 207.136C101.929 206.528 101.665 205.704 101.665 204.664C101.665 203.816 101.889 203.048 102.337 202.36C102.785 201.656 103.473 201.096 104.401 200.68C105.329 200.264 106.481 200.056 107.857 200.056C108.817 200.056 109.753 200.192 110.665 200.464C111.593 200.72 112.393 201.08 113.065 201.544L112.465 202.96C111.761 202.496 111.009 202.152 110.209 201.928C109.409 201.688 108.625 201.568 107.857 201.568C106.385 201.568 105.273 201.856 104.521 202.432C103.785 202.992 103.417 203.72 103.417 204.616C103.417 205.288 103.617 205.832 104.017 206.248C104.433 206.648 104.945 206.96 105.553 207.184C106.177 207.392 107.009 207.624 108.049 207.88C109.281 208.184 110.273 208.488 111.025 208.792C111.793 209.08 112.441 209.528 112.969 210.136C113.497 210.728 113.761 211.536 113.761 212.56C113.761 213.408 113.529 214.184 113.065 214.888C112.617 215.576 111.921 216.128 110.977 216.544C110.033 216.944 108.873 217.144 107.497 217.144ZM123.919 216.232C123.599 216.52 123.199 216.744 122.719 216.904C122.255 217.048 121.767 217.12 121.255 217.12C120.071 217.12 119.159 216.8 118.519 216.16C117.879 215.52 117.559 214.616 117.559 213.448V205.816H115.303V204.376H117.559V201.616H119.263V204.376H123.103V205.816H119.263V213.352C119.263 214.104 119.447 214.68 119.815 215.08C120.199 215.464 120.743 215.656 121.447 215.656C121.799 215.656 122.135 215.6 122.455 215.488C122.791 215.376 123.079 215.216 123.319 215.008L123.919 216.232ZM138.397 204.376V217H136.765V214.696C136.317 215.464 135.701 216.064 134.917 216.496C134.133 216.912 133.237 217.12 132.229 217.12C130.581 217.12 129.277 216.664 128.317 215.752C127.373 214.824 126.901 213.472 126.901 211.696V204.376H128.605V211.528C128.605 212.856 128.933 213.864 129.589 214.552C130.245 215.24 131.181 215.584 132.397 215.584C133.725 215.584 134.773 215.184 135.541 214.384C136.309 213.568 136.693 212.44 136.693 211V204.376H138.397ZM154.689 199.192V217H153.057V214.504C152.545 215.352 151.865 216 151.017 216.448C150.185 216.896 149.241 217.12 148.185 217.12C147.001 217.12 145.929 216.848 144.969 216.304C144.009 215.76 143.257 215 142.713 214.024C142.169 213.048 141.897 211.936 141.897 210.688C141.897 209.44 142.169 208.328 142.713 207.352C143.257 206.376 144.009 205.624 144.969 205.096C145.929 204.552 147.001 204.28 148.185 204.28C149.209 204.28 150.129 204.496 150.945 204.928C151.777 205.344 152.457 205.96 152.985 206.776V199.192H154.689ZM148.329 215.608C149.209 215.608 150.001 215.408 150.705 215.008C151.425 214.592 151.985 214.008 152.385 213.256C152.801 212.504 153.009 211.648 153.009 210.688C153.009 209.728 152.801 208.872 152.385 208.12C151.985 207.368 151.425 206.792 150.705 206.392C150.001 205.976 149.209 205.768 148.329 205.768C147.433 205.768 146.625 205.976 145.905 206.392C145.201 206.792 144.641 207.368 144.225 208.12C143.825 208.872 143.625 209.728 143.625 210.688C143.625 211.648 143.825 212.504 144.225 213.256C144.641 214.008 145.201 214.592 145.905 215.008C146.625 215.408 147.433 215.608 148.329 215.608ZM170.427 211.216H159.867C159.963 212.528 160.467 213.592 161.379 214.408C162.291 215.208 163.443 215.608 164.835 215.608C165.619 215.608 166.339 215.472 166.995 215.2C167.651 214.912 168.219 214.496 168.699 213.952L169.659 215.056C169.099 215.728 168.395 216.24 167.547 216.592C166.715 216.944 165.795 217.12 164.787 217.12C163.491 217.12 162.339 216.848 161.331 216.304C160.339 215.744 159.563 214.976 159.003 214C158.443 213.024 158.163 211.92 158.163 210.688C158.163 209.456 158.427 208.352 158.955 207.376C159.499 206.4 160.235 205.64 161.163 205.096C162.107 204.552 163.163 204.28 164.331 204.28C165.499 204.28 166.547 204.552 167.475 205.096C168.403 205.64 169.131 206.4 169.659 207.376C170.187 208.336 170.451 209.44 170.451 210.688L170.427 211.216ZM164.331 205.744C163.115 205.744 162.091 206.136 161.259 206.92C160.443 207.688 159.979 208.696 159.867 209.944H168.819C168.707 208.696 168.235 207.688 167.403 206.92C166.587 206.136 165.563 205.744 164.331 205.744ZM180.351 204.28C181.935 204.28 183.191 204.744 184.119 205.672C185.063 206.584 185.535 207.92 185.535 209.68V217H183.831V209.848C183.831 208.536 183.503 207.536 182.847 206.848C182.191 206.16 181.255 205.816 180.039 205.816C178.679 205.816 177.599 206.224 176.799 207.04C176.015 207.84 175.623 208.952 175.623 210.376V217H173.919V204.376H175.551V206.704C176.015 205.936 176.655 205.344 177.471 204.928C178.303 204.496 179.263 204.28 180.351 204.28ZM196.809 216.232C196.489 216.52 196.089 216.744 195.609 216.904C195.145 217.048 194.657 217.12 194.145 217.12C192.961 217.12 192.049 216.8 191.409 216.16C190.769 215.52 190.449 214.616 190.449 213.448V205.816H188.193V204.376H190.449V201.616H192.153V204.376H195.993V205.816H192.153V213.352C192.153 214.104 192.337 214.68 192.705 215.08C193.089 215.464 193.633 215.656 194.337 215.656C194.689 215.656 195.025 215.6 195.345 215.488C195.681 215.376 195.969 215.216 196.209 215.008L196.809 216.232ZM203.295 217.12C202.271 217.12 201.287 216.976 200.343 216.688C199.415 216.384 198.687 216.008 198.159 215.56L198.927 214.216C199.455 214.632 200.119 214.976 200.919 215.248C201.719 215.504 202.551 215.632 203.415 215.632C204.567 215.632 205.415 215.456 205.959 215.104C206.519 214.736 206.799 214.224 206.799 213.568C206.799 213.104 206.647 212.744 206.343 212.488C206.039 212.216 205.655 212.016 205.191 211.888C204.727 211.744 204.111 211.608 203.343 211.48C202.319 211.288 201.495 211.096 200.871 210.904C200.247 210.696 199.711 210.352 199.263 209.872C198.831 209.392 198.615 208.728 198.615 207.88C198.615 206.824 199.055 205.96 199.935 205.288C200.815 204.616 202.039 204.28 203.607 204.28C204.423 204.28 205.239 204.392 206.055 204.616C206.871 204.824 207.543 205.104 208.071 205.456L207.327 206.824C206.287 206.104 205.047 205.744 203.607 205.744C202.519 205.744 201.695 205.936 201.135 206.32C200.591 206.704 200.319 207.208 200.319 207.832C200.319 208.312 200.471 208.696 200.775 208.984C201.095 209.272 201.487 209.488 201.951 209.632C202.415 209.76 203.055 209.896 203.871 210.04C204.879 210.232 205.687 210.424 206.295 210.616C206.903 210.808 207.423 211.136 207.855 211.6C208.287 212.064 208.503 212.704 208.503 213.52C208.503 214.624 208.039 215.504 207.111 216.16C206.199 216.8 204.927 217.12 203.295 217.12ZM222.351 204.28C223.999 204.28 225.263 204.696 226.143 205.528C227.023 206.344 227.463 207.56 227.463 209.176V217H225.831V215.032C225.447 215.688 224.879 216.2 224.127 216.568C223.391 216.936 222.511 217.12 221.487 217.12C220.079 217.12 218.959 216.784 218.127 216.112C217.295 215.44 216.879 214.552 216.879 213.448C216.879 212.376 217.263 211.512 218.031 210.856C218.815 210.2 220.055 209.872 221.751 209.872H225.759V209.104C225.759 208.016 225.455 207.192 224.847 206.632C224.239 206.056 223.351 205.768 222.183 205.768C221.383 205.768 220.615 205.904 219.879 206.176C219.143 206.432 218.511 206.792 217.983 207.256L217.215 205.984C217.855 205.44 218.623 205.024 219.519 204.736C220.415 204.432 221.359 204.28 222.351 204.28ZM221.751 215.776C222.711 215.776 223.535 215.56 224.223 215.128C224.911 214.68 225.423 214.04 225.759 213.208V211.144H221.799C219.639 211.144 218.559 211.896 218.559 213.4C218.559 214.136 218.839 214.72 219.399 215.152C219.959 215.568 220.743 215.776 221.751 215.776ZM235.475 217.12C234.451 217.12 233.467 216.976 232.523 216.688C231.595 216.384 230.867 216.008 230.339 215.56L231.107 214.216C231.635 214.632 232.299 214.976 233.099 215.248C233.899 215.504 234.731 215.632 235.595 215.632C236.747 215.632 237.595 215.456 238.139 215.104C238.699 214.736 238.979 214.224 238.979 213.568C238.979 213.104 238.827 212.744 238.523 212.488C238.219 212.216 237.835 212.016 237.371 211.888C236.907 211.744 236.291 211.608 235.523 211.48C234.499 211.288 233.675 211.096 233.051 210.904C232.427 210.696 231.891 210.352 231.443 209.872C231.011 209.392 230.795 208.728 230.795 207.88C230.795 206.824 231.235 205.96 232.115 205.288C232.995 204.616 234.219 204.28 235.787 204.28C236.603 204.28 237.419 204.392 238.235 204.616C239.051 204.824 239.723 205.104 240.251 205.456L239.507 206.824C238.467 206.104 237.227 205.744 235.787 205.744C234.699 205.744 233.875 205.936 233.315 206.32C232.771 206.704 232.499 207.208 232.499 207.832C232.499 208.312 232.651 208.696 232.955 208.984C233.275 209.272 233.667 209.488 234.131 209.632C234.595 209.76 235.235 209.896 236.051 210.04C237.059 210.232 237.867 210.424 238.475 210.616C239.083 210.808 239.603 211.136 240.035 211.6C240.467 212.064 240.683 212.704 240.683 213.52C240.683 214.624 240.219 215.504 239.291 216.16C238.379 216.8 237.107 217.12 235.475 217.12ZM248.513 210.664L245.537 213.4V217H243.833V199.192H245.537V211.264L253.073 204.376H255.185L249.785 209.536L255.689 217H253.601L248.513 210.664ZM132.962 240.376V257.656H131.258V250.624C130.73 251.44 130.05 252.064 129.218 252.496C128.402 252.912 127.482 253.12 126.458 253.12C125.258 253.12 124.178 252.856 123.218 252.328C122.274 251.784 121.53 251.024 120.986 250.048C120.442 249.072 120.17 247.952 120.17 246.688C120.17 245.44 120.442 244.328 120.986 243.352C121.53 242.376 122.282 241.624 123.242 241.096C124.202 240.552 125.274 240.28 126.458 240.28C127.514 240.28 128.458 240.504 129.29 240.952C130.138 241.4 130.818 242.04 131.33 242.872V240.376H132.962ZM126.602 251.608C127.482 251.608 128.274 251.408 128.978 251.008C129.698 250.592 130.258 250.008 130.658 249.256C131.074 248.504 131.282 247.648 131.282 246.688C131.282 245.728 131.074 244.88 130.658 244.144C130.258 243.392 129.698 242.808 128.978 242.392C128.274 241.976 127.482 241.768 126.602 241.768C125.706 241.768 124.898 241.976 124.178 242.392C123.474 242.808 122.914 243.392 122.498 244.144C122.098 244.88 121.898 245.728 121.898 246.688C121.898 247.648 122.098 248.504 122.498 249.256C122.914 250.008 123.474 250.592 124.178 251.008C124.898 251.408 125.706 251.608 126.602 251.608ZM149.084 240.376V253H147.452V250.696C147.004 251.464 146.388 252.064 145.604 252.496C144.82 252.912 143.924 253.12 142.916 253.12C141.268 253.12 139.964 252.664 139.004 251.752C138.06 250.824 137.588 249.472 137.588 247.696V240.376H139.292V247.528C139.292 248.856 139.62 249.864 140.276 250.552C140.932 251.24 141.868 251.584 143.084 251.584C144.412 251.584 145.46 251.184 146.228 250.384C146.996 249.568 147.38 248.44 147.38 247V240.376H149.084ZM164.848 247.216H154.288C154.384 248.528 154.888 249.592 155.8 250.408C156.712 251.208 157.864 251.608 159.256 251.608C160.04 251.608 160.76 251.472 161.416 251.2C162.072 250.912 162.64 250.496 163.12 249.952L164.08 251.056C163.52 251.728 162.816 252.24 161.968 252.592C161.136 252.944 160.216 253.12 159.208 253.12C157.912 253.12 156.76 252.848 155.752 252.304C154.76 251.744 153.984 250.976 153.424 250C152.864 249.024 152.584 247.92 152.584 246.688C152.584 245.456 152.848 244.352 153.376 243.376C153.92 242.4 154.656 241.64 155.584 241.096C156.528 240.552 157.584 240.28 158.752 240.28C159.92 240.28 160.968 240.552 161.896 241.096C162.824 241.64 163.552 242.4 164.08 243.376C164.608 244.336 164.872 245.44 164.872 246.688L164.848 247.216ZM158.752 241.744C157.536 241.744 156.512 242.136 155.68 242.92C154.864 243.688 154.4 244.696 154.288 245.944H163.24C163.128 244.696 162.656 243.688 161.824 242.92C161.008 242.136 159.984 241.744 158.752 241.744ZM171.725 253.12C170.701 253.12 169.717 252.976 168.773 252.688C167.845 252.384 167.117 252.008 166.589 251.56L167.357 250.216C167.885 250.632 168.549 250.976 169.349 251.248C170.149 251.504 170.981 251.632 171.845 251.632C172.997 251.632 173.845 251.456 174.389 251.104C174.949 250.736 175.229 250.224 175.229 249.568C175.229 249.104 175.077 248.744 174.773 248.488C174.469 248.216 174.085 248.016 173.621 247.888C173.157 247.744 172.541 247.608 171.773 247.48C170.749 247.288 169.925 247.096 169.301 246.904C168.677 246.696 168.141 246.352 167.693 245.872C167.261 245.392 167.045 244.728 167.045 243.88C167.045 242.824 167.485 241.96 168.365 241.288C169.245 240.616 170.469 240.28 172.037 240.28C172.853 240.28 173.669 240.392 174.485 240.616C175.301 240.824 175.973 241.104 176.501 241.456L175.757 242.824C174.717 242.104 173.477 241.744 172.037 241.744C170.949 241.744 170.125 241.936 169.565 242.32C169.021 242.704 168.749 243.208 168.749 243.832C168.749 244.312 168.901 244.696 169.205 244.984C169.525 245.272 169.917 245.488 170.381 245.632C170.845 245.76 171.485 245.896 172.301 246.04C173.309 246.232 174.117 246.424 174.725 246.616C175.333 246.808 175.853 247.136 176.285 247.6C176.717 248.064 176.933 248.704 176.933 249.52C176.933 250.624 176.469 251.504 175.541 252.16C174.629 252.8 173.357 253.12 171.725 253.12ZM186.731 252.232C186.411 252.52 186.011 252.744 185.531 252.904C185.067 253.048 184.579 253.12 184.067 253.12C182.883 253.12 181.971 252.8 181.331 252.16C180.691 251.52 180.371 250.616 180.371 249.448V241.816H178.115V240.376H180.371V237.616H182.075V240.376H185.915V241.816H182.075V249.352C182.075 250.104 182.259 250.68 182.627 251.08C183.011 251.464 183.555 251.656 184.259 251.656C184.611 251.656 184.947 251.6 185.267 251.488C185.603 251.376 185.891 251.216 186.131 251.008L186.731 252.232ZM189.833 240.376H191.537V253H189.833V240.376ZM190.697 237.616C190.345 237.616 190.049 237.496 189.809 237.256C189.569 237.016 189.449 236.728 189.449 236.392C189.449 236.072 189.569 235.792 189.809 235.552C190.049 235.312 190.345 235.192 190.697 235.192C191.049 235.192 191.345 235.312 191.585 235.552C191.825 235.776 191.945 236.048 191.945 236.368C191.945 236.72 191.825 237.016 191.585 237.256C191.345 237.496 191.049 237.616 190.697 237.616ZM201.438 253.12C200.222 253.12 199.126 252.848 198.15 252.304C197.174 251.744 196.406 250.976 195.846 250C195.286 249.024 195.006 247.92 195.006 246.688C195.006 245.456 195.286 244.352 195.846 243.376C196.406 242.4 197.174 241.64 198.15 241.096C199.126 240.552 200.222 240.28 201.438 240.28C202.654 240.28 203.75 240.552 204.726 241.096C205.702 241.64 206.462 242.4 207.006 243.376C207.566 244.352 207.846 245.456 207.846 246.688C207.846 247.92 207.566 249.024 207.006 250C206.462 250.976 205.702 251.744 204.726 252.304C203.75 252.848 202.654 253.12 201.438 253.12ZM201.438 251.608C202.334 251.608 203.134 251.408 203.838 251.008C204.558 250.592 205.118 250.008 205.518 249.256C205.918 248.504 206.118 247.648 206.118 246.688C206.118 245.728 205.918 244.872 205.518 244.12C205.118 243.368 204.558 242.792 203.838 242.392C203.134 241.976 202.334 241.768 201.438 241.768C200.542 241.768 199.734 241.976 199.014 242.392C198.31 242.792 197.75 243.368 197.334 244.12C196.934 244.872 196.734 245.728 196.734 246.688C196.734 247.648 196.934 248.504 197.334 249.256C197.75 250.008 198.31 250.592 199.014 251.008C199.734 251.408 200.542 251.608 201.438 251.608ZM217.757 240.28C219.341 240.28 220.597 240.744 221.525 241.672C222.469 242.584 222.941 243.92 222.941 245.68V253H221.237V245.848C221.237 244.536 220.909 243.536 220.253 242.848C219.597 242.16 218.661 241.816 217.445 241.816C216.085 241.816 215.005 242.224 214.205 243.04C213.421 243.84 213.029 244.952 213.029 246.376V253H211.325V240.376H212.957V242.704C213.421 241.936 214.061 241.344 214.877 240.928C215.709 240.496 216.669 240.28 217.757 240.28ZM230.951 253.12C229.927 253.12 228.943 252.976 227.999 252.688C227.071 252.384 226.343 252.008 225.815 251.56L226.583 250.216C227.111 250.632 227.775 250.976 228.575 251.248C229.375 251.504 230.207 251.632 231.071 251.632C232.223 251.632 233.071 251.456 233.615 251.104C234.175 250.736 234.455 250.224 234.455 249.568C234.455 249.104 234.303 248.744 233.999 248.488C233.695 248.216 233.311 248.016 232.847 247.888C232.383 247.744 231.767 247.608 230.999 247.48C229.975 247.288 229.151 247.096 228.527 246.904C227.903 246.696 227.367 246.352 226.919 245.872C226.487 245.392 226.271 244.728 226.271 243.88C226.271 242.824 226.711 241.96 227.591 241.288C228.471 240.616 229.695 240.28 231.263 240.28C232.079 240.28 232.895 240.392 233.711 240.616C234.527 240.824 235.199 241.104 235.727 241.456L234.983 242.824C233.943 242.104 232.703 241.744 231.263 241.744C230.175 241.744 229.351 241.936 228.791 242.32C228.247 242.704 227.975 243.208 227.975 243.832C227.975 244.312 228.127 244.696 228.431 244.984C228.751 245.272 229.143 245.488 229.607 245.632C230.071 245.76 230.711 245.896 231.527 246.04C232.535 246.232 233.343 246.424 233.951 246.616C234.559 246.808 235.079 247.136 235.511 247.6C235.943 248.064 236.159 248.704 236.159 249.52C236.159 250.624 235.695 251.504 234.767 252.16C233.855 252.8 232.583 253.12 230.951 253.12Z" fill="#F2F2F2"/>
</g>
<g clip-path="url(#clip1)">
<g filter="url(#filter1_di)">
<path d="M605.845 337C606.56 338.238 606.56 339.762 605.845 341L526.655 478.162C525.94 479.4 524.62 480.162 523.191 480.162L364.809 480.162C363.38 480.162 362.06 479.4 361.345 478.162L282.155 341C281.44 339.762 281.44 338.238 282.155 337L361.345 199.838C362.06 198.6 363.38 197.838 364.809 197.838L523.191 197.838C524.62 197.838 525.94 198.6 526.655 199.838L605.845 337Z" fill="#171717"/>
</g>
<path fill-rule="evenodd" clip-rule="evenodd" d="M466.915 284.001H454.7V278.425C454.7 276.525 453.15 275 451.275 275H422.4C420.525 275 419 276.525 419 278.425V298.425C419 300.3 420.525 301.85 422.4 301.85H426.925V308.75C426.925 309.35 427.275 309.9 427.85 310.125C428.025 310.2 428.225 310.25 428.425 310.25C428.8 310.25 429.175 310.1 429.475 309.8L437.45 301.85H439.215V304.169C439.215 305.9 440.621 307.306 442.352 307.306H454.015L460.746 314.013C461.034 314.299 461.417 314.45 461.805 314.45C461.998 314.45 462.193 314.413 462.381 314.335C462.94 314.103 463.304 313.556 463.304 312.951V307.306H466.915C468.646 307.306 470.052 305.9 470.052 304.169V287.138C470.052 285.407 468.646 284.001 466.915 284.001ZM436.825 298.85C436.45 298.85 436.05 299 435.775 299.275L429.925 305.125V300.35C429.925 299.525 429.25 298.85 428.425 298.85H422.4C422.175 298.85 421.975 298.65 421.975 298.425V278.425C421.975 278.175 422.175 278 422.4 278H451.275C451.5 278 451.7 278.175 451.7 278.425V284.001H442.352C440.621 284.001 439.215 285.407 439.215 287.138V298.85H436.825ZM466.915 304.308H461.805C460.978 304.308 460.306 304.98 460.306 305.807V309.34L455.694 304.745C455.411 304.465 455.033 304.308 454.635 304.308H442.352L442.213 304.169L442.352 286.999L467.054 287.138L466.915 304.308Z" fill="#828282"/>
<path d="M387.376 361.2C389.52 361.2 391.2 361.712 392.416 362.736C393.632 363.76 394.24 365.168 394.24 366.96C394.24 368.752 393.632 370.16 392.416 371.184C391.2 372.192 389.52 372.696 387.376 372.696H382.864V378H381.088V361.2H387.376ZM387.328 371.136C388.992 371.136 390.264 370.776 391.144 370.056C392.024 369.32 392.464 368.288 392.464 366.96C392.464 365.6 392.024 364.56 391.144 363.84C390.264 363.104 388.992 362.736 387.328 362.736H382.864V371.136H387.328ZM399.024 367.848C399.424 367 400.016 366.36 400.8 365.928C401.6 365.496 402.584 365.28 403.752 365.28V366.936L403.344 366.912C402.016 366.912 400.976 367.32 400.224 368.136C399.472 368.952 399.096 370.096 399.096 371.568V378H397.392V365.376H399.024V367.848ZM411.88 378.12C410.664 378.12 409.568 377.848 408.592 377.304C407.616 376.744 406.848 375.976 406.288 375C405.728 374.024 405.448 372.92 405.448 371.688C405.448 370.456 405.728 369.352 406.288 368.376C406.848 367.4 407.616 366.64 408.592 366.096C409.568 365.552 410.664 365.28 411.88 365.28C413.096 365.28 414.192 365.552 415.168 366.096C416.144 366.64 416.904 367.4 417.448 368.376C418.008 369.352 418.288 370.456 418.288 371.688C418.288 372.92 418.008 374.024 417.448 375C416.904 375.976 416.144 376.744 415.168 377.304C414.192 377.848 413.096 378.12 411.88 378.12ZM411.88 376.608C412.776 376.608 413.576 376.408 414.28 376.008C415 375.592 415.56 375.008 415.96 374.256C416.36 373.504 416.56 372.648 416.56 371.688C416.56 370.728 416.36 369.872 415.96 369.12C415.56 368.368 415 367.792 414.28 367.392C413.576 366.976 412.776 366.768 411.88 366.768C410.984 366.768 410.176 366.976 409.456 367.392C408.752 367.792 408.192 368.368 407.776 369.12C407.376 369.872 407.176 370.728 407.176 371.688C407.176 372.648 407.376 373.504 407.776 374.256C408.192 375.008 408.752 375.592 409.456 376.008C410.176 376.408 410.984 376.608 411.88 376.608ZM425.151 378.12C424.127 378.12 423.143 377.976 422.199 377.688C421.271 377.384 420.543 377.008 420.015 376.56L420.783 375.216C421.311 375.632 421.975 375.976 422.775 376.248C423.575 376.504 424.407 376.632 425.271 376.632C426.423 376.632 427.271 376.456 427.815 376.104C428.375 375.736 428.655 375.224 428.655 374.568C428.655 374.104 428.503 373.744 428.199 373.488C427.895 373.216 427.511 373.016 427.047 372.888C426.583 372.744 425.967 372.608 425.199 372.48C424.175 372.288 423.351 372.096 422.727 371.904C422.103 371.696 421.567 371.352 421.119 370.872C420.687 370.392 420.471 369.728 420.471 368.88C420.471 367.824 420.911 366.96 421.791 366.288C422.671 365.616 423.895 365.28 425.463 365.28C426.279 365.28 427.095 365.392 427.911 365.616C428.727 365.824 429.399 366.104 429.927 366.456L429.183 367.824C428.143 367.104 426.903 366.744 425.463 366.744C424.375 366.744 423.551 366.936 422.991 367.32C422.447 367.704 422.175 368.208 422.175 368.832C422.175 369.312 422.327 369.696 422.631 369.984C422.951 370.272 423.343 370.488 423.807 370.632C424.271 370.76 424.911 370.896 425.727 371.04C426.735 371.232 427.543 371.424 428.151 371.616C428.759 371.808 429.279 372.136 429.711 372.6C430.143 373.064 430.359 373.704 430.359 374.52C430.359 375.624 429.895 376.504 428.967 377.16C428.055 377.8 426.783 378.12 425.151 378.12ZM443.174 378.12C442.15 378.12 441.166 377.976 440.222 377.688C439.294 377.384 438.566 377.008 438.038 376.56L438.806 375.216C439.334 375.632 439.998 375.976 440.798 376.248C441.598 376.504 442.43 376.632 443.294 376.632C444.446 376.632 445.294 376.456 445.838 376.104C446.398 375.736 446.678 375.224 446.678 374.568C446.678 374.104 446.526 373.744 446.222 373.488C445.918 373.216 445.534 373.016 445.07 372.888C444.606 372.744 443.99 372.608 443.222 372.48C442.198 372.288 441.374 372.096 440.75 371.904C440.126 371.696 439.59 371.352 439.142 370.872C438.71 370.392 438.494 369.728 438.494 368.88C438.494 367.824 438.934 366.96 439.814 366.288C440.694 365.616 441.918 365.28 443.486 365.28C444.302 365.28 445.118 365.392 445.934 365.616C446.75 365.824 447.422 366.104 447.95 366.456L447.206 367.824C446.166 367.104 444.926 366.744 443.486 366.744C442.398 366.744 441.574 366.936 441.014 367.32C440.47 367.704 440.198 368.208 440.198 368.832C440.198 369.312 440.35 369.696 440.654 369.984C440.974 370.272 441.366 370.488 441.83 370.632C442.294 370.76 442.934 370.896 443.75 371.04C444.758 371.232 445.566 371.424 446.174 371.616C446.782 371.808 447.302 372.136 447.734 372.6C448.166 373.064 448.382 373.704 448.382 374.52C448.382 375.624 447.918 376.504 446.99 377.16C446.078 377.8 444.806 378.12 443.174 378.12ZM457.964 365.28C459.548 365.28 460.804 365.744 461.732 366.672C462.676 367.584 463.148 368.92 463.148 370.68V378H461.444V370.848C461.444 369.536 461.116 368.536 460.46 367.848C459.804 367.16 458.868 366.816 457.652 366.816C456.292 366.816 455.212 367.224 454.412 368.04C453.628 368.84 453.236 369.952 453.236 371.376V378H451.532V360.192H453.236V367.584C453.7 366.848 454.34 366.28 455.156 365.88C455.972 365.48 456.908 365.28 457.964 365.28ZM472.19 365.28C473.838 365.28 475.102 365.696 475.982 366.528C476.862 367.344 477.302 368.56 477.302 370.176V378H475.67V376.032C475.286 376.688 474.718 377.2 473.966 377.568C473.23 377.936 472.35 378.12 471.326 378.12C469.918 378.12 468.798 377.784 467.966 377.112C467.134 376.44 466.718 375.552 466.718 374.448C466.718 373.376 467.102 372.512 467.87 371.856C468.654 371.2 469.894 370.872 471.59 370.872H475.598V370.104C475.598 369.016 475.294 368.192 474.686 367.632C474.078 367.056 473.19 366.768 472.022 366.768C471.222 366.768 470.454 366.904 469.718 367.176C468.982 367.432 468.35 367.792 467.822 368.256L467.054 366.984C467.694 366.44 468.462 366.024 469.358 365.736C470.254 365.432 471.198 365.28 472.19 365.28ZM471.59 376.776C472.55 376.776 473.374 376.56 474.062 376.128C474.75 375.68 475.262 375.04 475.598 374.208V372.144H471.638C469.478 372.144 468.398 372.896 468.398 374.4C468.398 375.136 468.678 375.72 469.238 376.152C469.798 376.568 470.582 376.776 471.59 376.776ZM483.563 367.848C483.963 367 484.555 366.36 485.339 365.928C486.139 365.496 487.123 365.28 488.291 365.28V366.936L487.883 366.912C486.555 366.912 485.515 367.32 484.763 368.136C484.011 368.952 483.635 370.096 483.635 371.568V378H481.931V365.376H483.563V367.848ZM502.251 372.216H491.691C491.787 373.528 492.291 374.592 493.203 375.408C494.115 376.208 495.267 376.608 496.659 376.608C497.443 376.608 498.163 376.472 498.819 376.2C499.475 375.912 500.043 375.496 500.523 374.952L501.483 376.056C500.923 376.728 500.219 377.24 499.371 377.592C498.539 377.944 497.619 378.12 496.611 378.12C495.315 378.12 494.163 377.848 493.155 377.304C492.163 376.744 491.387 375.976 490.827 375C490.267 374.024 489.987 372.92 489.987 371.688C489.987 370.456 490.251 369.352 490.779 368.376C491.323 367.4 492.059 366.64 492.987 366.096C493.931 365.552 494.987 365.28 496.155 365.28C497.323 365.28 498.371 365.552 499.299 366.096C500.227 366.64 500.955 367.4 501.483 368.376C502.011 369.336 502.275 370.44 502.275 371.688L502.251 372.216ZM496.155 366.744C494.939 366.744 493.915 367.136 493.083 367.92C492.267 368.688 491.803 369.696 491.691 370.944H500.643C500.531 369.696 500.059 368.688 499.227 367.92C498.411 367.136 497.387 366.744 496.155 366.744ZM411.933 401.28C413.581 401.28 414.845 401.696 415.725 402.528C416.605 403.344 417.045 404.56 417.045 406.176V414H415.413V412.032C415.029 412.688 414.461 413.2 413.709 413.568C412.973 413.936 412.093 414.12 411.069 414.12C409.661 414.12 408.541 413.784 407.709 413.112C406.877 412.44 406.461 411.552 406.461 410.448C406.461 409.376 406.845 408.512 407.613 407.856C408.397 407.2 409.637 406.872 411.333 406.872H415.341V406.104C415.341 405.016 415.037 404.192 414.429 403.632C413.821 403.056 412.933 402.768 411.765 402.768C410.965 402.768 410.197 402.904 409.461 403.176C408.725 403.432 408.093 403.792 407.565 404.256L406.797 402.984C407.437 402.44 408.205 402.024 409.101 401.736C409.997 401.432 410.941 401.28 411.933 401.28ZM411.333 412.776C412.293 412.776 413.117 412.56 413.805 412.128C414.493 411.68 415.005 411.04 415.341 410.208V408.144H411.381C409.221 408.144 408.141 408.896 408.141 410.4C408.141 411.136 408.421 411.72 408.981 412.152C409.541 412.568 410.325 412.776 411.333 412.776ZM433.24 396.192V414H431.608V411.504C431.096 412.352 430.416 413 429.568 413.448C428.736 413.896 427.792 414.12 426.736 414.12C425.552 414.12 424.48 413.848 423.52 413.304C422.56 412.76 421.808 412 421.264 411.024C420.72 410.048 420.448 408.936 420.448 407.688C420.448 406.44 420.72 405.328 421.264 404.352C421.808 403.376 422.56 402.624 423.52 402.096C424.48 401.552 425.552 401.28 426.736 401.28C427.76 401.28 428.68 401.496 429.496 401.928C430.328 402.344 431.008 402.96 431.536 403.776V396.192H433.24ZM426.88 412.608C427.76 412.608 428.552 412.408 429.256 412.008C429.976 411.592 430.536 411.008 430.936 410.256C431.352 409.504 431.56 408.648 431.56 407.688C431.56 406.728 431.352 405.872 430.936 405.12C430.536 404.368 429.976 403.792 429.256 403.392C428.552 402.976 427.76 402.768 426.88 402.768C425.984 402.768 425.176 402.976 424.456 403.392C423.752 403.792 423.192 404.368 422.776 405.12C422.376 405.872 422.176 406.728 422.176 407.688C422.176 408.648 422.376 409.504 422.776 410.256C423.192 411.008 423.752 411.592 424.456 412.008C425.176 412.408 425.984 412.608 426.88 412.608ZM448.593 401.376L442.977 414H441.225L435.633 401.376H437.409L442.137 412.128L446.913 401.376H448.593ZM450.993 401.376H452.697V414H450.993V401.376ZM451.857 398.616C451.505 398.616 451.209 398.496 450.969 398.256C450.729 398.016 450.609 397.728 450.609 397.392C450.609 397.072 450.729 396.792 450.969 396.552C451.209 396.312 451.505 396.192 451.857 396.192C452.209 396.192 452.505 396.312 452.745 396.552C452.985 396.776 453.105 397.048 453.105 397.368C453.105 397.72 452.985 398.016 452.745 398.256C452.505 398.496 452.209 398.616 451.857 398.616ZM462.671 414.12C461.423 414.12 460.303 413.848 459.311 413.304C458.335 412.76 457.567 412 457.007 411.024C456.447 410.032 456.167 408.92 456.167 407.688C456.167 406.456 456.447 405.352 457.007 404.376C457.567 403.4 458.335 402.64 459.311 402.096C460.303 401.552 461.423 401.28 462.671 401.28C463.759 401.28 464.727 401.496 465.575 401.928C466.439 402.344 467.119 402.96 467.615 403.776L466.343 404.64C465.927 404.016 465.399 403.552 464.759 403.248C464.119 402.928 463.423 402.768 462.671 402.768C461.759 402.768 460.935 402.976 460.199 403.392C459.479 403.792 458.911 404.368 458.495 405.12C458.095 405.872 457.895 406.728 457.895 407.688C457.895 408.664 458.095 409.528 458.495 410.28C458.911 411.016 459.479 411.592 460.199 412.008C460.935 412.408 461.759 412.608 462.671 412.608C463.423 412.608 464.119 412.456 464.759 412.152C465.399 411.848 465.927 411.384 466.343 410.76L467.615 411.624C467.119 412.44 466.439 413.064 465.575 413.496C464.711 413.912 463.743 414.12 462.671 414.12ZM481.743 408.216H471.183C471.279 409.528 471.783 410.592 472.695 411.408C473.607 412.208 474.759 412.608 476.151 412.608C476.935 412.608 477.655 412.472 478.311 412.2C478.967 411.912 479.535 411.496 480.015 410.952L480.975 412.056C480.415 412.728 479.711 413.24 478.863 413.592C478.031 413.944 477.111 414.12 476.103 414.12C474.807 414.12 473.655 413.848 472.647 413.304C471.655 412.744 470.879 411.976 470.319 411C469.759 410.024 469.479 408.92 469.479 407.688C469.479 406.456 469.743 405.352 470.271 404.376C470.815 403.4 471.551 402.64 472.479 402.096C473.423 401.552 474.479 401.28 475.647 401.28C476.815 401.28 477.863 401.552 478.791 402.096C479.719 402.64 480.447 403.4 480.975 404.376C481.503 405.336 481.767 406.44 481.767 407.688L481.743 408.216ZM475.647 402.744C474.431 402.744 473.407 403.136 472.575 403.92C471.759 404.688 471.295 405.696 471.183 406.944H480.135C480.023 405.696 479.551 404.688 478.719 403.92C477.903 403.136 476.879 402.744 475.647 402.744Z" fill="#F2F2F2"/>
</g>
<g clip-path="url(#clip2)">
<g filter="url(#filter2_di)">
<path d="M871.845 188C872.56 189.238 872.56 190.762 871.845 192L792.655 329.162C791.94 330.4 790.62 331.162 789.191 331.162L630.809 331.162C629.38 331.162 628.06 330.4 627.345 329.162L548.155 192C547.44 190.762 547.44 189.238 548.155 188L627.345 50.8379C628.06 49.6003 629.38 48.8378 630.809 48.8378L789.191 48.8379C790.62 48.8379 791.94 49.6003 792.655 50.8379L871.845 188Z" fill="#171717"/>
</g>
<path fill-rule="evenodd" clip-rule="evenodd" d="M711.725 170.264C697.95 170.264 686.725 159.039 686.725 145.264C686.725 131.489 697.95 120.264 711.725 120.264C725.5 120.264 736.725 131.489 736.725 145.264C736.725 159.039 725.5 170.264 711.725 170.264ZM711.725 123.264C699.6 123.264 689.725 133.139 689.725 145.264C689.725 157.389 699.6 167.264 711.725 167.264C723.85 167.264 733.725 157.389 733.725 145.264C733.725 133.139 723.85 123.264 711.725 123.264Z" fill="#828282"/>
<path fill-rule="evenodd" clip-rule="evenodd" d="M721.9 156.939C721.575 156.189 720.7 155.839 719.925 156.164C718.8 156.664 717.675 156.864 716.575 156.764C715.7 156.689 715.1 156.439 714.425 156.164C714 155.989 713.575 155.814 713.1 155.664C712 155.339 710.8 155.264 709.55 155.414C710.4 153.689 710.6 152.164 710.6 151.014C710.575 150.214 710.425 149.539 710.225 148.864H715.8C716.625 148.864 717.3 148.189 717.3 147.364C717.3 146.539 716.625 145.864 715.8 145.864H708.775C708.725 145.764 708.65 145.664 708.6 145.564C707.7 144.139 706.825 142.764 706.8 140.639C706.8 139.889 706.75 137.914 708.075 136.189C709 134.989 710.45 134.139 712.175 133.839C716.125 133.139 719.25 136.389 719.375 136.539C719.95 137.139 720.9 137.164 721.5 136.614C722.1 136.039 722.125 135.089 721.575 134.489C721.125 134.014 717.1 129.939 711.675 130.889C709.2 131.339 707.1 132.564 705.7 134.389C703.75 136.914 703.8 139.764 703.8 140.689C703.825 142.889 704.5 144.514 705.275 145.889H702.9C702.075 145.889 701.4 146.564 701.4 147.389C701.4 148.214 702.075 148.889 702.9 148.889H707.025C707.35 149.564 707.575 150.264 707.575 151.089C707.6 152.464 707.1 154.664 704.525 157.214C704 157.739 703.95 158.564 704.375 159.164C704.8 159.764 705.6 159.964 706.275 159.614C708.6 158.439 710.6 158.064 712.225 158.539C712.6 158.639 712.925 158.789 713.25 158.914C714.05 159.239 714.95 159.614 716.325 159.739C716.575 159.764 716.825 159.764 717.1 159.764C718.45 159.764 719.8 159.464 721.125 158.889C721.9 158.564 722.25 157.689 721.9 156.939Z" fill="#828282"/>
<path d="M612.544 229.144C611.296 229.144 610.096 228.944 608.944 228.544C607.808 228.144 606.928 227.616 606.304 226.96L607 225.592C607.608 226.2 608.416 226.696 609.424 227.08C610.432 227.448 611.472 227.632 612.544 227.632C614.048 227.632 615.176 227.36 615.928 226.816C616.68 226.256 617.056 225.536 617.056 224.656C617.056 223.984 616.848 223.448 616.432 223.048C616.032 222.648 615.536 222.344 614.944 222.136C614.352 221.912 613.528 221.672 612.472 221.416C611.208 221.096 610.2 220.792 609.448 220.504C608.696 220.2 608.048 219.744 607.504 219.136C606.976 218.528 606.712 217.704 606.712 216.664C606.712 215.816 606.936 215.048 607.384 214.36C607.832 213.656 608.52 213.096 609.448 212.68C610.376 212.264 611.528 212.056 612.904 212.056C613.864 212.056 614.8 212.192 615.712 212.464C616.64 212.72 617.44 213.08 618.112 213.544L617.512 214.96C616.808 214.496 616.056 214.152 615.256 213.928C614.456 213.688 613.672 213.568 612.904 213.568C611.432 213.568 610.32 213.856 609.568 214.432C608.832 214.992 608.464 215.72 608.464 216.616C608.464 217.288 608.664 217.832 609.064 218.248C609.48 218.648 609.992 218.96 610.6 219.184C611.224 219.392 612.056 219.624 613.096 219.88C614.328 220.184 615.32 220.488 616.072 220.792C616.84 221.08 617.488 221.528 618.016 222.136C618.544 222.728 618.808 223.536 618.808 224.56C618.808 225.408 618.576 226.184 618.112 226.888C617.664 227.576 616.968 228.128 616.024 228.544C615.08 228.944 613.92 229.144 612.544 229.144ZM622.317 216.376H624.021V229H622.317V216.376ZM623.181 213.616C622.829 213.616 622.533 213.496 622.293 213.256C622.053 213.016 621.933 212.728 621.933 212.392C621.933 212.072 622.053 211.792 622.293 211.552C622.533 211.312 622.829 211.192 623.181 211.192C623.533 211.192 623.829 211.312 624.069 211.552C624.309 211.776 624.429 212.048 624.429 212.368C624.429 212.72 624.309 213.016 624.069 213.256C623.829 213.496 623.533 213.616 623.181 213.616ZM635.411 228.232C635.091 228.52 634.691 228.744 634.211 228.904C633.747 229.048 633.259 229.12 632.747 229.12C631.563 229.12 630.651 228.8 630.011 228.16C629.371 227.52 629.051 226.616 629.051 225.448V217.816H626.795V216.376H629.051V213.616H630.755V216.376H634.595V217.816H630.755V225.352C630.755 226.104 630.939 226.68 631.307 227.08C631.691 227.464 632.235 227.656 632.939 227.656C633.291 227.656 633.627 227.6 633.947 227.488C634.283 227.376 634.571 227.216 634.811 227.008L635.411 228.232ZM649.059 223.216H638.499C638.595 224.528 639.099 225.592 640.011 226.408C640.923 227.208 642.075 227.608 643.467 227.608C644.251 227.608 644.971 227.472 645.627 227.2C646.283 226.912 646.851 226.496 647.331 225.952L648.291 227.056C647.731 227.728 647.027 228.24 646.179 228.592C645.347 228.944 644.427 229.12 643.419 229.12C642.123 229.12 640.971 228.848 639.963 228.304C638.971 227.744 638.195 226.976 637.635 226C637.075 225.024 636.795 223.92 636.795 222.688C636.795 221.456 637.059 220.352 637.587 219.376C638.131 218.4 638.867 217.64 639.795 217.096C640.739 216.552 641.795 216.28 642.963 216.28C644.131 216.28 645.179 216.552 646.107 217.096C647.035 217.64 647.763 218.4 648.291 219.376C648.819 220.336 649.083 221.44 649.083 222.688L649.059 223.216ZM642.963 217.744C641.747 217.744 640.723 218.136 639.891 218.92C639.075 219.688 638.611 220.696 638.499 221.944H647.451C647.339 220.696 646.867 219.688 646.035 218.92C645.219 218.136 644.195 217.744 642.963 217.744ZM660.465 218.848C660.865 218 661.457 217.36 662.241 216.928C663.041 216.496 664.025 216.28 665.193 216.28V217.936L664.785 217.912C663.457 217.912 662.417 218.32 661.665 219.136C660.913 219.952 660.537 221.096 660.537 222.568V229H658.833V216.376H660.465V218.848ZM672.671 216.28C674.319 216.28 675.583 216.696 676.463 217.528C677.343 218.344 677.783 219.56 677.783 221.176V229H676.151V227.032C675.767 227.688 675.199 228.2 674.447 228.568C673.711 228.936 672.831 229.12 671.807 229.12C670.399 229.12 669.279 228.784 668.447 228.112C667.615 227.44 667.199 226.552 667.199 225.448C667.199 224.376 667.583 223.512 668.351 222.856C669.135 222.2 670.375 221.872 672.071 221.872H676.079V221.104C676.079 220.016 675.775 219.192 675.167 218.632C674.559 218.056 673.671 217.768 672.503 217.768C671.703 217.768 670.935 217.904 670.199 218.176C669.463 218.432 668.831 218.792 668.303 219.256L667.535 217.984C668.175 217.44 668.943 217.024 669.839 216.736C670.735 216.432 671.679 216.28 672.671 216.28ZM672.071 227.776C673.031 227.776 673.855 227.56 674.543 227.128C675.231 226.68 675.743 226.04 676.079 225.208V223.144H672.119C669.959 223.144 668.879 223.896 668.879 225.4C668.879 226.136 669.159 226.72 669.719 227.152C670.279 227.568 671.063 227.776 672.071 227.776ZM682.411 216.376H684.115V229H682.411V216.376ZM683.275 213.616C682.923 213.616 682.627 213.496 682.387 213.256C682.147 213.016 682.027 212.728 682.027 212.392C682.027 212.072 682.147 211.792 682.387 211.552C682.627 211.312 682.923 211.192 683.275 211.192C683.627 211.192 683.923 211.312 684.163 211.552C684.403 211.776 684.523 212.048 684.523 212.368C684.523 212.72 684.403 213.016 684.163 213.256C683.923 213.496 683.627 213.616 683.275 213.616ZM692.24 229.12C691.216 229.12 690.232 228.976 689.288 228.688C688.36 228.384 687.632 228.008 687.104 227.56L687.872 226.216C688.4 226.632 689.064 226.976 689.864 227.248C690.664 227.504 691.496 227.632 692.36 227.632C693.512 227.632 694.36 227.456 694.904 227.104C695.464 226.736 695.744 226.224 695.744 225.568C695.744 225.104 695.592 224.744 695.288 224.488C694.984 224.216 694.6 224.016 694.136 223.888C693.672 223.744 693.056 223.608 692.288 223.48C691.264 223.288 690.44 223.096 689.816 222.904C689.192 222.696 688.656 222.352 688.208 221.872C687.776 221.392 687.56 220.728 687.56 219.88C687.56 218.824 688 217.96 688.88 217.288C689.76 216.616 690.984 216.28 692.552 216.28C693.368 216.28 694.184 216.392 695 216.616C695.816 216.824 696.488 217.104 697.016 217.456L696.272 218.824C695.232 218.104 693.992 217.744 692.552 217.744C691.464 217.744 690.64 217.936 690.08 218.32C689.536 218.704 689.264 219.208 689.264 219.832C689.264 220.312 689.416 220.696 689.72 220.984C690.04 221.272 690.432 221.488 690.896 221.632C691.36 221.76 692 221.896 692.816 222.04C693.824 222.232 694.632 222.424 695.24 222.616C695.848 222.808 696.368 223.136 696.8 223.6C697.232 224.064 697.448 224.704 697.448 225.52C697.448 226.624 696.984 227.504 696.056 228.16C695.144 228.8 693.872 229.12 692.24 229.12ZM711.591 223.216H701.031C701.127 224.528 701.631 225.592 702.543 226.408C703.455 227.208 704.607 227.608 705.999 227.608C706.783 227.608 707.503 227.472 708.159 227.2C708.815 226.912 709.383 226.496 709.863 225.952L710.823 227.056C710.263 227.728 709.559 228.24 708.711 228.592C707.879 228.944 706.959 229.12 705.951 229.12C704.655 229.12 703.503 228.848 702.495 228.304C701.503 227.744 700.727 226.976 700.167 226C699.607 225.024 699.327 223.92 699.327 222.688C699.327 221.456 699.591 220.352 700.119 219.376C700.663 218.4 701.399 217.64 702.327 217.096C703.271 216.552 704.327 216.28 705.495 216.28C706.663 216.28 707.711 216.552 708.639 217.096C709.567 217.64 710.295 218.4 710.823 219.376C711.351 220.336 711.615 221.44 711.615 222.688L711.591 223.216ZM705.495 217.744C704.279 217.744 703.255 218.136 702.423 218.92C701.607 219.688 701.143 220.696 701.031 221.944H709.983C709.871 220.696 709.399 219.688 708.567 218.92C707.751 218.136 706.727 217.744 705.495 217.744ZM718.467 229.12C717.443 229.12 716.459 228.976 715.515 228.688C714.587 228.384 713.859 228.008 713.331 227.56L714.099 226.216C714.627 226.632 715.291 226.976 716.091 227.248C716.891 227.504 717.723 227.632 718.587 227.632C719.739 227.632 720.587 227.456 721.131 227.104C721.691 226.736 721.971 226.224 721.971 225.568C721.971 225.104 721.819 224.744 721.515 224.488C721.211 224.216 720.827 224.016 720.363 223.888C719.899 223.744 719.283 223.608 718.515 223.48C717.491 223.288 716.667 223.096 716.043 222.904C715.419 222.696 714.883 222.352 714.435 221.872C714.003 221.392 713.787 220.728 713.787 219.88C713.787 218.824 714.227 217.96 715.107 217.288C715.987 216.616 717.211 216.28 718.779 216.28C719.595 216.28 720.411 216.392 721.227 216.616C722.043 216.824 722.715 217.104 723.243 217.456L722.499 218.824C721.459 218.104 720.219 217.744 718.779 217.744C717.691 217.744 716.867 217.936 716.307 218.32C715.763 218.704 715.491 219.208 715.491 219.832C715.491 220.312 715.643 220.696 715.947 220.984C716.267 221.272 716.659 221.488 717.123 221.632C717.587 221.76 718.227 221.896 719.043 222.04C720.051 222.232 720.859 222.424 721.467 222.616C722.075 222.808 722.595 223.136 723.027 223.6C723.459 224.064 723.675 224.704 723.675 225.52C723.675 226.624 723.211 227.504 722.283 228.16C721.371 228.8 720.099 229.12 718.467 229.12ZM748.85 216.28C750.434 216.28 751.674 216.736 752.57 217.648C753.482 218.56 753.938 219.904 753.938 221.68V229H752.234V221.848C752.234 220.536 751.914 219.536 751.274 218.848C750.65 218.16 749.762 217.816 748.61 217.816C747.298 217.816 746.266 218.224 745.514 219.04C744.762 219.84 744.386 220.952 744.386 222.376V229H742.682V221.848C742.682 220.536 742.362 219.536 741.722 218.848C741.098 218.16 740.202 217.816 739.034 217.816C737.738 217.816 736.706 218.224 735.938 219.04C735.186 219.84 734.81 220.952 734.81 222.376V229H733.106V216.376H734.738V218.68C735.186 217.912 735.81 217.32 736.61 216.904C737.41 216.488 738.33 216.28 739.37 216.28C740.426 216.28 741.338 216.504 742.106 216.952C742.89 217.4 743.474 218.064 743.858 218.944C744.322 218.112 744.986 217.464 745.85 217C746.73 216.52 747.73 216.28 748.85 216.28ZM763.766 229.12C762.55 229.12 761.454 228.848 760.478 228.304C759.502 227.744 758.734 226.976 758.174 226C757.614 225.024 757.334 223.92 757.334 222.688C757.334 221.456 757.614 220.352 758.174 219.376C758.734 218.4 759.502 217.64 760.478 217.096C761.454 216.552 762.55 216.28 763.766 216.28C764.982 216.28 766.078 216.552 767.054 217.096C768.03 217.64 768.79 218.4 769.334 219.376C769.894 220.352 770.174 221.456 770.174 222.688C770.174 223.92 769.894 225.024 769.334 226C768.79 226.976 768.03 227.744 767.054 228.304C766.078 228.848 764.982 229.12 763.766 229.12ZM763.766 227.608C764.662 227.608 765.462 227.408 766.166 227.008C766.886 226.592 767.446 226.008 767.846 225.256C768.246 224.504 768.446 223.648 768.446 222.688C768.446 221.728 768.246 220.872 767.846 220.12C767.446 219.368 766.886 218.792 766.166 218.392C765.462 217.976 764.662 217.768 763.766 217.768C762.87 217.768 762.062 217.976 761.342 218.392C760.638 218.792 760.078 219.368 759.662 220.12C759.262 220.872 759.062 221.728 759.062 222.688C759.062 223.648 759.262 224.504 759.662 225.256C760.078 226.008 760.638 226.592 761.342 227.008C762.062 227.408 762.87 227.608 763.766 227.608ZM780.085 216.28C781.669 216.28 782.925 216.744 783.853 217.672C784.797 218.584 785.269 219.92 785.269 221.68V229H783.565V221.848C783.565 220.536 783.237 219.536 782.581 218.848C781.925 218.16 780.989 217.816 779.773 217.816C778.413 217.816 777.333 218.224 776.533 219.04C775.749 219.84 775.357 220.952 775.357 222.376V229H773.653V216.376H775.285V218.704C775.749 217.936 776.389 217.344 777.205 216.928C778.037 216.496 778.997 216.28 780.085 216.28ZM800.934 223.216H790.374C790.47 224.528 790.974 225.592 791.886 226.408C792.798 227.208 793.95 227.608 795.342 227.608C796.126 227.608 796.846 227.472 797.502 227.2C798.158 226.912 798.726 226.496 799.206 225.952L800.166 227.056C799.606 227.728 798.902 228.24 798.054 228.592C797.222 228.944 796.302 229.12 795.294 229.12C793.998 229.12 792.846 228.848 791.838 228.304C790.846 227.744 790.07 226.976 789.51 226C788.95 225.024 788.67 223.92 788.67 222.688C788.67 221.456 788.934 220.352 789.462 219.376C790.006 218.4 790.742 217.64 791.67 217.096C792.614 216.552 793.67 216.28 794.838 216.28C796.006 216.28 797.054 216.552 797.982 217.096C798.91 217.64 799.638 218.4 800.166 219.376C800.694 220.336 800.958 221.44 800.958 222.688L800.934 223.216ZM794.838 217.744C793.622 217.744 792.598 218.136 791.766 218.92C790.95 219.688 790.486 220.696 790.374 221.944H799.326C799.214 220.696 798.742 219.688 797.91 218.92C797.094 218.136 796.07 217.744 794.838 217.744ZM814.8 216.376L808.488 230.512C807.976 231.696 807.384 232.536 806.712 233.032C806.04 233.528 805.232 233.776 804.288 233.776C803.68 233.776 803.112 233.68 802.584 233.488C802.056 233.296 801.6 233.008 801.216 232.624L802.008 231.352C802.648 231.992 803.416 232.312 804.312 232.312C804.888 232.312 805.376 232.152 805.776 231.832C806.192 231.512 806.576 230.968 806.928 230.2L807.48 228.976L801.84 216.376H803.616L808.368 227.104L813.12 216.376H814.8ZM638.927 248.512C638.191 248.512 637.631 248.712 637.247 249.112C636.879 249.512 636.695 250.104 636.695 250.888V252.376H640.583V253.816H636.743V265H635.039V253.816H632.783V252.376H635.039V250.816C635.039 249.664 635.367 248.752 636.023 248.08C636.695 247.408 637.639 247.072 638.855 247.072C639.335 247.072 639.799 247.144 640.247 247.288C640.695 247.416 641.071 247.608 641.375 247.864L640.799 249.136C640.303 248.72 639.679 248.512 638.927 248.512ZM646.438 254.848C646.838 254 647.43 253.36 648.214 252.928C649.014 252.496 649.998 252.28 651.166 252.28V253.936L650.758 253.912C649.43 253.912 648.39 254.32 647.638 255.136C646.886 255.952 646.51 257.096 646.51 258.568V265H644.806V252.376H646.438V254.848ZM659.294 265.12C658.078 265.12 656.982 264.848 656.006 264.304C655.03 263.744 654.262 262.976 653.702 262C653.142 261.024 652.862 259.92 652.862 258.688C652.862 257.456 653.142 256.352 653.702 255.376C654.262 254.4 655.03 253.64 656.006 253.096C656.982 252.552 658.078 252.28 659.294 252.28C660.51 252.28 661.606 252.552 662.582 253.096C663.558 253.64 664.318 254.4 664.862 255.376C665.422 256.352 665.702 257.456 665.702 258.688C665.702 259.92 665.422 261.024 664.862 262C664.318 262.976 663.558 263.744 662.582 264.304C661.606 264.848 660.51 265.12 659.294 265.12ZM659.294 263.608C660.19 263.608 660.99 263.408 661.694 263.008C662.414 262.592 662.974 262.008 663.374 261.256C663.774 260.504 663.974 259.648 663.974 258.688C663.974 257.728 663.774 256.872 663.374 256.12C662.974 255.368 662.414 254.792 661.694 254.392C660.99 253.976 660.19 253.768 659.294 253.768C658.398 253.768 657.59 253.976 656.87 254.392C656.166 254.792 655.606 255.368 655.19 256.12C654.79 256.872 654.59 257.728 654.59 258.688C654.59 259.648 654.79 260.504 655.19 261.256C655.606 262.008 656.166 262.592 656.87 263.008C657.59 263.408 658.398 263.608 659.294 263.608ZM684.925 252.28C686.509 252.28 687.749 252.736 688.645 253.648C689.557 254.56 690.013 255.904 690.013 257.68V265H688.309V257.848C688.309 256.536 687.989 255.536 687.349 254.848C686.725 254.16 685.837 253.816 684.685 253.816C683.373 253.816 682.341 254.224 681.589 255.04C680.837 255.84 680.461 256.952 680.461 258.376V265H678.757V257.848C678.757 256.536 678.437 255.536 677.797 254.848C677.173 254.16 676.277 253.816 675.109 253.816C673.813 253.816 672.781 254.224 672.013 255.04C671.261 255.84 670.885 256.952 670.885 258.376V265H669.181V252.376H670.813V254.68C671.261 253.912 671.885 253.32 672.685 252.904C673.485 252.488 674.405 252.28 675.445 252.28C676.501 252.28 677.413 252.504 678.181 252.952C678.965 253.4 679.549 254.064 679.933 254.944C680.397 254.112 681.061 253.464 681.925 253C682.805 252.52 683.805 252.28 684.925 252.28ZM705.331 252.28C706.979 252.28 708.243 252.696 709.123 253.528C710.003 254.344 710.443 255.56 710.443 257.176V265H708.811V263.032C708.427 263.688 707.859 264.2 707.107 264.568C706.371 264.936 705.491 265.12 704.467 265.12C703.059 265.12 701.939 264.784 701.107 264.112C700.275 263.44 699.859 262.552 699.859 261.448C699.859 260.376 700.243 259.512 701.011 258.856C701.795 258.2 703.035 257.872 704.731 257.872H708.739V257.104C708.739 256.016 708.435 255.192 707.827 254.632C707.219 254.056 706.331 253.768 705.163 253.768C704.363 253.768 703.595 253.904 702.859 254.176C702.123 254.432 701.491 254.792 700.963 255.256L700.195 253.984C700.835 253.44 701.603 253.024 702.499 252.736C703.395 252.432 704.339 252.28 705.331 252.28ZM704.731 263.776C705.691 263.776 706.515 263.56 707.203 263.128C707.891 262.68 708.403 262.04 708.739 261.208V259.144H704.779C702.619 259.144 701.539 259.896 701.539 261.4C701.539 262.136 701.819 262.72 702.379 263.152C702.939 263.568 703.723 263.776 704.731 263.776ZM726.638 247.192V265H725.006V262.504C724.494 263.352 723.814 264 722.966 264.448C722.134 264.896 721.19 265.12 720.134 265.12C718.95 265.12 717.878 264.848 716.918 264.304C715.958 263.76 715.206 263 714.662 262.024C714.118 261.048 713.846 259.936 713.846 258.688C713.846 257.44 714.118 256.328 714.662 255.352C715.206 254.376 715.958 253.624 716.918 253.096C717.878 252.552 718.95 252.28 720.134 252.28C721.158 252.28 722.078 252.496 722.894 252.928C723.726 253.344 724.406 253.96 724.934 254.776V247.192H726.638ZM720.278 263.608C721.158 263.608 721.95 263.408 722.654 263.008C723.374 262.592 723.934 262.008 724.334 261.256C724.75 260.504 724.958 259.648 724.958 258.688C724.958 257.728 724.75 256.872 724.334 256.12C723.934 255.368 723.374 254.792 722.654 254.392C721.95 253.976 721.158 253.768 720.278 253.768C719.382 253.768 718.574 253.976 717.854 254.392C717.15 254.792 716.59 255.368 716.174 256.12C715.774 256.872 715.574 257.728 715.574 258.688C715.574 259.648 715.774 260.504 716.174 261.256C716.59 262.008 717.15 262.592 717.854 263.008C718.574 263.408 719.382 263.608 720.278 263.608ZM741.992 252.376L736.376 265H734.624L729.032 252.376H730.808L735.536 263.128L740.312 252.376H741.992ZM755.032 259.216H744.472C744.568 260.528 745.072 261.592 745.984 262.408C746.896 263.208 748.048 263.608 749.44 263.608C750.224 263.608 750.944 263.472 751.6 263.2C752.256 262.912 752.824 262.496 753.304 261.952L754.264 263.056C753.704 263.728 753 264.24 752.152 264.592C751.32 264.944 750.4 265.12 749.392 265.12C748.096 265.12 746.944 264.848 745.936 264.304C744.944 263.744 744.168 262.976 743.608 262C743.048 261.024 742.768 259.92 742.768 258.688C742.768 257.456 743.032 256.352 743.56 255.376C744.104 254.4 744.84 253.64 745.768 253.096C746.712 252.552 747.768 252.28 748.936 252.28C750.104 252.28 751.152 252.552 752.08 253.096C753.008 253.64 753.736 254.4 754.264 255.376C754.792 256.336 755.056 257.44 755.056 258.688L755.032 259.216ZM748.936 253.744C747.72 253.744 746.696 254.136 745.864 254.92C745.048 255.688 744.584 256.696 744.472 257.944H753.424C753.312 256.696 752.84 255.688 752.008 254.92C751.192 254.136 750.168 253.744 748.936 253.744ZM760.156 254.848C760.556 254 761.148 253.36 761.932 252.928C762.732 252.496 763.716 252.28 764.884 252.28V253.936L764.476 253.912C763.148 253.912 762.108 254.32 761.356 255.136C760.604 255.952 760.228 257.096 760.228 258.568V265H758.524V252.376H760.156V254.848ZM775.157 264.232C774.837 264.52 774.437 264.744 773.957 264.904C773.493 265.048 773.005 265.12 772.493 265.12C771.309 265.12 770.397 264.8 769.757 264.16C769.117 263.52 768.797 262.616 768.797 261.448V253.816H766.541V252.376H768.797V249.616H770.501V252.376H774.341V253.816H770.501V261.352C770.501 262.104 770.685 262.68 771.053 263.08C771.437 263.464 771.981 263.656 772.685 263.656C773.037 263.656 773.373 263.6 773.693 263.488C774.029 263.376 774.317 263.216 774.557 263.008L775.157 264.232ZM781.643 265.12C780.619 265.12 779.635 264.976 778.691 264.688C777.763 264.384 777.035 264.008 776.507 263.56L777.275 262.216C777.803 262.632 778.467 262.976 779.267 263.248C780.067 263.504 780.899 263.632 781.763 263.632C782.915 263.632 783.763 263.456 784.307 263.104C784.867 262.736 785.147 262.224 785.147 261.568C785.147 261.104 784.995 260.744 784.691 260.488C784.387 260.216 784.003 260.016 783.539 259.888C783.075 259.744 782.459 259.608 781.691 259.48C780.667 259.288 779.843 259.096 779.219 258.904C778.595 258.696 778.059 258.352 777.611 257.872C777.179 257.392 776.963 256.728 776.963 255.88C776.963 254.824 777.403 253.96 778.283 253.288C779.163 252.616 780.387 252.28 781.955 252.28C782.771 252.28 783.587 252.392 784.403 252.616C785.219 252.824 785.891 253.104 786.419 253.456L785.675 254.824C784.635 254.104 783.395 253.744 781.955 253.744C780.867 253.744 780.043 253.936 779.483 254.32C778.939 254.704 778.667 255.208 778.667 255.832C778.667 256.312 778.819 256.696 779.123 256.984C779.443 257.272 779.835 257.488 780.299 257.632C780.763 257.76 781.403 257.896 782.219 258.04C783.227 258.232 784.035 258.424 784.643 258.616C785.251 258.808 785.771 259.136 786.203 259.6C786.635 260.064 786.851 260.704 786.851 261.52C786.851 262.624 786.387 263.504 785.459 264.16C784.547 264.8 783.275 265.12 781.643 265.12Z" fill="#F2F2F2"/>
</g>
<g clip-path="url(#clip3)">
<g filter="url(#filter3_di)">
<path d="M1137.85 343C1138.56 344.238 1138.56 345.762 1137.85 347L1058.65 484.162C1057.94 485.4 1056.62 486.162 1055.19 486.162L896.809 486.162C895.38 486.162 894.06 485.4 893.345 484.162L814.155 347C813.44 345.762 813.44 344.238 814.155 343L893.345 205.838C894.06 204.6 895.38 203.838 896.809 203.838L1055.19 203.838C1056.62 203.838 1057.94 204.6 1058.65 205.838L1137.85 343Z" fill="#171717"/>
</g>
<path fill-rule="evenodd" clip-rule="evenodd" d="M1001 295.35L996 297.9V316C993.483 321.102 981.985 323.5 974.75 323.5C966.813 323.5 956.277 321.015 953.5 316V296.51L946 291.77L976 278.5L1003.5 294.077V316L1006 323.5H998.5L1001 316V295.35ZM956 298.088V315.27C958.395 318.47 966.543 321 974.75 321C981.985 321 991.222 318.603 993.5 315.328V299.173L973.692 309.27L956 298.088ZM951.297 292.16L973.825 306.395L998.222 293.96L975.862 281.295L951.297 292.16V292.16Z" fill="#828282"/>
<path d="M890.957 378.192V384H889.205V378.192L882.485 367.2H884.381L890.141 376.632L895.901 367.2H897.677L890.957 378.192ZM903.802 384.12C902.586 384.12 901.49 383.848 900.514 383.304C899.538 382.744 898.77 381.976 898.21 381C897.65 380.024 897.37 378.92 897.37 377.688C897.37 376.456 897.65 375.352 898.21 374.376C898.77 373.4 899.538 372.64 900.514 372.096C901.49 371.552 902.586 371.28 903.802 371.28C905.018 371.28 906.114 371.552 907.09 372.096C908.066 372.64 908.826 373.4 909.37 374.376C909.93 375.352 910.21 376.456 910.21 377.688C910.21 378.92 909.93 380.024 909.37 381C908.826 381.976 908.066 382.744 907.09 383.304C906.114 383.848 905.018 384.12 903.802 384.12ZM903.802 382.608C904.698 382.608 905.498 382.408 906.202 382.008C906.922 381.592 907.482 381.008 907.882 380.256C908.282 379.504 908.482 378.648 908.482 377.688C908.482 376.728 908.282 375.872 907.882 375.12C907.482 374.368 906.922 373.792 906.202 373.392C905.498 372.976 904.698 372.768 903.802 372.768C902.906 372.768 902.098 372.976 901.378 373.392C900.674 373.792 900.114 374.368 899.698 375.12C899.298 375.872 899.098 376.728 899.098 377.688C899.098 378.648 899.298 379.504 899.698 380.256C900.114 381.008 900.674 381.592 901.378 382.008C902.098 382.408 902.906 382.608 903.802 382.608ZM925.065 371.376V384H923.432V381.696C922.985 382.464 922.369 383.064 921.585 383.496C920.801 383.912 919.905 384.12 918.897 384.12C917.249 384.12 915.945 383.664 914.985 382.752C914.041 381.824 913.569 380.472 913.569 378.696V371.376H915.273V378.528C915.273 379.856 915.601 380.864 916.257 381.552C916.913 382.24 917.849 382.584 919.065 382.584C920.393 382.584 921.441 382.184 922.209 381.384C922.977 380.568 923.361 379.44 923.361 378V371.376H925.065ZM936.269 371.28C937.853 371.28 939.109 371.744 940.037 372.672C940.981 373.584 941.453 374.92 941.453 376.68V384H939.749V376.848C939.749 375.536 939.421 374.536 938.765 373.848C938.109 373.16 937.173 372.816 935.957 372.816C934.597 372.816 933.517 373.224 932.717 374.04C931.933 374.84 931.541 375.952 931.541 377.376V384H929.837V371.376H931.469V373.704C931.933 372.936 932.573 372.344 933.389 371.928C934.221 371.496 935.181 371.28 936.269 371.28ZM957.814 371.376V382.464C957.814 384.608 957.286 386.192 956.23 387.216C955.19 388.256 953.614 388.776 951.502 388.776C950.334 388.776 949.222 388.6 948.166 388.248C947.126 387.912 946.278 387.44 945.622 386.832L946.486 385.536C947.094 386.08 947.83 386.504 948.694 386.808C949.574 387.112 950.494 387.264 951.454 387.264C953.054 387.264 954.23 386.888 954.982 386.136C955.734 385.4 956.11 384.248 956.11 382.68V381.072C955.582 381.872 954.886 382.48 954.022 382.896C953.174 383.312 952.23 383.52 951.19 383.52C950.006 383.52 948.926 383.264 947.95 382.752C946.99 382.224 946.23 381.496 945.67 380.568C945.126 379.624 944.854 378.56 944.854 377.376C944.854 376.192 945.126 375.136 945.67 374.208C946.23 373.28 946.99 372.56 947.95 372.048C948.91 371.536 949.99 371.28 951.19 371.28C952.262 371.28 953.23 371.496 954.094 371.928C954.958 372.36 955.654 372.984 956.182 373.8V371.376H957.814ZM951.358 382.008C952.27 382.008 953.094 381.816 953.83 381.432C954.566 381.032 955.134 380.48 955.534 379.776C955.95 379.072 956.158 378.272 956.158 377.376C956.158 376.48 955.95 375.688 955.534 375C955.134 374.296 954.566 373.752 953.83 373.368C953.11 372.968 952.286 372.768 951.358 372.768C950.446 372.768 949.622 372.96 948.886 373.344C948.166 373.728 947.598 374.272 947.182 374.976C946.782 375.68 946.582 376.48 946.582 377.376C946.582 378.272 946.782 379.072 947.182 379.776C947.598 380.48 948.166 381.032 948.886 381.432C949.622 381.816 950.446 382.008 951.358 382.008ZM974.092 384.12C972.844 384.12 971.724 383.848 970.732 383.304C969.756 382.76 968.988 382 968.428 381.024C967.868 380.032 967.588 378.92 967.588 377.688C967.588 376.456 967.868 375.352 968.428 374.376C968.988 373.4 969.756 372.64 970.732 372.096C971.724 371.552 972.844 371.28 974.092 371.28C975.18 371.28 976.148 371.496 976.996 371.928C977.86 372.344 978.54 372.96 979.036 373.776L977.764 374.64C977.348 374.016 976.82 373.552 976.18 373.248C975.54 372.928 974.844 372.768 974.092 372.768C973.18 372.768 972.356 372.976 971.62 373.392C970.9 373.792 970.332 374.368 969.916 375.12C969.516 375.872 969.316 376.728 969.316 377.688C969.316 378.664 969.516 379.528 969.916 380.28C970.332 381.016 970.9 381.592 971.62 382.008C972.356 382.408 973.18 382.608 974.092 382.608C974.844 382.608 975.54 382.456 976.18 382.152C976.82 381.848 977.348 381.384 977.764 380.76L979.036 381.624C978.54 382.44 977.86 383.064 976.996 383.496C976.132 383.912 975.164 384.12 974.092 384.12ZM984.016 373.848C984.416 373 985.008 372.36 985.792 371.928C986.592 371.496 987.576 371.28 988.744 371.28V372.936L988.336 372.912C987.008 372.912 985.968 373.32 985.216 374.136C984.464 374.952 984.088 376.096 984.088 377.568V384H982.384V371.376H984.016V373.848ZM1002.7 378.216H992.144C992.24 379.528 992.744 380.592 993.656 381.408C994.568 382.208 995.72 382.608 997.112 382.608C997.896 382.608 998.616 382.472 999.272 382.2C999.928 381.912 1000.5 381.496 1000.98 380.952L1001.94 382.056C1001.38 382.728 1000.67 383.24 999.824 383.592C998.992 383.944 998.072 384.12 997.064 384.12C995.768 384.12 994.616 383.848 993.608 383.304C992.616 382.744 991.84 381.976 991.28 381C990.72 380.024 990.44 378.92 990.44 377.688C990.44 376.456 990.704 375.352 991.232 374.376C991.776 373.4 992.512 372.64 993.44 372.096C994.384 371.552 995.44 371.28 996.608 371.28C997.776 371.28 998.824 371.552 999.752 372.096C1000.68 372.64 1001.41 373.4 1001.94 374.376C1002.46 375.336 1002.73 376.44 1002.73 377.688L1002.7 378.216ZM996.608 372.744C995.392 372.744 994.368 373.136 993.536 373.92C992.72 374.688 992.256 375.696 992.144 376.944H1001.1C1000.98 375.696 1000.51 374.688 999.68 373.92C998.864 373.136 997.84 372.744 996.608 372.744ZM1010.26 371.28C1011.91 371.28 1013.17 371.696 1014.05 372.528C1014.93 373.344 1015.37 374.56 1015.37 376.176V384H1013.74V382.032C1013.36 382.688 1012.79 383.2 1012.04 383.568C1011.3 383.936 1010.42 384.12 1009.4 384.12C1007.99 384.12 1006.87 383.784 1006.04 383.112C1005.2 382.44 1004.79 381.552 1004.79 380.448C1004.79 379.376 1005.17 378.512 1005.94 377.856C1006.72 377.2 1007.96 376.872 1009.66 376.872H1013.67V376.104C1013.67 375.016 1013.36 374.192 1012.76 373.632C1012.15 373.056 1011.26 372.768 1010.09 372.768C1009.29 372.768 1008.52 372.904 1007.79 373.176C1007.05 373.432 1006.42 373.792 1005.89 374.256L1005.12 372.984C1005.76 372.44 1006.53 372.024 1007.43 371.736C1008.32 371.432 1009.27 371.28 1010.26 371.28ZM1009.66 382.776C1010.62 382.776 1011.44 382.56 1012.13 382.128C1012.82 381.68 1013.33 381.04 1013.67 380.208V378.144H1009.71C1007.55 378.144 1006.47 378.896 1006.47 380.4C1006.47 381.136 1006.75 381.72 1007.31 382.152C1007.87 382.568 1008.65 382.776 1009.66 382.776ZM1026.65 383.232C1026.33 383.52 1025.93 383.744 1025.45 383.904C1024.99 384.048 1024.5 384.12 1023.99 384.12C1022.8 384.12 1021.89 383.8 1021.25 383.16C1020.61 382.52 1020.29 381.616 1020.29 380.448V372.816H1018.03V371.376H1020.29V368.616H1021.99V371.376H1025.83V372.816H1021.99V380.352C1021.99 381.104 1022.18 381.68 1022.55 382.08C1022.93 382.464 1023.47 382.656 1024.18 382.656C1024.53 382.656 1024.87 382.6 1025.19 382.488C1025.52 382.376 1025.81 382.216 1026.05 382.008L1026.65 383.232ZM1034.47 384.12C1033.25 384.12 1032.15 383.848 1031.18 383.304C1030.2 382.744 1029.43 381.976 1028.87 381C1028.31 380.024 1028.03 378.92 1028.03 377.688C1028.03 376.456 1028.31 375.352 1028.87 374.376C1029.43 373.4 1030.2 372.64 1031.18 372.096C1032.15 371.552 1033.25 371.28 1034.47 371.28C1035.68 371.28 1036.78 371.552 1037.75 372.096C1038.73 372.64 1039.49 373.4 1040.03 374.376C1040.59 375.352 1040.87 376.456 1040.87 377.688C1040.87 378.92 1040.59 380.024 1040.03 381C1039.49 381.976 1038.73 382.744 1037.75 383.304C1036.78 383.848 1035.68 384.12 1034.47 384.12ZM1034.47 382.608C1035.36 382.608 1036.16 382.408 1036.87 382.008C1037.59 381.592 1038.15 381.008 1038.55 380.256C1038.95 379.504 1039.15 378.648 1039.15 377.688C1039.15 376.728 1038.95 375.872 1038.55 375.12C1038.15 374.368 1037.59 373.792 1036.87 373.392C1036.16 372.976 1035.36 372.768 1034.47 372.768C1033.57 372.768 1032.76 372.976 1032.04 373.392C1031.34 373.792 1030.78 374.368 1030.36 375.12C1029.96 375.872 1029.76 376.728 1029.76 377.688C1029.76 378.648 1029.96 379.504 1030.36 380.256C1030.78 381.008 1031.34 381.592 1032.04 382.008C1032.76 382.408 1033.57 382.608 1034.47 382.608ZM1045.98 373.848C1046.38 373 1046.98 372.36 1047.76 371.928C1048.56 371.496 1049.54 371.28 1050.71 371.28V372.936L1050.3 372.912C1048.98 372.912 1047.94 373.32 1047.18 374.136C1046.43 374.952 1046.06 376.096 1046.06 377.568V384H1044.35V371.376H1045.98V373.848ZM1057.28 384.12C1056.25 384.12 1055.27 383.976 1054.32 383.688C1053.4 383.384 1052.67 383.008 1052.14 382.56L1052.91 381.216C1053.44 381.632 1054.1 381.976 1054.9 382.248C1055.7 382.504 1056.53 382.632 1057.4 382.632C1058.55 382.632 1059.4 382.456 1059.94 382.104C1060.5 381.736 1060.78 381.224 1060.78 380.568C1060.78 380.104 1060.63 379.744 1060.32 379.488C1060.02 379.216 1059.64 379.016 1059.17 378.888C1058.71 378.744 1058.09 378.608 1057.32 378.48C1056.3 378.288 1055.48 378.096 1054.85 377.904C1054.23 377.696 1053.69 377.352 1053.24 376.872C1052.81 376.392 1052.6 375.728 1052.6 374.88C1052.6 373.824 1053.04 372.96 1053.92 372.288C1054.8 371.616 1056.02 371.28 1057.59 371.28C1058.4 371.28 1059.22 371.392 1060.04 371.616C1060.85 371.824 1061.52 372.104 1062.05 372.456L1061.31 373.824C1060.27 373.104 1059.03 372.744 1057.59 372.744C1056.5 372.744 1055.68 372.936 1055.12 373.32C1054.57 373.704 1054.3 374.208 1054.3 374.832C1054.3 375.312 1054.45 375.696 1054.76 375.984C1055.08 376.272 1055.47 376.488 1055.93 376.632C1056.4 376.76 1057.04 376.896 1057.85 377.04C1058.86 377.232 1059.67 377.424 1060.28 377.616C1060.88 377.808 1061.4 378.136 1061.84 378.6C1062.27 379.064 1062.48 379.704 1062.48 380.52C1062.48 381.624 1062.02 382.504 1061.09 383.16C1060.18 383.8 1058.91 384.12 1057.28 384.12ZM914.923 407.376V418.464C914.923 420.608 914.395 422.192 913.339 423.216C912.299 424.256 910.723 424.776 908.611 424.776C907.443 424.776 906.331 424.6 905.275 424.248C904.235 423.912 903.387 423.44 902.731 422.832L903.595 421.536C904.203 422.08 904.939 422.504 905.803 422.808C906.683 423.112 907.603 423.264 908.563 423.264C910.163 423.264 911.339 422.888 912.091 422.136C912.843 421.4 913.219 420.248 913.219 418.68V417.072C912.691 417.872 911.995 418.48 911.131 418.896C910.283 419.312 909.339 419.52 908.299 419.52C907.115 419.52 906.035 419.264 905.059 418.752C904.099 418.224 903.339 417.496 902.779 416.568C902.235 415.624 901.963 414.56 901.963 413.376C901.963 412.192 902.235 411.136 902.779 410.208C903.339 409.28 904.099 408.56 905.059 408.048C906.019 407.536 907.099 407.28 908.299 407.28C909.371 407.28 910.339 407.496 911.203 407.928C912.067 408.36 912.763 408.984 913.291 409.8V407.376H914.923ZM908.467 418.008C909.379 418.008 910.203 417.816 910.939 417.432C911.675 417.032 912.243 416.48 912.643 415.776C913.059 415.072 913.267 414.272 913.267 413.376C913.267 412.48 913.059 411.688 912.643 411C912.243 410.296 911.675 409.752 910.939 409.368C910.219 408.968 909.395 408.768 908.467 408.768C907.555 408.768 906.731 408.96 905.995 409.344C905.275 409.728 904.707 410.272 904.291 410.976C903.891 411.68 903.691 412.48 903.691 413.376C903.691 414.272 903.891 415.072 904.291 415.776C904.707 416.48 905.275 417.032 905.995 417.432C906.731 417.816 907.555 418.008 908.467 418.008ZM930.681 414.216H920.121C920.217 415.528 920.721 416.592 921.633 417.408C922.545 418.208 923.697 418.608 925.089 418.608C925.873 418.608 926.593 418.472 927.249 418.2C927.905 417.912 928.473 417.496 928.953 416.952L929.913 418.056C929.353 418.728 928.649 419.24 927.801 419.592C926.969 419.944 926.049 420.12 925.041 420.12C923.745 420.12 922.593 419.848 921.585 419.304C920.593 418.744 919.817 417.976 919.257 417C918.697 416.024 918.417 414.92 918.417 413.688C918.417 412.456 918.681 411.352 919.209 410.376C919.753 409.4 920.489 408.64 921.417 408.096C922.361 407.552 923.417 407.28 924.585 407.28C925.753 407.28 926.801 407.552 927.729 408.096C928.657 408.64 929.385 409.4 929.913 410.376C930.441 411.336 930.705 412.44 930.705 413.688L930.681 414.216ZM924.585 408.744C923.369 408.744 922.345 409.136 921.513 409.92C920.697 410.688 920.233 411.696 920.121 412.944H929.073C928.961 411.696 928.489 410.688 927.657 409.92C926.841 409.136 925.817 408.744 924.585 408.744ZM940.821 419.232C940.501 419.52 940.101 419.744 939.621 419.904C939.157 420.048 938.669 420.12 938.157 420.12C936.973 420.12 936.061 419.8 935.421 419.16C934.781 418.52 934.461 417.616 934.461 416.448V408.816H932.205V407.376H934.461V404.616H936.165V407.376H940.005V408.816H936.165V416.352C936.165 417.104 936.349 417.68 936.717 418.08C937.101 418.464 937.645 418.656 938.349 418.656C938.701 418.656 939.037 418.6 939.357 418.488C939.693 418.376 939.981 418.216 940.221 418.008L940.821 419.232ZM954.38 403.512C953.644 403.512 953.084 403.712 952.7 404.112C952.332 404.512 952.148 405.104 952.148 405.888V407.376H956.036V408.816H952.196V420H950.492V408.816H948.236V407.376H950.492V405.816C950.492 404.664 950.82 403.752 951.476 403.08C952.148 402.408 953.092 402.072 954.308 402.072C954.788 402.072 955.252 402.144 955.7 402.288C956.148 402.416 956.524 402.608 956.828 402.864L956.252 404.136C955.756 403.72 955.132 403.512 954.38 403.512ZM961.891 409.848C962.291 409 962.883 408.36 963.667 407.928C964.467 407.496 965.451 407.28 966.619 407.28V408.936L966.211 408.912C964.883 408.912 963.843 409.32 963.091 410.136C962.339 410.952 961.963 412.096 961.963 413.568V420H960.259V407.376H961.891V409.848ZM980.579 414.216H970.019C970.115 415.528 970.619 416.592 971.531 417.408C972.443 418.208 973.595 418.608 974.987 418.608C975.771 418.608 976.491 418.472 977.147 418.2C977.803 417.912 978.371 417.496 978.851 416.952L979.811 418.056C979.251 418.728 978.547 419.24 977.699 419.592C976.867 419.944 975.947 420.12 974.939 420.12C973.643 420.12 972.491 419.848 971.483 419.304C970.491 418.744 969.715 417.976 969.155 417C968.595 416.024 968.315 414.92 968.315 413.688C968.315 412.456 968.579 411.352 969.107 410.376C969.651 409.4 970.387 408.64 971.315 408.096C972.259 407.552 973.315 407.28 974.483 407.28C975.651 407.28 976.699 407.552 977.627 408.096C978.555 408.64 979.283 409.4 979.811 410.376C980.339 411.336 980.603 412.44 980.603 413.688L980.579 414.216ZM974.483 408.744C973.267 408.744 972.243 409.136 971.411 409.92C970.595 410.688 970.131 411.696 970.019 412.944H978.971C978.859 411.696 978.387 410.688 977.555 409.92C976.739 409.136 975.715 408.744 974.483 408.744ZM995.063 414.216H984.503C984.599 415.528 985.103 416.592 986.015 417.408C986.927 418.208 988.079 418.608 989.471 418.608C990.255 418.608 990.975 418.472 991.631 418.2C992.287 417.912 992.855 417.496 993.335 416.952L994.295 418.056C993.735 418.728 993.031 419.24 992.183 419.592C991.351 419.944 990.431 420.12 989.423 420.12C988.127 420.12 986.975 419.848 985.967 419.304C984.975 418.744 984.199 417.976 983.639 417C983.079 416.024 982.799 414.92 982.799 413.688C982.799 412.456 983.063 411.352 983.591 410.376C984.135 409.4 984.871 408.64 985.799 408.096C986.743 407.552 987.799 407.28 988.967 407.28C990.135 407.28 991.183 407.552 992.111 408.096C993.039 408.64 993.767 409.4 994.295 410.376C994.823 411.336 995.087 412.44 995.087 413.688L995.063 414.216ZM988.967 408.744C987.751 408.744 986.727 409.136 985.895 409.92C985.079 410.688 984.615 411.696 984.503 412.944H993.455C993.343 411.696 992.871 410.688 992.039 409.92C991.223 409.136 990.199 408.744 988.967 408.744ZM1015.73 415.512H1006.37L1004.36 420H1002.51L1010.19 403.2H1011.94L1019.62 420H1017.75L1015.73 415.512ZM1015.08 414.072L1011.05 405.048L1007.02 414.072H1015.08ZM1023.67 409.848C1024.07 409 1024.66 408.36 1025.45 407.928C1026.25 407.496 1027.23 407.28 1028.4 407.28V408.936L1027.99 408.912C1026.66 408.912 1025.62 409.32 1024.87 410.136C1024.12 410.952 1023.74 412.096 1023.74 413.568V420H1022.04V407.376H1023.67V409.848ZM1038.67 419.232C1038.35 419.52 1037.95 419.744 1037.47 419.904C1037.01 420.048 1036.52 420.12 1036.01 420.12C1034.82 420.12 1033.91 419.8 1033.27 419.16C1032.63 418.52 1032.31 417.616 1032.31 416.448V408.816H1030.06V407.376H1032.31V404.616H1034.02V407.376H1037.86V408.816H1034.02V416.352C1034.02 417.104 1034.2 417.68 1034.57 418.08C1034.95 418.464 1035.5 418.656 1036.2 418.656C1036.55 418.656 1036.89 418.6 1037.21 418.488C1037.54 418.376 1037.83 418.216 1038.07 418.008L1038.67 419.232ZM1045.16 420.12C1044.13 420.12 1043.15 419.976 1042.21 419.688C1041.28 419.384 1040.55 419.008 1040.02 418.56L1040.79 417.216C1041.32 417.632 1041.98 417.976 1042.78 418.248C1043.58 418.504 1044.41 418.632 1045.28 418.632C1046.43 418.632 1047.28 418.456 1047.82 418.104C1048.38 417.736 1048.66 417.224 1048.66 416.568C1048.66 416.104 1048.51 415.744 1048.21 415.488C1047.9 415.216 1047.52 415.016 1047.05 414.888C1046.59 414.744 1045.97 414.608 1045.21 414.48C1044.18 414.288 1043.36 414.096 1042.73 413.904C1042.11 413.696 1041.57 413.352 1041.13 412.872C1040.69 412.392 1040.48 411.728 1040.48 410.88C1040.48 409.824 1040.92 408.96 1041.8 408.288C1042.68 407.616 1043.9 407.28 1045.47 407.28C1046.29 407.28 1047.1 407.392 1047.92 407.616C1048.73 407.824 1049.41 408.104 1049.93 408.456L1049.19 409.824C1048.15 409.104 1046.91 408.744 1045.47 408.744C1044.38 408.744 1043.56 408.936 1043 409.32C1042.45 409.704 1042.18 410.208 1042.18 410.832C1042.18 411.312 1042.33 411.696 1042.64 411.984C1042.96 412.272 1043.35 412.488 1043.81 412.632C1044.28 412.76 1044.92 412.896 1045.73 413.04C1046.74 413.232 1047.55 413.424 1048.16 413.616C1048.77 413.808 1049.29 414.136 1049.72 414.6C1050.15 415.064 1050.37 415.704 1050.37 416.52C1050.37 417.624 1049.9 418.504 1048.97 419.16C1048.06 419.8 1046.79 420.12 1045.16 420.12ZM928.893 454.464V456H917.013V439.2H928.533V440.736H918.789V446.712H927.477V448.224H918.789V454.464H928.893ZM944.041 438.192V456H942.409V453.504C941.897 454.352 941.217 455 940.369 455.448C939.537 455.896 938.593 456.12 937.537 456.12C936.353 456.12 935.281 455.848 934.321 455.304C933.361 454.76 932.609 454 932.065 453.024C931.521 452.048 931.249 450.936 931.249 449.688C931.249 448.44 931.521 447.328 932.065 446.352C932.609 445.376 933.361 444.624 934.321 444.096C935.281 443.552 936.353 443.28 937.537 443.28C938.561 443.28 939.481 443.496 940.297 443.928C941.129 444.344 941.809 444.96 942.337 445.776V438.192H944.041ZM937.681 454.608C938.561 454.608 939.353 454.408 940.057 454.008C940.777 453.592 941.337 453.008 941.737 452.256C942.153 451.504 942.361 450.648 942.361 449.688C942.361 448.728 942.153 447.872 941.737 447.12C941.337 446.368 940.777 445.792 940.057 445.392C939.353 444.976 938.561 444.768 937.681 444.768C936.785 444.768 935.977 444.976 935.257 445.392C934.553 445.792 933.993 446.368 933.577 447.12C933.177 447.872 932.977 448.728 932.977 449.688C932.977 450.648 933.177 451.504 933.577 452.256C933.993 453.008 934.553 453.592 935.257 454.008C935.977 454.408 936.785 454.608 937.681 454.608ZM960.162 443.376V456H958.53V453.696C958.082 454.464 957.466 455.064 956.682 455.496C955.898 455.912 955.002 456.12 953.994 456.12C952.346 456.12 951.042 455.664 950.082 454.752C949.138 453.824 948.666 452.472 948.666 450.696V443.376H950.37V450.528C950.37 451.856 950.698 452.864 951.354 453.552C952.01 454.24 952.946 454.584 954.162 454.584C955.49 454.584 956.538 454.184 957.306 453.384C958.074 452.568 958.458 451.44 958.458 450V443.376H960.162ZM970.167 456.12C968.919 456.12 967.799 455.848 966.807 455.304C965.831 454.76 965.063 454 964.503 453.024C963.943 452.032 963.663 450.92 963.663 449.688C963.663 448.456 963.943 447.352 964.503 446.376C965.063 445.4 965.831 444.64 966.807 444.096C967.799 443.552 968.919 443.28 970.167 443.28C971.255 443.28 972.223 443.496 973.071 443.928C973.935 444.344 974.615 444.96 975.111 445.776L973.839 446.64C973.423 446.016 972.895 445.552 972.255 445.248C971.615 444.928 970.919 444.768 970.167 444.768C969.255 444.768 968.431 444.976 967.695 445.392C966.975 445.792 966.407 446.368 965.991 447.12C965.591 447.872 965.391 448.728 965.391 449.688C965.391 450.664 965.591 451.528 965.991 452.28C966.407 453.016 966.975 453.592 967.695 454.008C968.431 454.408 969.255 454.608 970.167 454.608C970.919 454.608 971.615 454.456 972.255 454.152C972.895 453.848 973.423 453.384 973.839 452.76L975.111 453.624C974.615 454.44 973.935 455.064 973.071 455.496C972.207 455.912 971.239 456.12 970.167 456.12ZM982.874 443.28C984.522 443.28 985.786 443.696 986.666 444.528C987.546 445.344 987.986 446.56 987.986 448.176V456H986.354V454.032C985.97 454.688 985.402 455.2 984.65 455.568C983.914 455.936 983.034 456.12 982.01 456.12C980.602 456.12 979.482 455.784 978.65 455.112C977.818 454.44 977.402 453.552 977.402 452.448C977.402 451.376 977.786 450.512 978.554 449.856C979.338 449.2 980.578 448.872 982.274 448.872H986.282V448.104C986.282 447.016 985.978 446.192 985.37 445.632C984.762 445.056 983.874 444.768 982.706 444.768C981.906 444.768 981.138 444.904 980.402 445.176C979.666 445.432 979.034 445.792 978.506 446.256L977.738 444.984C978.378 444.44 979.146 444.024 980.042 443.736C980.938 443.432 981.882 443.28 982.874 443.28ZM982.274 454.776C983.234 454.776 984.058 454.56 984.746 454.128C985.434 453.68 985.946 453.04 986.282 452.208V450.144H982.322C980.162 450.144 979.082 450.896 979.082 452.4C979.082 453.136 979.362 453.72 979.922 454.152C980.482 454.568 981.266 454.776 982.274 454.776ZM999.262 455.232C998.942 455.52 998.542 455.744 998.062 455.904C997.598 456.048 997.11 456.12 996.598 456.12C995.414 456.12 994.502 455.8 993.862 455.16C993.222 454.52 992.902 453.616 992.902 452.448V444.816H990.646V443.376H992.902V440.616H994.606V443.376H998.446V444.816H994.606V452.352C994.606 453.104 994.79 453.68 995.158 454.08C995.542 454.464 996.086 454.656 996.79 454.656C997.142 454.656 997.478 454.6 997.798 454.488C998.134 454.376 998.422 454.216 998.662 454.008L999.262 455.232ZM1002.36 443.376H1004.07V456H1002.36V443.376ZM1003.23 440.616C1002.88 440.616 1002.58 440.496 1002.34 440.256C1002.1 440.016 1001.98 439.728 1001.98 439.392C1001.98 439.072 1002.1 438.792 1002.34 438.552C1002.58 438.312 1002.88 438.192 1003.23 438.192C1003.58 438.192 1003.88 438.312 1004.12 438.552C1004.36 438.776 1004.48 439.048 1004.48 439.368C1004.48 439.72 1004.36 440.016 1004.12 440.256C1003.88 440.496 1003.58 440.616 1003.23 440.616ZM1013.97 456.12C1012.75 456.12 1011.66 455.848 1010.68 455.304C1009.71 454.744 1008.94 453.976 1008.38 453C1007.82 452.024 1007.54 450.92 1007.54 449.688C1007.54 448.456 1007.82 447.352 1008.38 446.376C1008.94 445.4 1009.71 444.64 1010.68 444.096C1011.66 443.552 1012.75 443.28 1013.97 443.28C1015.19 443.28 1016.28 443.552 1017.26 444.096C1018.23 444.64 1018.99 445.4 1019.54 446.376C1020.1 447.352 1020.38 448.456 1020.38 449.688C1020.38 450.92 1020.1 452.024 1019.54 453C1018.99 453.976 1018.23 454.744 1017.26 455.304C1016.28 455.848 1015.19 456.12 1013.97 456.12ZM1013.97 454.608C1014.87 454.608 1015.67 454.408 1016.37 454.008C1017.09 453.592 1017.65 453.008 1018.05 452.256C1018.45 451.504 1018.65 450.648 1018.65 449.688C1018.65 448.728 1018.45 447.872 1018.05 447.12C1017.65 446.368 1017.09 445.792 1016.37 445.392C1015.67 444.976 1014.87 444.768 1013.97 444.768C1013.07 444.768 1012.27 444.976 1011.55 445.392C1010.84 445.792 1010.28 446.368 1009.87 447.12C1009.47 447.872 1009.27 448.728 1009.27 449.688C1009.27 450.648 1009.47 451.504 1009.87 452.256C1010.28 453.008 1010.84 453.592 1011.55 454.008C1012.27 454.408 1013.07 454.608 1013.97 454.608ZM1030.29 443.28C1031.87 443.28 1033.13 443.744 1034.06 444.672C1035 445.584 1035.47 446.92 1035.47 448.68V456H1033.77V448.848C1033.77 447.536 1033.44 446.536 1032.78 445.848C1032.13 445.16 1031.19 444.816 1029.98 444.816C1028.62 444.816 1027.54 445.224 1026.74 446.04C1025.95 446.84 1025.56 447.952 1025.56 449.376V456H1023.86V443.376H1025.49V445.704C1025.95 444.936 1026.59 444.344 1027.41 443.928C1028.24 443.496 1029.2 443.28 1030.29 443.28Z" fill="#F2F2F2"/>
</g>
<defs>
<filter id="filter0_di" x="-0.381226" y="20.8379" width="356.762" height="314.324" filterUnits="userSpaceOnUse" color-interpolation-filters="sRGB">
<feFlood flood-opacity="0" result="BackgroundImageFix"/>
<feColorMatrix in="SourceAlpha" type="matrix" values="0 0 0 0 0 0 0 0 0 0 0 0 0 0 0 0 0 0 127 0"/>
<feOffset/>
<feGaussianBlur stdDeviation="8"/>
<feColorMatrix type="matrix" values="0 0 0 0 0 0 0 0 0 0 0 0 0 0 0 0 0 0 1 0"/>
<feBlend mode="normal" in2="BackgroundImageFix" result="effect1_dropShadow"/>
<feBlend mode="normal" in="SourceGraphic" in2="effect1_dropShadow" result="shape"/>
<feColorMatrix in="SourceAlpha" type="matrix" values="0 0 0 0 0 0 0 0 0 0 0 0 0 0 0 0 0 0 127 0" result="hardAlpha"/>
<feOffset dx="1" dy="1"/>
<feComposite in2="hardAlpha" operator="arithmetic" k2="-1" k3="1"/>
<feColorMatrix type="matrix" values="0 0 0 0 0.2 0 0 0 0 0.2 0 0 0 0 0.2 0 0 0 1 0"/>
<feBlend mode="normal" in2="shape" result="effect2_innerShadow"/>
</filter>
<filter id="filter1_di" x="265.619" y="181.838" width="356.762" height="314.324" filterUnits="userSpaceOnUse" color-interpolation-filters="sRGB">
<feFlood flood-opacity="0" result="BackgroundImageFix"/>
<feColorMatrix in="SourceAlpha" type="matrix" values="0 0 0 0 0 0 0 0 0 0 0 0 0 0 0 0 0 0 127 0"/>
<feOffset/>
<feGaussianBlur stdDeviation="8"/>
<feColorMatrix type="matrix" values="0 0 0 0 0 0 0 0 0 0 0 0 0 0 0 0 0 0 1 0"/>
<feBlend mode="normal" in2="BackgroundImageFix" result="effect1_dropShadow"/>
<feBlend mode="normal" in="SourceGraphic" in2="effect1_dropShadow" result="shape"/>
<feColorMatrix in="SourceAlpha" type="matrix" values="0 0 0 0 0 0 0 0 0 0 0 0 0 0 0 0 0 0 127 0" result="hardAlpha"/>
<feOffset dx="1" dy="1"/>
<feComposite in2="hardAlpha" operator="arithmetic" k2="-1" k3="1"/>
<feColorMatrix type="matrix" values="0 0 0 0 0.2 0 0 0 0 0.2 0 0 0 0 0.2 0 0 0 1 0"/>
<feBlend mode="normal" in2="shape" result="effect2_innerShadow"/>
</filter>
<filter id="filter2_di" x="531.619" y="32.8379" width="356.762" height="314.324" filterUnits="userSpaceOnUse" color-interpolation-filters="sRGB">
<feFlood flood-opacity="0" result="BackgroundImageFix"/>
<feColorMatrix in="SourceAlpha" type="matrix" values="0 0 0 0 0 0 0 0 0 0 0 0 0 0 0 0 0 0 127 0"/>
<feOffset/>
<feGaussianBlur stdDeviation="8"/>
<feColorMatrix type="matrix" values="0 0 0 0 0 0 0 0 0 0 0 0 0 0 0 0 0 0 1 0"/>
<feBlend mode="normal" in2="BackgroundImageFix" result="effect1_dropShadow"/>
<feBlend mode="normal" in="SourceGraphic" in2="effect1_dropShadow" result="shape"/>
<feColorMatrix in="SourceAlpha" type="matrix" values="0 0 0 0 0 0 0 0 0 0 0 0 0 0 0 0 0 0 127 0" result="hardAlpha"/>
<feOffset dx="1" dy="1"/>
<feComposite in2="hardAlpha" operator="arithmetic" k2="-1" k3="1"/>
<feColorMatrix type="matrix" values="0 0 0 0 0.2 0 0 0 0 0.2 0 0 0 0 0.2 0 0 0 1 0"/>
<feBlend mode="normal" in2="shape" result="effect2_innerShadow"/>
</filter>
<filter id="filter3_di" x="797.619" y="187.838" width="356.762" height="314.324" filterUnits="userSpaceOnUse" color-interpolation-filters="sRGB">
<feFlood flood-opacity="0" result="BackgroundImageFix"/>
<feColorMatrix in="SourceAlpha" type="matrix" values="0 0 0 0 0 0 0 0 0 0 0 0 0 0 0 0 0 0 127 0"/>
<feOffset/>
<feGaussianBlur stdDeviation="8"/>
<feColorMatrix type="matrix" values="0 0 0 0 0 0 0 0 0 0 0 0 0 0 0 0 0 0 1 0"/>
<feBlend mode="normal" in2="BackgroundImageFix" result="effect1_dropShadow"/>
<feBlend mode="normal" in="SourceGraphic" in2="effect1_dropShadow" result="shape"/>
<feColorMatrix in="SourceAlpha" type="matrix" values="0 0 0 0 0 0 0 0 0 0 0 0 0 0 0 0 0 0 127 0" result="hardAlpha"/>
<feOffset dx="1" dy="1"/>
<feComposite in2="hardAlpha" operator="arithmetic" k2="-1" k3="1"/>
<feColorMatrix type="matrix" values="0 0 0 0 0.2 0 0 0 0 0.2 0 0 0 0 0.2 0 0 0 1 0"/>
<feBlend mode="normal" in2="shape" result="effect2_innerShadow"/>
</filter>
<clipPath id="clip0">
<rect width="356" height="356" fill="white"/>
</clipPath>
<clipPath id="clip1">
<rect width="356" height="356" fill="white" transform="translate(266 161)"/>
</clipPath>
<clipPath id="clip2">
<rect width="356" height="356" fill="white" transform="translate(532 12)"/>
</clipPath>
<clipPath id="clip3">
<rect width="356" height="356" fill="white" transform="translate(798 167)"/>
</clipPath>
</defs>
</svg>
