<svg width="335" height="224" viewBox="0 0 335 224" fill="none" xmlns="http://www.w3.org/2000/svg">
<path d="M131.337 41.8132C132.803 41.8357 134.123 42.5981 134.801 43.8132L172.33 111.056C173.008 112.271 172.941 113.754 172.154 114.947L128.588 180.946C127.801 182.139 126.413 182.86 124.948 182.837L43.8545 181.594C42.3891 181.572 41.0686 180.809 40.3904 179.594L2.8621 112.351C2.18393 111.136 2.25113 109.653 3.03839 108.46L46.6035 42.4608C47.3908 41.2681 48.7785 40.5472 50.2439 40.5697L131.337 41.8132Z" fill="#FF9900"/>
<path d="M311.859 139.968L329 111.975L311.859 83.9814" stroke="#ADCA00" stroke-width="12" stroke-linecap="round" stroke-linejoin="round"/>
<path fill-rule="evenodd" clip-rule="evenodd" d="M113 106.35L108 108.9V127C105.483 132.102 93.985 134.5 86.75 134.5C78.8125 134.5 68.2775 132.015 65.5 127V107.51L58 102.77L88 89.5L115.5 105.077V127L118 134.5H110.5L113 127V106.35ZM68 109.088V126.27C70.395 129.47 78.5425 132 86.75 132C93.985 132 103.222 129.603 105.5 126.328V110.173L85.6925 120.27L68 109.088ZM63.2975 103.16L85.825 117.395L110.222 104.96L87.8625 92.295L63.2975 103.16V103.16Z" fill="#111111"/>
</svg>
