<?xml version="1.0" encoding="UTF-8"?>
<svg width="616px" height="92px" viewBox="0 0 616 92" version="1.1" xmlns="http://www.w3.org/2000/svg" xmlns:xlink="http://www.w3.org/1999/xlink">
    <title>FuturMakr Black</title>
    <g id="Page-1" stroke="none" stroke-width="1" fill="none" fill-rule="evenodd">
        <g id="FuturMakr-Black">
            <g id="Dark@3x" transform="translate(6.000000, 13.000000)" fill="#000000" fill-rule="nonzero">
                <polygon id="Path" points="99.5458333 18.1085748 99.5458333 31.465695 116.891667 31.465695 116.891667 34.5742699 99.5458333 34.5742699 99.5458333 49 96 49 96 15 119 15 119 18.1085748"></polygon>
                <path d="M140.525217,49 C135.952528,49 132.388535,47.747874 129.833043,45.243622 C127.277746,42.7393699 126,39.0954239 126,34.3115987 L126,15 L129.732174,15 L129.732174,34.1671226 C129.732174,38.0840914 130.656876,41.005657 132.506087,42.9320047 C134.355492,44.8583524 137.028535,45.8215263 140.525217,45.8215263 C144.055652,45.8215263 146.745572,44.8583524 148.594783,42.9320047 C150.444187,41.005657 151.368696,38.0840914 151.368696,34.1671226 L151.368696,15 L155,15 L155,34.3115987 C155,39.0954239 153.722448,42.7393699 151.166957,45.243622 C148.645217,47.747874 145.0981,49 140.525217,49 Z" id="Path"></path>
                <polygon id="Path" points="171.734982 18.1085748 160 18.1085748 160 15 187 15 187 18.1085748 175.265018 18.1085748 175.265018 49 171.734982 49"></polygon>
                <path d="M205.525217,49 C200.95311,49 197.389699,47.747874 194.833043,45.243622 C192.278328,42.7393699 191,39.0954239 191,34.3115987 L191,15 L194.732174,15 L194.732174,34.1671226 C194.732174,38.0840914 195.657458,41.005657 197.506087,42.9320047 C199.356656,44.8583524 202.029699,45.8215263 205.525217,45.8215263 C209.055652,45.8215263 211.746154,44.8583524 213.594783,42.9320047 C215.445351,41.005657 216.368696,38.0840914 216.368696,34.1671226 L216.368696,15 L220,15 L220,34.3115987 C220,39.0954239 218.723612,42.7393699 216.166957,45.243622 C213.645217,47.747874 210.099264,49 205.525217,49 Z" id="Path"></path>
                <path d="M253.087657,49 L245.359571,38.0714166 C244.490161,38.1685595 243.58917,38.217131 242.654741,38.217131 L233.57424,38.217131 L233.57424,49 L230,49 L230,15 L242.654741,15 C246.970208,15 250.351245,16.0361978 252.797853,18.1085748 C255.246319,20.1810453 256.468694,23.0305099 256.468694,26.6571183 C256.468694,29.3124839 255.792487,31.562838 254.440072,33.4085543 C253.121095,35.2219519 251.220655,36.5333819 248.740608,37.3428443 L257,49 L253.087657,49 Z M242.55814,35.1571276 C245.907596,35.1571276 248.467524,34.4124895 250.237925,32.9228395 C252.010183,31.4333763 252.894454,29.3448026 252.894454,26.6571183 C252.894454,23.9047966 252.010183,21.7999701 250.237925,20.3428257 C248.467524,18.8533438 245.907596,18.1085748 242.55814,18.1085748 L233.57424,18.1085748 L233.57424,35.1571276 L242.55814,35.1571276 Z" id="Shape"></path>
                <polygon id="Path" points="302 15 302 49 298.581843 49 298.581843 21.7999701 285.342503 44.6771381 283.657497 44.6771381 270.418157 21.9456846 270.418157 49 267 49 267 15 269.936726 15 284.572215 40.2085618 299.063274 15"></polygon>
                <path d="M334.047686,39.9171329 L314.903226,39.9171329 L310.779804,49 L307,49 L322.708275,15 L326.291725,15 L342,49 L338.171108,49 L334.047686,39.9171329 Z M332.7223,37.002844 L324.475456,18.7400041 L316.228612,37.002844 L332.7223,37.002844 Z" id="Shape"></path>
                <polygon id="Path" points="357.648054 32.0199824 350.631134 39.0628473 350.631134 48 347 48 347 14 350.631134 14 350.631134 34.5456995 370.798646 14 374.969543 14 360.101523 29.3971224 376 48 371.681895 48"></polygon>
                <path d="M406.087657,49 L398.359571,38.0714166 C397.490161,38.1685595 396.58917,38.217131 395.654741,38.217131 L386.57424,38.217131 L386.57424,49 L383,49 L383,15 L395.654741,15 C399.970208,15 403.351245,16.0361978 405.797853,18.1085748 C408.246319,20.1810453 409.468694,23.0305099 409.468694,26.6571183 C409.468694,29.3124839 408.792487,31.562838 407.440072,33.4085543 C406.121095,35.2219519 404.220655,36.5333819 401.740608,37.3428443 L410,49 L406.087657,49 Z M395.55814,35.1571276 C398.907596,35.1571276 401.467524,34.4124895 403.237925,32.9228395 C405.010183,31.4333763 405.894454,29.3448026 405.894454,26.6571183 C405.894454,23.9047966 405.010183,21.7999701 403.237925,20.3428257 C401.467524,18.8533438 398.907596,18.1085748 395.55814,18.1085748 L386.57424,18.1085748 L386.57424,35.1571276 L395.55814,35.1571276 Z" id="Shape"></path>
                <path d="M433.330948,50 C430.722719,50 428.194372,49.6273769 425.747764,48.8819438 C423.332737,48.1365108 421.417435,47.1482089 420,45.9166645 L422.173524,41.0069396 C423.55752,42.1087298 425.248039,43.0162623 427.245081,43.7291633 C429.273703,44.4097192 431.302326,44.7499972 433.330948,44.7499972 C435.842576,44.7499972 437.709578,44.3448421 438.93381,43.5347188 C440.189624,42.7245955 440.817531,41.6551505 440.817531,40.3263837 C440.817531,39.354161 440.462708,38.5601168 439.754919,37.944438 C439.078712,37.2962272 438.209302,36.7940367 437.146691,36.4374928 C436.084079,36.0809488 434.635063,35.6759806 432.799642,35.2222143 C430.222994,34.6065356 428.13121,33.9906699 426.520572,33.3749911 C424.943374,32.7593124 423.57424,31.8031687 422.415027,30.506934 C421.287395,29.1781673 420.724508,27.3958213 420.724508,25.159709 C420.724508,23.2801406 421.224233,21.5787508 422.221825,20.0555396 C423.252855,18.5 424.781753,17.2685322 426.810376,16.3611118 C428.870579,15.4537102 431.382207,15 434.345259,15 C436.405463,15 438.434086,15.2592656 440.431127,15.7777969 C442.428168,16.2963095 444.150268,17.0416865 445.599284,18.0139092 L443.618962,22.9235966 C442.138365,22.0485962 440.592748,21.3843063 438.982111,20.93054 C437.371474,20.4767738 435.810995,20.2499841 434.296959,20.2499841 C431.816912,20.2499841 429.96663,20.6712183 428.742397,21.5138737 C427.551603,22.356529 426.955277,23.4745852 426.955277,24.8680421 C426.955277,25.8402649 427.293381,26.6343091 427.969589,27.2499878 C428.677377,27.8656666 429.563506,28.351778 430.626118,28.708322 C431.68873,29.064866 433.137746,29.4698341 434.973166,29.9236004 C437.484794,30.506934 439.544998,31.1226128 441.155635,31.7708236 C442.766272,32.3865023 444.133549,33.342646 445.261181,34.6388807 C446.420394,35.9351153 447,37.6851163 447,39.8888835 C447,41.7684518 446.485414,43.4698416 445.454383,44.9930529 C444.456791,46.5162642 442.926036,47.7315426 440.865832,48.6388882 C438.805628,49.5462337 436.294,50 433.330948,50 Z" id="Path"></path>
                <polygon id="Path" points="460.326599 20.3428414 449 20.3428414 449 15 478 15 478 20.3428414 466.673401 20.3428414 466.673401 49 460.326599 49"></polygon>
                <path d="M496.02447,50 C491.294265,50 487.606852,48.6690134 484.964111,46.0070401 C482.32137,43.3122661 481,39.4671936 481,34.4718226 L481,15 L487.362153,15 L487.362153,34.2253436 C487.362153,40.9953635 490.266533,44.3802786 496.073409,44.3802786 C501.848287,44.3802786 504.735726,40.9953635 504.735726,34.2253436 L504.735726,15 L511,15 L511,34.4718226 C511,39.4671936 509.67863,43.3122661 507.035889,46.0070401 C504.42703,48.6690134 500.756557,50 496.02447,50 Z" id="Path"></path>
                <path d="M520,15 L535.122093,15 C538.811382,15 542.090116,15.7123938 544.956395,17.137144 C547.822674,18.5295382 550.046512,20.5208745 551.627907,23.1114143 C553.209302,25.6694487 554,28.6323075 554,32 C554,35.3676738 553.209302,38.3465985 551.627907,40.9371384 C550.046512,43.4951728 547.822674,45.4866025 544.956395,46.9114274 C542.090116,48.3037469 538.811382,49 535.122093,49 L520,49 L520,15 Z M534.825581,43.6571399 C537.361136,43.6571399 539.584973,43.1876781 541.497093,42.2485677 C543.439624,41.2771386 544.922182,39.9171379 545.944767,38.1685655 C546.997764,36.3876744 547.526163,34.3314205 547.526163,31.9999907 C547.526163,29.6685608 546.997764,27.6285597 545.944767,25.8799873 C544.922182,24.0990962 543.439624,22.7390955 541.497093,21.7999851 C539.584973,20.8285559 537.361136,20.3428414 534.825581,20.3428414 L526.424419,20.3428414 L526.424419,43.6571399 L534.825581,43.6571399 Z" id="Shape"></path>
                <polygon id="Path" points="560 15 567 15 567 49 560 49"></polygon>
                <path d="M592,50 C588.593552,50 585.523159,49.2545669 582.785146,47.7638877 C580.047133,46.2406764 577.898592,44.1503975 576.339523,41.493051 C574.780453,38.8031724 574,35.805548 574,32.5 C574,29.1944333 574.780453,26.2128879 576.339523,23.5555414 C577.898592,20.8656629 580.047133,18.7754774 582.785146,17.2847234 C585.523159,15.7615869 588.593552,15 592,15 C595.406448,15 598.476841,15.7615869 601.214854,17.2847234 C603.952867,18.7754774 606.101408,20.8495838 607.660477,23.5069303 C609.219547,26.1642768 610,29.1620882 610,32.5 C610,35.8378931 609.219547,38.8357045 607.660477,41.493051 C606.101408,44.1503975 603.952867,46.2406764 601.214854,47.7638877 C598.476841,49.2545669 595.406448,50 592,50 Z M592,44.4583304 C594.227505,44.4583304 596.23281,43.955953 598.015915,42.9513851 C599.799021,41.9142852 601.198327,40.4884832 602.217507,38.6736051 C603.236686,36.8263819 603.745358,34.7684481 603.745358,32.4999907 C603.745358,30.2315332 603.236686,28.1898655 602.217507,26.3749874 C601.198327,24.5277642 599.799021,23.1017752 598.015915,22.0972073 C596.23281,21.0601074 594.227505,20.5416509 592,20.5416509 C589.772495,20.5416509 587.76719,21.0601074 585.984085,22.0972073 C584.200979,23.1017752 582.801673,24.5277642 581.782493,26.3749874 C580.763314,28.1898655 580.254642,30.2315332 580.254642,32.4999907 C580.254642,34.7684481 580.763314,36.8263819 581.782493,38.6736051 C582.801673,40.4884832 584.200979,41.9142852 585.984085,42.9513851 C587.76719,43.955953 589.772495,44.4583304 592,44.4583304 Z" id="Shape"></path>
            </g>
            <g id="Group">
                <polygon id="Polygon-Copy-12" fill="#000000" points="44.352 0.924 82.7619587 23.562 82.7619587 68.838 44.352 91.476 5.94204129 68.838 5.94204129 23.562"></polygon>
                <line x1="82.005" y1="67.683" x2="45.045" y2="46.431" id="Line"></line>
                <line x1="45.045" y1="5.313" x2="45.016125" y2="46.575375" id="Line"></line>
                <line x1="7.161" y1="68.145" x2="45.045" y2="46.431" id="Line"></line>
                <line x1="7.161" y1="24.255" x2="45.045" y2="46.431" id="Line" stroke="#FFFFFF" stroke-width="3.234" stroke-linecap="square"></line>
                <line x1="45.073875" y1="88.328625" x2="45.016125" y2="46.575375" id="Line" stroke="#FFFFFF" stroke-width="3.234" stroke-linecap="square"></line>
                <line x1="82.005" y1="24.255" x2="45.045" y2="46.431" id="Line" stroke="#FFFFFF" stroke-width="3.234" stroke-linecap="square"></line>
                <path d="M65.8528981,7.41110926 L65.8528981,5.544 L24.2371019,5.544 C22.6808985,5.544 21.2452041,6.37333003 20.4671024,7.72229414 L-0.34079565,43.7914503 C-0.729102628,44.4644435 -0.924,45.2178384 -0.924,45.9682555 C-0.924,46.7201616 -0.729102628,47.4750455 -0.34079565,48.1480386 L20.4671024,84.2157059 C21.2452041,85.5661589 22.6823863,86.394 24.2371019,86.394 L65.8528981,86.394 C67.4076137,86.394 68.8462836,85.5661589 69.6243854,84.2142169 L90.4307957,48.1480386 C90.8191026,47.4750455 91.014,46.7201616 91.014,45.9682555 C91.014,45.2178384 90.8191026,44.4644435 90.4307957,43.7914503 L69.6243854,7.72229414 C68.8462836,6.37333003 67.4091015,5.544 65.8528981,5.544 L65.8528981,7.41110926 L65.8528981,9.27821852 C66.0745752,9.27821852 66.2813747,9.39882127 66.3914694,9.59089232 L87.1978797,45.6585596 L87.2811946,45.9682555 L87.1978797,46.2809293 L66.3914694,82.3485966 C66.2813747,82.5406676 66.0745752,82.6597815 65.8528981,82.6597815 L24.2371019,82.6597815 C24.0154248,82.6597815 23.8086253,82.5406676 23.7000184,82.3485966 L2.8921203,46.2809293 L2.80880539,45.9682555 L2.8921203,45.6585596 L23.6985306,9.5894034 C23.8086253,9.39882127 24.0154248,9.27821852 24.2371019,9.27821852 L65.8528981,9.27821852 L65.8528981,7.41110926 Z" id="Fill-39" fill="#FFFFFF" transform="translate(45.045000, 45.969000) rotate(90.000000) translate(-45.045000, -45.969000) "></path>
            </g>
        </g>
    </g>
</svg>