<svg width="212" height="34" viewBox="0 0 212 34" fill="none" xmlns="http://www.w3.org/2000/svg">
<path fill-rule="evenodd" clip-rule="evenodd" d="M66.1265 9.09595L61.2943 24.6136L56.4112 9.09595H54.3771L49.5454 24.6136L44.6618 9.09595H42.4746L48.4254 26.9026H50.5118L55.3687 11.8176L60.1753 26.9026H62.2608L68.2372 9.09595H66.1265Z" fill="white"/>
<path fill-rule="evenodd" clip-rule="evenodd" d="M104.085 9.09595V23.57L93.5769 9.09595H91.5V26.9026H93.5012V12.4542L104.01 26.9026H106.061V9.09595H104.085Z" fill="white"/>
<mask id="mask0" mask-type="alpha" maskUnits="userSpaceOnUse" x="108" y="8" width="17" height="19">
<path d="M124.832 26.9024H108.521V8.73486H124.832V26.9024Z" fill="white"/>
</mask>
<g mask="url(#mask0)">
<path fill-rule="evenodd" clip-rule="evenodd" d="M122.777 17.8449C122.777 13.7442 119.632 10.6559 115.649 10.6559H110.55V24.9814H115.725C119.682 24.9814 122.777 21.9189 122.777 17.8449ZM124.832 17.8187C124.832 22.9832 120.85 26.9025 115.624 26.9025H108.521V8.73486H115.7C120.875 8.73486 124.832 12.6541 124.832 17.8187Z" fill="white"/>
</g>
<path fill-rule="evenodd" clip-rule="evenodd" d="M133.348 19.2207C136.569 19.2207 138.395 17.7411 138.395 14.8857C138.395 12.1093 136.569 10.6559 133.348 10.6559H128.629V19.2207H133.348ZM138.218 26.9025L134.489 21.0893C134.133 21.1146 133.753 21.1407 133.348 21.1407H128.629V26.9025H126.6V8.73486H133.348C137.787 8.73486 140.348 10.9669 140.348 14.8337C140.348 17.8187 138.903 19.8693 136.34 20.6998L140.526 26.9025H138.218Z" fill="white"/>
<path fill-rule="evenodd" clip-rule="evenodd" d="M145.254 8.73486L151.748 21.9194L158.217 8.73486H160.704V26.9025H158.826L158.8 11.7979L152.332 24.9814H151.114L144.671 11.7979V26.9025H142.742V8.73486H145.254Z" fill="white"/>
<path fill-rule="evenodd" clip-rule="evenodd" d="M175.354 20.3364L171.321 10.9931L167.337 20.3364H175.354ZM176.165 22.2565H166.5L164.52 26.9025H162.365L170.331 8.73486H172.437L180.376 26.9025H178.17L176.165 22.2565Z" fill="white"/>
<path fill-rule="evenodd" clip-rule="evenodd" d="M193.777 26.9025L187.232 18.2606L183.782 22.1532V26.9025H181.752V8.73486H183.782V19.2978L193.32 8.73486H195.73L188.678 16.651L196.263 26.9025H193.777Z" fill="white"/>
<mask id="mask1" mask-type="alpha" maskUnits="userSpaceOnUse" x="198" y="8" width="14" height="19">
<path d="M205.033 26.9025H211.996V8.73486H198.069V26.9025H205.033Z" fill="white"/>
</mask>
<g mask="url(#mask1)">
<path fill-rule="evenodd" clip-rule="evenodd" d="M204.818 19.2207C208.039 19.2207 209.866 17.7411 209.866 14.8857C209.866 12.1093 208.039 10.6559 204.818 10.6559H200.099V19.2207H204.818ZM209.688 26.9025L205.959 21.0893C205.604 21.1146 205.223 21.1408 204.818 21.1408H200.099V26.9025H198.069V8.73486H204.818C209.257 8.73486 211.819 10.9669 211.819 14.8337C211.819 17.8187 210.373 19.8693 207.81 20.6998L211.997 26.9025H209.688Z" fill="white"/>
</g>
<path fill-rule="evenodd" clip-rule="evenodd" d="M82.79 24.7063H74.6635L70.5997 17.5062L74.6635 10.3056H82.79L86.8532 17.5062L82.79 24.7063ZM83.8308 8.46167H73.6226L68.5186 17.5062L73.6226 26.5507H83.8308L88.9349 17.5062L83.8308 8.46167Z" fill="white"/>
<path fill-rule="evenodd" clip-rule="evenodd" d="M15.3352 0H9.64471C9.43197 0 9.23527 0.119641 9.12877 0.314232H9.12904L6.28378 5.51655C6.23066 5.6137 6.20384 5.72252 6.2041 5.83078C6.20384 5.93904 6.23066 6.04785 6.28378 6.14501L9.12904 11.3473C9.23527 11.5419 9.43197 11.6616 9.64471 11.6616H15.3352C15.5477 11.6616 15.7444 11.5419 15.8509 11.3473L18.6961 6.14501C18.7493 6.04785 18.7758 5.93904 18.7758 5.83078C18.7758 5.72224 18.7493 5.6137 18.6961 5.51655L15.8509 0.314232C15.7444 0.119641 15.5477 0 15.3352 0ZM9.64471 11.1228C9.6142 11.1228 9.58607 11.1055 9.57108 11.0781L6.72582 5.87575L6.71425 5.83078L6.72582 5.78609L9.57081 0.583772L9.57108 0.583494C9.58607 0.556013 9.6142 0.538802 9.64471 0.538802H15.3352C15.3657 0.538802 15.3939 0.556013 15.4088 0.583494V0.583772L18.2541 5.78581L18.2654 5.83078L18.2541 5.87575L15.4088 11.0781C15.3939 11.1055 15.3657 11.1228 15.3352 11.1228H9.64471Z" fill="white"/>
<path fill-rule="evenodd" clip-rule="evenodd" d="M21.3658 0.269263V4.80884e-07H15.6752C15.4625 4.80884e-07 15.2658 0.119364 15.1593 0.314232L15.1435 0.343379L12.3141 5.51627C12.2609 5.61343 12.2344 5.72224 12.2344 5.83078C12.2344 5.93904 12.2609 6.04786 12.3141 6.14501L15.1596 11.3473C15.2658 11.5419 15.4625 11.6616 15.6752 11.6616H21.3658C21.5785 11.6616 21.7749 11.5416 21.8814 11.347L24.7267 6.14501C24.7798 6.04786 24.8064 5.93904 24.8064 5.83078C24.8064 5.72224 24.7798 5.61343 24.7267 5.51655L21.8812 0.314232H21.8814C21.7749 0.119642 21.5785 -0.000277109 21.3658 4.80884e-07V0.269263V0.538525C21.3963 0.538803 21.4239 0.555736 21.4391 0.583495H21.4394L24.2846 5.78581L24.2959 5.83078L24.2846 5.87547L21.4394 11.0778C21.4239 11.1058 21.3963 11.1228 21.3658 11.1228H15.6752C15.6447 11.1228 15.6166 11.1055 15.6016 11.0778L12.7561 5.87547L12.7448 5.83078L12.7561 5.78581L15.6013 0.583495H15.6016C15.6166 0.555736 15.6447 0.538525 15.6752 0.538525H21.3658V0.269263Z" fill="white"/>
<path fill-rule="evenodd" clip-rule="evenodd" d="M27.3967 0.269263V4.80884e-07H21.7062C21.4935 -0.000277109 21.2968 0.119642 21.1906 0.314232L18.3453 5.51627C18.2922 5.61343 18.2656 5.72224 18.2656 5.83078C18.2656 5.93904 18.2922 6.04786 18.3453 6.14501L21.1906 11.3473C21.2968 11.5416 21.4935 11.6616 21.7062 11.6616H27.3967C27.6092 11.6616 27.8059 11.5419 27.9124 11.347L30.7579 6.14501C30.811 6.04786 30.8376 5.93904 30.8376 5.83078C30.8376 5.72224 30.811 5.61343 30.7579 5.51655L27.9124 0.314232C27.8059 0.119364 27.6092 4.80884e-07 27.3967 4.80884e-07V0.269263V0.538525C27.4272 0.538525 27.4554 0.555736 27.4704 0.583495L30.3159 5.78581L30.3272 5.83078L30.3159 5.87547L27.4704 11.0778C27.4554 11.1055 27.4272 11.1228 27.3967 11.1228H21.7062C21.6757 11.1228 21.6481 11.1058 21.6326 11.0778L18.7873 5.87547L18.776 5.83078L18.7873 5.78581L21.6326 0.583495C21.6481 0.555736 21.6757 0.538803 21.7062 0.538525H27.3967V0.269263Z" fill="white"/>
<path fill-rule="evenodd" clip-rule="evenodd" d="M12.2268 5.80662V5.53735H6.53631C6.32357 5.53735 6.12714 5.65699 6.02064 5.85159L3.17538 11.0536C3.12226 11.1511 3.0957 11.2599 3.0957 11.3681C3.0957 11.4764 3.12226 11.5852 3.17538 11.6824L6.02064 16.8847C6.12714 17.0793 6.32357 17.1989 6.53631 17.1989H12.2268C12.4396 17.1989 12.636 17.0793 12.7425 16.8847L15.5877 11.6824C15.6409 11.5852 15.6674 11.4764 15.6674 11.3681C15.6674 11.2596 15.6409 11.1511 15.5877 11.0539L12.7425 5.85159C12.636 5.65699 12.4396 5.53735 12.2268 5.53735V5.80662V6.07588C12.2571 6.07588 12.2855 6.09337 12.3004 6.12085L15.1457 11.3232L15.157 11.3681L15.1457 11.4128L12.3004 16.6154C12.2855 16.6429 12.2571 16.6601 12.2268 16.6601H6.53631C6.50607 16.6601 6.47767 16.6429 6.46241 16.6151L3.61742 11.4128L3.60611 11.3681L3.61742 11.3232L6.46241 6.12085C6.47767 6.09337 6.50607 6.07588 6.53631 6.07588H12.2268V5.80662Z" fill="white"/>
<path fill-rule="evenodd" clip-rule="evenodd" d="M18.2561 5.80662V5.53735H12.5656C12.3529 5.53735 12.1564 5.65699 12.0499 5.85159L9.20468 11.0536C9.15156 11.1511 9.125 11.2599 9.125 11.3681C9.125 11.4764 9.15156 11.5852 9.20468 11.6824L12.0499 16.8847C12.1564 17.0793 12.3529 17.1989 12.5656 17.1989H18.2561C18.4689 17.1989 18.6653 17.0793 18.7718 16.8847L21.617 11.6824C21.6702 11.5852 21.6967 11.4764 21.6967 11.3681C21.6967 11.2596 21.6702 11.1511 21.617 11.0539L18.7718 5.85159C18.6653 5.65699 18.4689 5.53735 18.2561 5.53735V5.80662V6.07588C18.2864 6.07588 18.3148 6.09337 18.3297 6.12085L21.175 11.3232L21.1863 11.3681L21.175 11.4128L18.3297 16.6154C18.3148 16.6429 18.2864 16.6601 18.2561 16.6601H12.5656C12.5354 16.6601 12.507 16.6429 12.4917 16.6151L9.64672 11.4128L9.63541 11.3681L9.64672 11.3232L12.4917 6.12085C12.507 6.09337 12.5354 6.07588 12.5656 6.07588H18.2561V5.80662Z" fill="white"/>
<path fill-rule="evenodd" clip-rule="evenodd" d="M24.4761 5.80662V5.53735H18.7856C18.5726 5.53708 18.3762 5.65727 18.2699 5.85159L15.4244 11.0536C15.3713 11.1511 15.3447 11.2599 15.3447 11.3681C15.3447 11.4764 15.3713 11.5852 15.4244 11.6824L18.2699 16.8847C18.3762 17.079 18.5726 17.1989 18.7856 17.1989H24.4761C24.6888 17.1989 24.8853 17.079 24.9915 16.8847L27.837 11.6824C27.8902 11.5852 27.9167 11.4764 27.9167 11.3681C27.9167 11.2596 27.8902 11.1511 27.837 11.0539L24.9915 5.85159C24.8853 5.65727 24.6888 5.53735 24.4761 5.53735V5.80662V6.07588C24.5063 6.07588 24.5345 6.09309 24.5497 6.12085L27.395 11.3232L27.4063 11.3681L27.395 11.4128L24.5497 16.6154C24.5345 16.6432 24.5063 16.6601 24.4761 16.6601H18.7856C18.7548 16.6601 18.7272 16.6432 18.7117 16.6151L15.8664 11.4128L15.8551 11.3681L15.8664 11.3232L18.7117 6.12085C18.7272 6.09309 18.7548 6.07616 18.7856 6.07588H24.4761V5.80662Z" fill="white"/>
<path fill-rule="evenodd" clip-rule="evenodd" d="M30.5051 5.80662V5.53735H24.8146C24.6016 5.53735 24.4055 5.65727 24.299 5.85159L21.4537 11.0536C21.4006 11.1511 21.374 11.2599 21.374 11.3681C21.374 11.4764 21.4006 11.5852 21.4537 11.6824L24.299 16.8847C24.4055 17.079 24.6016 17.1989 24.8146 17.1989H30.5051C30.7179 17.1989 30.9143 17.0793 31.0208 16.8847L33.8663 11.6824C33.9194 11.5852 33.946 11.4764 33.946 11.3681C33.946 11.2596 33.9194 11.1511 33.8663 11.0539L31.0208 5.85159C30.9143 5.65699 30.7179 5.53735 30.5051 5.53735V5.80662V6.07588C30.5354 6.07588 30.5638 6.09337 30.5788 6.12085L33.4243 11.3232L33.4356 11.3681L33.4243 11.4128L30.5788 16.6154C30.5638 16.6429 30.5354 16.6601 30.5051 16.6601H24.8146C24.7844 16.6601 24.7562 16.6432 24.741 16.6151L21.8957 11.4128L21.8844 11.3681L21.8957 11.3232L24.741 6.12085C24.7562 6.09309 24.7844 6.07588 24.8146 6.07588H30.5051V5.80662Z" fill="white"/>
<path fill-rule="evenodd" clip-rule="evenodd" d="M9.13138 11.372V11.1028H3.44087C3.22813 11.1028 3.03143 11.2224 2.92493 11.417L0.0796777 16.6193C0.0265592 16.7165 0 16.8253 0 16.9336C0 17.0421 0.0265592 17.1506 0.0796777 17.2478L2.9252 22.4501C3.03143 22.6447 3.22813 22.7643 3.44087 22.7643H9.13138C9.34411 22.7643 9.54055 22.6444 9.64705 22.4501L12.4923 17.2478C12.5454 17.1506 12.572 17.0421 12.572 16.9336C12.572 16.825 12.5454 16.7165 12.4923 16.6193L9.64678 11.417C9.54081 11.2227 9.34411 11.1028 9.13138 11.1028V11.372V11.6413C9.16162 11.6413 9.18949 11.6585 9.20474 11.6863L12.0503 16.8886L12.0616 16.9336L12.0503 16.9785L9.20501 22.1808C9.18949 22.2086 9.16188 22.2255 9.13138 22.2255H3.44087C3.41036 22.2255 3.38222 22.2083 3.36724 22.1808L0.521718 16.9785L0.51041 16.9336L0.521718 16.8889L3.36697 11.6866C3.38222 11.6585 3.41062 11.6413 3.44087 11.6413H9.13138V11.372Z" fill="white"/>
<path fill-rule="evenodd" clip-rule="evenodd" d="M15.3518 11.372V11.1028H9.66131C9.44831 11.1028 9.25187 11.2227 9.14564 11.417L6.30038 16.6193C6.24726 16.7165 6.2207 16.8253 6.2207 16.9336C6.2207 17.0421 6.24726 17.1506 6.30038 17.2478L9.14564 22.4501C9.25187 22.6444 9.44857 22.7643 9.66131 22.7643H15.3518C15.5646 22.7643 15.7613 22.6447 15.8675 22.4501L18.713 17.2478C18.7661 17.1506 18.7927 17.0421 18.7927 16.9336C18.7927 16.825 18.7661 16.7165 18.713 16.6193L15.8675 11.417C15.7613 11.2227 15.5648 11.1025 15.3518 11.1028V11.372V11.6413C15.3823 11.6416 15.4102 11.6585 15.4254 11.6863L18.271 16.8886L18.2823 16.9336L18.271 16.9785L15.4254 22.1808C15.4102 22.2086 15.3826 22.2255 15.3518 22.2255H9.66131C9.6308 22.2255 9.60293 22.2086 9.58768 22.1808L6.74242 16.9785L6.73111 16.9336L6.74242 16.8889L9.58768 11.6866C9.60319 11.6585 9.63107 11.6413 9.66131 11.6413H15.3518V11.372Z" fill="white"/>
<path fill-rule="evenodd" clip-rule="evenodd" d="M27.3772 11.372V11.1028H21.6867C21.4737 11.1028 21.2775 11.2227 21.171 11.4167V11.417L18.3258 16.6193C18.2727 16.7165 18.2461 16.8253 18.2461 16.9336C18.2461 17.0421 18.2727 17.1506 18.3258 17.2478L21.171 22.4501V22.4504C21.2775 22.6444 21.474 22.7643 21.6867 22.7643H27.3772C27.5897 22.7643 27.7864 22.6447 27.8929 22.4501L30.7384 17.2478C30.7915 17.1506 30.8181 17.0421 30.8181 16.9336C30.8181 16.825 30.7915 16.7165 30.7384 16.6193L27.8929 11.417C27.7866 11.2224 27.5899 11.1028 27.3772 11.1028V11.372V11.6413C27.4074 11.6413 27.4359 11.6585 27.4508 11.6863L30.2964 16.8886L30.3077 16.9336L30.2964 16.9785L27.4508 22.1808C27.4359 22.2083 27.4077 22.2255 27.3772 22.2255H21.6867C21.6562 22.2255 21.6283 22.2086 21.6128 22.1806V22.1808L18.7678 16.9785L18.7565 16.9336L18.7678 16.8889L21.6128 11.6866V11.6868C21.6283 11.6582 21.6565 11.6413 21.6867 11.6413H27.3772V11.372Z" fill="white"/>
<path fill-rule="evenodd" clip-rule="evenodd" d="M33.5989 11.372V11.1028H27.9084C27.6954 11.1028 27.4989 11.2227 27.3927 11.417L24.5475 16.6193C24.4943 16.7165 24.4678 16.8253 24.4678 16.9336C24.4678 17.0421 24.4943 17.1506 24.5475 17.2478L27.3927 22.4501C27.4989 22.6444 27.6956 22.7643 27.9084 22.7643H33.5989C33.8114 22.7643 34.0081 22.6447 34.1146 22.4501L36.9601 17.2478C37.0132 17.1506 37.0398 17.0421 37.0398 16.9336C37.0398 16.825 37.0132 16.7165 36.9601 16.6193L34.1146 11.417C34.0083 11.2224 33.8116 11.1028 33.5989 11.1028V11.372V11.6413C33.6291 11.6413 33.6575 11.6585 33.6725 11.6863L36.518 16.8886L36.5293 16.9336L36.518 16.9785L33.6725 22.1808C33.6575 22.2083 33.6294 22.2255 33.5989 22.2255H27.9084C27.8779 22.2255 27.85 22.2086 27.8347 22.1808L24.9895 16.9785L24.9782 16.9336L24.9895 16.8889L27.8347 11.6866C27.8503 11.6585 27.8781 11.6413 27.9084 11.6413H33.5989V11.372Z" fill="white"/>
<path fill-rule="evenodd" clip-rule="evenodd" d="M12.2486 16.9299V16.6606H6.55805C6.34505 16.6604 6.14862 16.7806 6.04238 16.9749L3.19687 22.1769C3.14375 22.2743 3.11719 22.3832 3.11719 22.4914C3.11719 22.5997 3.14375 22.7085 3.19687 22.8057L6.04238 28.008C6.14862 28.2023 6.34505 28.3222 6.55805 28.3222H12.2486C12.4613 28.3222 12.6577 28.2023 12.764 28.008L15.6095 22.8057C15.6626 22.7085 15.6892 22.5997 15.6892 22.4914C15.6892 22.3829 15.6626 22.2743 15.6095 22.1772L12.764 16.9749C12.6577 16.7806 12.4613 16.6606 12.2486 16.6606V16.9299V17.1992C12.2788 17.1992 12.3069 17.2164 12.3222 17.2441L15.1674 22.4465L15.1788 22.4914L15.1674 22.5364L12.3222 27.7387C12.3069 27.7665 12.2788 27.7834 12.2486 27.7834H6.55805C6.52729 27.7834 6.49968 27.7665 6.48416 27.7384L3.63891 22.5364L3.6276 22.4914L3.63891 22.4465L6.48416 17.2441C6.49968 17.2164 6.52729 17.1994 6.55805 17.1992H12.2486V16.9299Z" fill="white"/>
<path fill-rule="evenodd" clip-rule="evenodd" d="M18.2776 16.9299V16.6606H12.5871C12.3741 16.6606 12.1779 16.7806 12.0714 16.9749L9.22616 22.1769C9.17304 22.2743 9.14648 22.3832 9.14648 22.4914C9.14648 22.5997 9.17304 22.7085 9.22616 22.8057L12.0714 28.008C12.1779 28.2023 12.3741 28.3222 12.5871 28.3222H18.2776C18.4903 28.3222 18.6868 28.2026 18.7933 28.008L21.6388 22.8057C21.6919 22.7085 21.7185 22.5997 21.7185 22.4914C21.7185 22.3829 21.6919 22.2743 21.6388 22.1772L18.7933 16.9749C18.6868 16.7803 18.4903 16.6606 18.2776 16.6606V16.9299V17.1992C18.3078 17.1992 18.3362 17.2167 18.3512 17.2441L21.1967 22.4465L21.2081 22.4914L21.1967 22.5364L18.3512 27.7387C18.3362 27.7662 18.3078 27.7834 18.2776 27.7834H12.5871C12.5568 27.7834 12.5287 27.7665 12.5135 27.7384L9.6682 22.5364L9.6569 22.4914L9.6682 22.4465L12.5135 17.2441C12.5287 17.2164 12.5568 17.1992 12.5871 17.1992H18.2776V16.9299Z" fill="white"/>
<path fill-rule="evenodd" clip-rule="evenodd" d="M24.4973 16.9299V16.6606H18.8068C18.5941 16.6606 18.3976 16.7803 18.2911 16.9749L15.4459 22.1769C15.3928 22.2743 15.3662 22.3832 15.3662 22.4914C15.3662 22.5997 15.3928 22.7085 15.4459 22.8057L18.2911 28.008C18.3976 28.2026 18.5941 28.3222 18.8068 28.3222H24.4973C24.7101 28.3222 24.9065 28.2026 25.013 28.008L27.8583 22.8057C27.9114 22.7085 27.9379 22.5997 27.9379 22.4914C27.9379 22.3829 27.9114 22.2743 27.8583 22.1772L25.013 16.9749C24.9065 16.7803 24.7101 16.6606 24.4973 16.6606V16.9299V17.1992C24.5276 17.1992 24.556 17.2167 24.571 17.2441L27.4162 22.4465L27.4275 22.4914L27.4162 22.5364L24.571 27.7387C24.556 27.7662 24.5276 27.7834 24.4973 27.7834H18.8068C18.7766 27.7834 18.7482 27.7662 18.7329 27.7384L15.8879 22.5364L15.8766 22.4914L15.8879 22.4465L18.7329 17.2441C18.7482 17.2167 18.7766 17.1992 18.8068 17.1992H24.4973V16.9299Z" fill="white"/>
<path fill-rule="evenodd" clip-rule="evenodd" d="M30.5269 16.9299V16.6606H24.8364C24.6236 16.6606 24.4272 16.7803 24.3207 16.9749L21.4752 22.1769C21.4221 22.2743 21.3955 22.3832 21.3955 22.4914C21.3955 22.5997 21.4221 22.7085 21.4752 22.8057L24.3207 28.008C24.4272 28.2026 24.6236 28.3222 24.8364 28.3222H30.5269C30.7396 28.3222 30.9361 28.2023 31.0423 28.008L33.8878 22.8057C33.9409 22.7085 33.9675 22.5997 33.9675 22.4914C33.9675 22.3829 33.9409 22.2743 33.8878 22.1772L31.0423 16.9749C30.9361 16.7806 30.7396 16.6606 30.5269 16.6606V16.9299V17.1992C30.5571 17.1992 30.5853 17.2164 30.6005 17.2441L33.4458 22.4465L33.4571 22.4914L33.4458 22.5364L30.6005 27.7387C30.5853 27.7665 30.5571 27.7834 30.5269 27.7834H24.8364C24.8061 27.7834 24.7777 27.7662 24.7625 27.7384L21.9172 22.5364L21.9059 22.4914L21.9172 22.4465L24.7625 17.2441C24.7777 17.2167 24.8061 17.1992 24.8364 17.1992H30.5269V16.9299Z" fill="white"/>
<path fill-rule="evenodd" clip-rule="evenodd" d="M15.344 22.4897V22.2205H9.65349C9.44076 22.2205 9.24432 22.3401 9.13782 22.5347L6.29257 27.737C6.23945 27.8342 6.21289 27.943 6.21289 28.0512C6.21289 28.1595 6.23945 28.2683 6.29257 28.3655L9.13782 33.5678C9.24406 33.7624 9.44076 33.882 9.65349 33.882H15.344C15.5565 33.882 15.7532 33.7624 15.8597 33.5678L18.7049 28.3655C18.758 28.2683 18.7846 28.1595 18.7846 28.0512C18.7846 27.9427 18.758 27.8342 18.7049 27.737L15.8597 22.5347C15.7532 22.3401 15.5567 22.2205 15.344 22.2205V22.4897V22.759C15.3742 22.759 15.4026 22.7765 15.4176 22.804L18.2629 28.0063L18.2742 28.0512L18.2629 28.0962L15.4176 33.2985C15.4026 33.326 15.3745 33.3432 15.344 33.3432H9.65349C9.62299 33.3432 9.59485 33.326 9.57986 33.2985L6.73461 28.0962L6.7233 28.0512L6.73461 28.0065L9.57986 22.804C9.59485 22.7765 9.62325 22.759 9.65349 22.759H15.344V22.4897Z" fill="white"/>
<path fill-rule="evenodd" clip-rule="evenodd" d="M21.3745 22.4897V22.2205H15.684C15.471 22.2202 15.2746 22.3404 15.1684 22.5347L12.3228 27.737C12.2697 27.8342 12.2432 27.943 12.2432 28.0512C12.2432 28.1595 12.2697 28.2683 12.3228 28.3655L15.1684 33.5678C15.2746 33.7624 15.4713 33.882 15.684 33.882H21.3745C21.5873 33.882 21.7837 33.7621 21.8902 33.5678L24.7355 28.3655C24.7886 28.2683 24.8151 28.1595 24.8151 28.0512C24.8151 27.9427 24.7886 27.8342 24.7355 27.737L21.8899 22.5347C21.7837 22.3404 21.5873 22.2205 21.3745 22.2205V22.4897V22.759C21.4048 22.759 21.4329 22.7762 21.4482 22.804L24.2934 28.0063L24.3047 28.0512L24.2934 28.0962L21.4482 33.2985C21.4327 33.3263 21.405 33.3432 21.3745 33.3432H15.684C15.6533 33.3432 15.6257 33.3263 15.6104 33.2985L12.7649 28.0962L12.7536 28.0512L12.7649 28.0065L15.6101 22.804C15.6257 22.7762 15.6533 22.7593 15.684 22.759H21.3745V22.4897Z" fill="white"/>
<path fill-rule="evenodd" clip-rule="evenodd" d="M27.4055 22.4897V22.2205H21.715C21.5023 22.2205 21.3058 22.3401 21.1993 22.5347L18.3541 27.737C18.301 27.8342 18.2744 27.943 18.2744 28.0512C18.2744 28.1595 18.301 28.2683 18.3541 28.3655L21.1993 33.5678C21.3056 33.7624 21.5023 33.882 21.715 33.882H27.4055C27.618 33.882 27.8147 33.7624 27.9212 33.5678L30.7664 28.3655C30.8196 28.2683 30.8461 28.1595 30.8461 28.0512C30.8461 27.9427 30.8196 27.8342 30.7664 27.737L27.9212 22.5347C27.8147 22.3401 27.6183 22.2205 27.4055 22.2205V22.4897V22.759C27.4358 22.759 27.4642 22.7765 27.4792 22.804L30.3244 28.0063L30.3357 28.0512L30.3244 28.0962L27.4792 33.2985C27.4642 33.326 27.436 33.3432 27.4055 33.3432H21.715C21.6845 33.3432 21.6564 33.326 21.6414 33.2985L18.7961 28.0962L18.7848 28.0512L18.7961 28.0065L21.6414 22.804C21.6564 22.7765 21.6848 22.759 21.715 22.759H27.4055V22.4897Z" fill="white"/>
</svg>
