<svg width="31" height="31" viewBox="0 0 31 31" fill="none" xmlns="http://www.w3.org/2000/svg">
<path fill-rule="evenodd" clip-rule="evenodd" d="M29.4432 15.7641C29.4432 14.7292 29.3503 13.7342 29.1778 12.7789H15.4324V18.4243H23.2869C22.9486 20.2486 21.9203 21.7943 20.3746 22.8292V26.4912H25.0913C27.851 23.9504 29.4432 20.2088 29.4432 15.7641Z" fill="#4285F4"/>
<path fill-rule="evenodd" clip-rule="evenodd" d="M15.4324 30.027C19.3729 30.027 22.6766 28.7201 25.0914 26.4911L20.3747 22.8292C19.0678 23.7049 17.396 24.2223 15.4324 24.2223C11.6312 24.2223 8.41372 21.655 7.26606 18.2054H2.39014V21.9867C4.79161 26.7565 9.72724 30.027 15.4324 30.027Z" fill="#34A853"/>
<path fill-rule="evenodd" clip-rule="evenodd" d="M7.26615 18.2054C6.97425 17.3297 6.80841 16.3943 6.80841 15.4324C6.80841 14.4705 6.97425 13.5351 7.26615 12.6594V8.87811H2.39022C1.40177 10.8484 0.837891 13.0774 0.837891 15.4324C0.837891 17.7874 1.40177 20.0164 2.39022 21.9867L7.26615 18.2054Z" fill="#FBBC05"/>
<path fill-rule="evenodd" clip-rule="evenodd" d="M15.4324 6.6425C17.5751 6.6425 19.499 7.37886 21.0115 8.82505L25.1975 4.63906C22.67 2.28402 19.3663 0.83783 15.4324 0.83783C9.72724 0.83783 4.79161 4.10835 2.39014 8.87812L7.26606 12.6595C8.41372 9.20982 11.6312 6.6425 15.4324 6.6425Z" fill="#EA4335"/>
</svg>
