<svg width="20" height="20" viewBox="0 0 20 20" fill="none" xmlns="http://www.w3.org/2000/svg">
<path fill-rule="evenodd" clip-rule="evenodd" d="M0.6 9H8.4C8.73 9 9 8.73 9 8.4V0.6C9 0.27 8.73 0 8.4 0H0.6C0.27 0 0 0.27 0 0.6V8.4C0 8.73 0.27 9 0.6 9ZM7.8 7.8H1.2V1.2H7.8V7.8ZM11.6 9H19.4C19.73 9 20 8.73 20 8.4V0.6C20 0.27 19.73 0 19.4 0H11.6C11.27 0 11 0.27 11 0.6V8.4C11 8.73 11.27 9 11.6 9ZM18.8 7.8H12.2V1.2H18.8V7.8ZM8.4 20H0.6C0.27 20 0 19.73 0 19.4V11.6C0 11.27 0.27 11 0.6 11H8.4C8.73 11 9 11.27 9 11.6V19.4C9 19.73 8.73 20 8.4 20ZM1.2 18.8H7.8V12.2H1.2V18.8ZM11.6 20H19.4C19.73 20 20 19.73 20 19.4V11.6C20 11.27 19.73 11 19.4 11H11.6C11.27 11 11 11.27 11 11.6V19.4C11 19.73 11.27 20 11.6 20ZM18.8 18.8H12.2V12.2H18.8V18.8Z" fill="#818A91"/>
</svg>
