<svg width="318" height="33" viewBox="0 0 318 33" fill="none" xmlns="http://www.w3.org/2000/svg">
<g clip-path="url(#clip0)">
<g clip-path="url(#clip1)">
<mask id="mask0" mask-type="alpha" maskUnits="userSpaceOnUse" x="6" y="5" width="4" height="6">
<path d="M9.51442 10.4058L9.38987 10.6214C9.3709 10.6537 9.3547 10.6876 9.34085 10.7219C9.30408 10.7168 9.26653 10.7136 9.22855 10.7136H8.97867L6.42285 6.30043L6.54819 6.08441C6.58102 6.02766 6.64269 5.99219 6.70872 5.99219H6.95821L9.51442 10.4058Z" fill="white"/>
</mask>
<g mask="url(#mask0)">
<path fill-rule="evenodd" clip-rule="evenodd" d="M6.19141 10.9529H9.74632V5.76123H6.19141V10.9529Z" fill="#FF9900"/>
</g>
<mask id="mask1" mask-type="alpha" maskUnits="userSpaceOnUse" x="6" y="0" width="10" height="6">
<path d="M6.95852 5.37557H6.70903C6.52163 5.37557 6.34328 5.44218 6.20215 5.55648C6.21716 5.46188 6.24839 5.36848 6.29822 5.28293L9.10393 0.438089C9.24706 0.190935 9.51395 0.0375977 9.8002 0.0375977H15.4116C15.5109 0.0375977 15.6073 0.0569063 15.6975 0.0912044C15.5271 0.156244 15.3804 0.276461 15.2867 0.438089L15.1621 0.653694H9.8002C9.73418 0.653694 9.6725 0.689171 9.63928 0.746334L6.95852 5.37557Z" fill="white"/>
</mask>
<g mask="url(#mask1)">
<path fill-rule="evenodd" clip-rule="evenodd" d="M5.9707 5.78746H15.9294V-0.193359H5.9707V5.78746Z" fill="#FF9900"/>
</g>
<mask id="mask2" mask-type="alpha" maskUnits="userSpaceOnUse" x="15" y="0" width="4" height="6">
<path d="M18.5034 5.37568H18.2531L15.6973 0.962053L15.8222 0.746448C15.855 0.689285 15.9167 0.653809 15.9827 0.653809H16.2326L18.7889 5.06744L18.6639 5.28305C18.6449 5.31577 18.6291 5.34926 18.6153 5.38395C18.5781 5.37843 18.5409 5.37568 18.5034 5.37568Z" fill="white"/>
</mask>
<g mask="url(#mask2)">
<path fill-rule="evenodd" clip-rule="evenodd" d="M15.4658 5.61492H19.0207V0.422852H15.4658V5.61492Z" fill="#FF9900"/>
</g>
<mask id="mask3" mask-type="alpha" maskUnits="userSpaceOnUse" x="12" y="0" width="10" height="6">
<path d="M15.2864 0.438238C15.3801 0.276632 15.5267 0.156392 15.6968 0.0913529C15.7869 0.0570778 15.8834 0.0373535 15.9826 0.0373535H21.594C21.6933 0.0373535 21.7898 0.0570778 21.8795 0.0913529C21.7099 0.156392 21.5628 0.276632 21.4695 0.438238L21.3441 0.653866H16.2321H15.9826C15.9162 0.653866 15.8545 0.689342 15.8217 0.746482L15.6968 0.96211L13.141 5.37572H12.8911C12.7922 5.37572 12.6957 5.39502 12.6056 5.42932C12.5499 5.40805 12.4917 5.39228 12.4316 5.38359C12.4455 5.34932 12.4617 5.3158 12.4807 5.28308L15.1614 0.653866L15.2864 0.438238Z" fill="white"/>
</mask>
<g mask="url(#mask3)">
<path fill-rule="evenodd" clip-rule="evenodd" d="M12.2002 5.6603H22.1114V-0.193604H12.2002V5.6603Z" fill="#ADCA00"/>
</g>
<mask id="mask4" mask-type="alpha" maskUnits="userSpaceOnUse" x="28" y="5" width="4" height="6">
<path d="M31.0301 6.08443L31.1547 6.29965L28.5985 10.7137H28.3494C28.3114 10.7137 28.2738 10.7164 28.2371 10.7219C28.2232 10.6876 28.207 10.6538 28.1884 10.621L28.0635 10.405L30.6189 5.99219H30.8696C30.9356 5.99219 30.9973 6.02727 31.0301 6.08443Z" fill="white"/>
</mask>
<g mask="url(#mask4)">
<path fill-rule="evenodd" clip-rule="evenodd" d="M27.832 10.9529H31.3866V5.76123H27.832V10.9529Z" fill="#30A8A2"/>
</g>
<mask id="mask5" mask-type="alpha" maskUnits="userSpaceOnUse" x="18" y="0" width="14" height="6">
<path d="M21.47 0.43809C21.5633 0.276461 21.7104 0.156244 21.8804 0.0915971C21.9705 0.0569063 22.067 0.0375977 22.1659 0.0375977H27.7777C28.0639 0.0375977 28.3308 0.190935 28.4735 0.43809L31.2796 5.28333C31.3291 5.36846 31.3603 5.46149 31.3753 5.5561C31.2342 5.44179 31.0562 5.37557 30.8696 5.37557H30.6193L27.9382 0.746335C27.9054 0.689171 27.8437 0.653695 27.7777 0.653695H22.4157H22.1659C22.0998 0.653695 22.0381 0.689171 22.0053 0.746335L21.8804 0.962333L19.3246 5.37557H19.0747C18.9754 5.37557 18.8794 5.39528 18.7892 5.42957C18.7335 5.40828 18.6753 5.39211 18.6152 5.38384C18.6291 5.34915 18.6453 5.31564 18.6643 5.28333L18.7888 5.06772L21.345 0.653695L21.47 0.43809Z" fill="white"/>
</mask>
<g mask="url(#mask5)">
<path fill-rule="evenodd" clip-rule="evenodd" d="M18.3838 5.78707H31.6072V-0.193359H18.3838V5.78707Z" fill="#30A8A2"/>
</g>
<mask id="mask6" mask-type="alpha" maskUnits="userSpaceOnUse" x="3" y="5" width="10" height="6">
<path d="M3.86673 10.7135H3.61645C3.42983 10.7135 3.25151 10.7797 3.11035 10.894C3.12577 10.7994 3.15701 10.7064 3.20643 10.6212L6.01213 5.77637C6.06154 5.69085 6.12678 5.61752 6.20152 5.55682C6.34268 5.4421 6.521 5.37549 6.70842 5.37549H6.95791H12.3198C12.3578 5.37549 12.3949 5.37865 12.4317 5.38378C12.4914 5.39205 12.5495 5.40822 12.6057 5.42949C12.4353 5.49413 12.2886 5.61477 12.1949 5.77637L12.0703 5.99198H6.95791H6.70842C6.64237 5.99198 6.5807 6.02745 6.54748 6.08422L6.42254 6.30025L3.86673 10.7135Z" fill="white"/>
</mask>
<g mask="url(#mask6)">
<path fill-rule="evenodd" clip-rule="evenodd" d="M2.87891 11.125H12.8376V5.14453H2.87891V11.125Z" fill="#8C7AA7"/>
</g>
<mask id="mask7" mask-type="alpha" maskUnits="userSpaceOnUse" x="13" y="11" width="6" height="6">
<path d="M15.6974 11.6382L13.1416 16.0515L15.8224 11.4222C15.8552 11.3651 15.9169 11.3296 15.9829 11.3296H16.2328L18.789 15.7436L18.6641 15.9588C18.6455 15.9915 18.6293 16.0254 18.6154 16.0597C18.5786 16.0546 18.5411 16.0515 18.5031 16.0515H18.2532L15.6974 11.6382Z" fill="white"/>
</mask>
<g mask="url(#mask7)">
<path fill-rule="evenodd" clip-rule="evenodd" d="M12.9102 16.2907H19.0209V11.0986H12.9102V16.2907Z" fill="#8C7AA7"/>
</g>
<mask id="mask8" mask-type="alpha" maskUnits="userSpaceOnUse" x="3" y="5" width="13" height="12">
<path d="M15.573 10.6209C15.5544 10.6537 15.5382 10.6871 15.5243 10.7214C15.584 10.7301 15.6418 10.7459 15.6975 10.7672C15.5275 10.8322 15.3808 10.9524 15.2871 11.1137L15.1621 11.3297H10.0505H10.0501H9.80024C9.73421 11.3297 9.67294 11.3651 9.63971 11.4223L9.51477 11.6379L6.95856 16.0515H6.70907C6.46076 16.0515 6.2271 16.1674 6.07604 16.3598C6.05311 16.3306 6.03177 16.2999 6.01319 16.2671L3.33203 11.6379L3.45658 11.4223C3.48979 11.3651 3.55147 11.3297 3.6175 11.3297H3.86779L6.42321 15.7433L8.97942 11.3297L9.10436 11.1141C9.19768 10.9524 9.34475 10.8322 9.51477 10.7672C9.60492 10.7329 9.70099 10.7132 9.80024 10.7132H10.0505H15.1618H15.1621L12.6063 6.30036L12.7313 6.08434C12.7641 6.02718 12.8258 5.9917 12.8918 5.9917H13.1417L15.6975 10.4049L15.6979 10.4057L15.573 10.6209Z" fill="white"/>
</mask>
<g mask="url(#mask8)">
<path fill-rule="evenodd" clip-rule="evenodd" d="M3.10059 16.5908H15.9298V5.76074H3.10059V16.5908Z" fill="#8C7AA7"/>
</g>
<mask id="mask9" mask-type="alpha" maskUnits="userSpaceOnUse" x="9" y="5" width="10" height="6">
<path d="M10.0502 10.7135H9.79988C9.70063 10.7135 9.60456 10.7328 9.51439 10.7675C9.45865 10.7462 9.40052 10.73 9.34082 10.7217C9.35467 10.6875 9.37087 10.6539 9.38984 10.6212L9.51439 10.4056L12.0706 5.99198L12.1956 5.77637C12.2889 5.61477 12.436 5.49413 12.606 5.42949C12.6961 5.39521 12.7926 5.37549 12.8914 5.37549H13.1409H18.253H18.5032C18.5408 5.37549 18.578 5.37865 18.6151 5.38378C18.6748 5.39205 18.733 5.40822 18.7887 5.42949C18.6187 5.49413 18.472 5.61477 18.3783 5.77637L18.2538 5.99198H18.253H13.1413H12.8914C12.8254 5.99198 12.7637 6.02745 12.7309 6.08462L12.606 6.30025L10.0502 10.7135Z" fill="white"/>
</mask>
<g mask="url(#mask9)">
<path fill-rule="evenodd" clip-rule="evenodd" d="M9.10938 10.9984H19.0206V5.14453H9.10938V10.9984Z" fill="#254E6A"/>
</g>
<mask id="mask10" mask-type="alpha" maskUnits="userSpaceOnUse" x="18" y="5" width="4" height="6">
<path d="M19.3244 5.99194L20.9783 8.84819L21.8802 10.4052V10.4056L21.8806 10.406L21.7557 10.6212C21.7371 10.6535 21.7213 10.6874 21.707 10.7217C21.6703 10.7166 21.6327 10.7134 21.5948 10.7134H21.3449L19.0983 6.83392L18.7891 6.30021L18.914 6.08419C18.9472 6.02742 19.0089 5.99194 19.0749 5.99194H19.3244Z" fill="white"/>
</mask>
<g mask="url(#mask10)">
<path fill-rule="evenodd" clip-rule="evenodd" d="M18.5576 10.9527H22.1126V5.76099H18.5576V10.9527Z" fill="#254E6A"/>
</g>
<mask id="mask11" mask-type="alpha" maskUnits="userSpaceOnUse" x="15" y="5" width="10" height="6">
<path d="M19.074 5.37549H19.3235H24.4356H24.6858C24.7847 5.37549 24.8816 5.39521 24.9717 5.42949C24.8013 5.49413 24.6546 5.61477 24.5609 5.77637L24.4363 5.99198H24.4356H19.3235H19.074C19.008 5.99198 18.9463 6.02745 18.9135 6.08422L18.7882 6.30025L16.2324 10.7135H15.9825C15.8832 10.7135 15.7872 10.7328 15.6966 10.7675C15.6409 10.7462 15.5831 10.73 15.5234 10.7217C15.5373 10.6875 15.5535 10.6536 15.5721 10.6212L15.697 10.4056L15.6966 10.4052L18.2524 5.99198H18.2532L18.3782 5.77637C18.4715 5.61477 18.6182 5.49413 18.7882 5.42949C18.8783 5.39521 18.9748 5.37549 19.074 5.37549Z" fill="white"/>
</mask>
<g mask="url(#mask11)">
<path fill-rule="evenodd" clip-rule="evenodd" d="M15.292 10.9984H25.2036V5.14453H15.292V10.9984Z" fill="#FF9900"/>
</g>
<mask id="mask12" mask-type="alpha" maskUnits="userSpaceOnUse" x="21" y="11" width="4" height="6">
<path d="M22.1663 11.3298H22.4166L24.9724 15.7431V15.7435L24.8479 15.9591C24.8289 15.9918 24.8127 16.0253 24.7989 16.06C24.7617 16.0544 24.7245 16.0517 24.6866 16.0517H24.4367L21.8809 11.6381L22.0058 11.4221C22.0386 11.3653 22.1003 11.3298 22.1663 11.3298Z" fill="white"/>
</mask>
<g mask="url(#mask12)">
<path fill-rule="evenodd" clip-rule="evenodd" d="M21.6494 16.291H25.2043V11.0989H21.6494V16.291Z" fill="#ADCA00"/>
</g>
<mask id="mask13" mask-type="alpha" maskUnits="userSpaceOnUse" x="31" y="11" width="4" height="6">
<path d="M31.2792 15.9591L31.1543 15.7438L33.7105 11.3298H33.9604C34.0264 11.3298 34.0881 11.3653 34.1209 11.4225L34.2459 11.6381L31.5651 16.2673C31.5461 16.3 31.5248 16.3308 31.5018 16.3599C31.4647 16.3122 31.4216 16.2701 31.3753 16.2326C31.3599 16.1376 31.3287 16.0446 31.2792 15.9591Z" fill="white"/>
</mask>
<g mask="url(#mask13)">
<path fill-rule="evenodd" clip-rule="evenodd" d="M30.9229 16.5909H34.4777V11.0989H30.9229V16.5909Z" fill="#ADCA00"/>
</g>
<mask id="mask14" mask-type="alpha" maskUnits="userSpaceOnUse" x="0" y="10" width="10" height="12">
<path d="M3.20673 21.2968C3.11302 21.4584 3.08179 21.6457 3.11065 21.8246C3.03553 21.7643 2.97068 21.6906 2.92086 21.6051L0.115163 16.7602C-0.0279709 16.5131 -0.0279709 16.206 0.115163 15.9589L2.92086 11.114C2.97068 11.0281 3.03592 10.9548 3.11105 10.8941C3.2522 10.7797 3.43013 10.7131 3.61715 10.7131H3.86704H8.97865H9.22856C9.26651 10.7131 9.30406 10.7163 9.34085 10.7214C9.40095 10.7301 9.45866 10.7459 9.51442 10.7671C9.344 10.8322 9.19731 10.9524 9.10401 11.114L8.97907 11.3296H3.86704H3.61715C3.55112 11.3296 3.48944 11.3651 3.45622 11.4223L3.33168 11.6379L0.650522 16.2671C0.617705 16.3239 0.617705 16.3948 0.650522 16.452L3.33168 21.0812L3.20673 21.2968Z" fill="white"/>
</mask>
<g mask="url(#mask14)">
<path fill-rule="evenodd" clip-rule="evenodd" d="M-0.223633 22.0556H9.74632V10.4822H-0.223633V22.0556Z" fill="#30A8A2"/>
</g>
<mask id="mask15" mask-type="alpha" maskUnits="userSpaceOnUse" x="3" y="21" width="7" height="2">
<path d="M8.97936 21.3894L9.1043 21.605C9.12328 21.6377 9.14464 21.6685 9.16755 21.6976C9.14422 21.7268 9.12328 21.758 9.1043 21.7907L8.97936 22.0055H3.86733L3.74239 21.7899C3.70957 21.7331 3.70957 21.6622 3.74239 21.605L3.86773 21.3894H8.97936Z" fill="white"/>
</mask>
<g mask="url(#mask15)">
<path fill-rule="evenodd" clip-rule="evenodd" d="M3.48633 22.2365H9.39946V21.1584H3.48633V22.2365Z" fill="#30A8A2"/>
</g>
<mask id="mask16" mask-type="alpha" maskUnits="userSpaceOnUse" x="9" y="11" width="4" height="6">
<path d="M9.79954 11.3296H10.049L12.6052 15.7432L12.4807 15.9588C12.4617 15.9915 12.4455 16.0254 12.4317 16.0597C12.3949 16.0546 12.3577 16.0514 12.3198 16.0514H12.0699L9.51367 11.6378L9.63861 11.4222C9.67181 11.3651 9.73351 11.3296 9.79954 11.3296Z" fill="white"/>
</mask>
<g mask="url(#mask16)">
<path fill-rule="evenodd" clip-rule="evenodd" d="M9.28223 16.2907H12.8372V11.0986H9.28223V16.2907Z" fill="#30A8A2"/>
</g>
<mask id="mask17" mask-type="alpha" maskUnits="userSpaceOnUse" x="6" y="16" width="7" height="6">
<path d="M9.51442 21.0813L9.38948 21.2969C9.34006 21.3829 9.30844 21.4755 9.2934 21.5709C9.24714 21.6083 9.20444 21.6501 9.16728 21.6978C9.14395 21.6686 9.12259 21.6379 9.10361 21.6052L8.97907 21.3896L6.42285 16.976L6.54779 16.7603C6.58102 16.7036 6.64229 16.6677 6.70872 16.6677H12.0702L12.0698 16.6681H6.95862L9.51442 21.0813Z" fill="white"/>
</mask>
<g mask="url(#mask17)">
<path fill-rule="evenodd" clip-rule="evenodd" d="M6.19141 21.9288H12.3021V16.4368H6.19141V21.9288Z" fill="#8C7AA7"/>
</g>
<mask id="mask18" mask-type="alpha" maskUnits="userSpaceOnUse" x="28" y="11" width="4" height="6">
<path d="M30.8692 16.0514H30.6193L28.0635 11.6382L28.1884 11.4222C28.2216 11.3651 28.2829 11.3296 28.3489 11.3296H28.5984L31.1546 15.7436L31.2796 15.9588C31.329 16.0444 31.3602 16.1374 31.3757 16.2324C31.2341 16.1181 31.0562 16.0514 30.8692 16.0514Z" fill="white"/>
</mask>
<g mask="url(#mask18)">
<path fill-rule="evenodd" clip-rule="evenodd" d="M27.832 16.4634H31.6075V11.0986H27.832V16.4634Z" fill="#254E6A"/>
</g>
<mask id="mask19" mask-type="alpha" maskUnits="userSpaceOnUse" x="28" y="16" width="4" height="6">
<path d="M28.1884 21.2968L28.0635 21.0808L30.6189 16.668H30.8692C30.9352 16.668 30.9969 16.7034 31.0297 16.7602L31.1546 16.9758L28.5984 21.3895H28.3489C28.2829 21.3895 28.2212 21.354 28.1884 21.2968Z" fill="white"/>
</mask>
<g mask="url(#mask19)">
<path fill-rule="evenodd" clip-rule="evenodd" d="M27.832 21.6204H31.3866V16.437H27.832V21.6204Z" fill="#254E6A"/>
</g>
<mask id="mask20" mask-type="alpha" maskUnits="userSpaceOnUse" x="15" y="10" width="14" height="12">
<path d="M22.1656 10.7134H22.4159H27.5275H27.777H27.7774C27.8767 10.7134 27.9732 10.7331 28.0633 10.7674C27.8929 10.832 27.7462 10.9526 27.6529 11.1143L27.5279 11.3299H27.5275H22.4159H22.1656C22.0996 11.3299 22.0379 11.3653 22.0051 11.4221L21.8802 11.6381L19.3239 16.0514H24.436H24.6859C24.7238 16.0514 24.761 16.0545 24.7982 16.0596C24.8582 16.0683 24.916 16.0841 24.9717 16.1054C24.8017 16.1704 24.6546 16.2906 24.5613 16.4522L24.4364 16.6678H24.436H19.3239L21.8802 21.0811V21.0815V21.0819L19.3239 16.6678H19.0745C19.008 16.6678 18.9468 16.7033 18.9135 16.7601L18.7886 16.9761L16.2328 21.3893L16.2324 21.3897H15.9825C15.8833 21.3897 15.7872 21.4094 15.697 21.4437C15.6413 21.4224 15.5831 21.4067 15.5234 21.398C15.5373 21.3637 15.5535 21.3298 15.5725 21.2971L15.6974 21.0815L18.2532 16.6678L18.3782 16.4522C18.4715 16.2906 18.6186 16.1704 18.7882 16.1054C18.7329 16.0841 18.6747 16.0683 18.615 16.0596C18.6289 16.0253 18.6451 15.9918 18.6637 15.9591L18.7886 15.7435V15.7431L21.3444 11.3299L21.3448 11.3295L21.4697 11.1143C21.6129 10.8671 21.8794 10.7134 22.1656 10.7134Z" fill="white"/>
</mask>
<g mask="url(#mask20)">
<path fill-rule="evenodd" clip-rule="evenodd" d="M15.292 21.6747H28.2952V10.4824H15.292V21.6747Z" fill="#254E6A"/>
</g>
<mask id="mask21" mask-type="alpha" maskUnits="userSpaceOnUse" x="24" y="5" width="14" height="17">
<path d="M37.4628 15.9589C37.606 16.2061 37.606 16.5131 37.4628 16.7603L34.6571 21.6051C34.6073 21.6911 34.5425 21.7644 34.4673 21.8251C34.4962 21.6457 34.4646 21.4589 34.3713 21.2969L34.2463 21.0816L36.9275 16.452C36.9603 16.3949 36.9603 16.3243 36.9275 16.2672L34.2467 11.6379L34.1218 11.4223C34.0886 11.3651 34.0273 11.3297 33.9612 11.3297H33.7109H28.5989H28.3494C28.2834 11.3297 28.2217 11.3651 28.1885 11.4223L28.0636 11.6383L25.5078 16.0515H25.2579C25.1586 16.0515 25.0625 16.0712 24.9724 16.1055C24.9167 16.0839 24.8585 16.0681 24.7988 16.0598C24.8127 16.0251 24.8285 15.9916 24.8475 15.9589L24.9724 15.7433H24.972L27.5282 11.3297H27.5286L27.6532 11.1141C27.7469 10.9524 27.8936 10.8322 28.0636 10.7672C27.9734 10.7329 27.877 10.7132 27.7777 10.7132H27.5282L24.972 6.30036L25.0973 6.08434C25.1302 6.02718 25.1918 5.9917 25.2579 5.9917H25.5074L28.0636 10.4049L28.1881 10.6209C28.2071 10.6537 28.2233 10.6872 28.2371 10.7215C28.2739 10.7163 28.3115 10.7132 28.3494 10.7132H28.5985H33.7109H33.9612C34.1479 10.7132 34.3258 10.7798 34.4673 10.8941C34.5425 10.9548 34.6077 11.0285 34.6571 11.1141L37.4628 15.9589Z" fill="white"/>
</mask>
<g mask="url(#mask21)">
<path fill-rule="evenodd" clip-rule="evenodd" d="M24.5674 22.056H37.8021V5.76074H24.5674V22.056Z" fill="#FF9900"/>
</g>
<mask id="mask22" mask-type="alpha" maskUnits="userSpaceOnUse" x="25" y="16" width="9" height="7">
<path d="M28.2837 21.571C28.2687 21.476 28.2374 21.3826 28.1876 21.2971L25.5068 16.6682H25.5076L28.063 21.081L28.188 21.2971C28.2212 21.3542 28.2829 21.3897 28.3489 21.3897H28.598H33.7104L33.8354 21.6053C33.8682 21.6625 33.8682 21.733 33.8354 21.7902L33.7104 22.0058H28.5976L28.4731 21.7906C28.4236 21.705 28.3584 21.6317 28.2837 21.571Z" fill="white"/>
</mask>
<g mask="url(#mask22)">
<path fill-rule="evenodd" clip-rule="evenodd" d="M25.2754 22.2367H34.0919V16.4373H25.2754V22.2367Z" fill="#FF9900"/>
</g>
<mask id="mask23" mask-type="alpha" maskUnits="userSpaceOnUse" x="3" y="0" width="32" height="28">
<path d="M6.2982 26.6355C6.20489 26.7971 6.17366 26.9835 6.20213 27.1629C6.12739 27.1022 6.06254 27.0289 6.01273 26.9433L3.20703 22.0985C3.15761 22.0125 3.12637 21.9199 3.11095 21.8249C3.08209 21.6456 3.11332 21.4587 3.20703 21.2971L3.33197 21.0815L6.01273 16.4522C6.03171 16.4195 6.05307 16.3888 6.076 16.3596C6.22703 16.1673 6.4607 16.0514 6.70901 16.0514H6.9585H12.0705H12.3204C12.3584 16.0514 12.3955 16.0545 12.4327 16.0597C12.4466 16.0254 12.4624 15.9915 12.4814 15.9591L12.6063 15.7435V15.7431L15.1621 11.3299V11.3295L15.2871 11.1139C15.3807 10.9523 15.5274 10.8321 15.6975 10.7674C15.7876 10.7327 15.8841 10.7134 15.9833 10.7134H16.2332H21.3448H21.5951C21.6327 10.7134 21.6703 10.7166 21.7074 10.7217C21.7212 10.6874 21.7371 10.6535 21.756 10.6212L21.8806 10.406V10.4056V10.4052L24.4364 5.99193H24.4368L24.5617 5.77633C24.6555 5.6147 24.8022 5.49409 24.9722 5.42944C24.882 5.39514 24.7855 5.37544 24.6867 5.37544H24.4364L21.8802 0.962202L22.0055 0.746204C22.0384 0.689041 22.1 0.653564 22.1661 0.653564H22.4156L25.0967 5.28319C25.1153 5.31553 25.1315 5.34941 25.1454 5.38371C25.1825 5.37858 25.2201 5.37544 25.258 5.37544H30.6192H30.8698C31.0564 5.37544 31.234 5.44166 31.3755 5.55596C31.4507 5.61668 31.5159 5.69038 31.5657 5.77633L34.3714 10.6212C34.4209 10.7067 34.4521 10.7993 34.4675 10.8943C34.326 10.78 34.148 10.7134 33.961 10.7134H33.7111L31.1549 6.29978L31.0304 6.08418C30.9971 6.02741 30.9359 5.99193 30.8698 5.99193H30.6192H25.5075H25.258C25.192 5.99193 25.1303 6.02741 25.0971 6.08418L24.9722 6.30018L22.4164 10.7134H22.1661C21.8802 10.7134 21.6133 10.8671 21.4702 11.1143L21.3452 11.3295V11.3299H16.2332V11.3295H16.2328H15.9833C15.9173 11.3295 15.8556 11.365 15.8224 11.4222L13.1417 16.0514H12.8918C12.6055 16.0514 12.3386 16.2051 12.1959 16.4522L12.0709 16.6679H12.0705H6.70901C6.64298 16.6679 6.58131 16.7034 6.54809 16.7605L6.42315 16.9761L3.86773 21.3893L3.74239 21.6054C3.70957 21.6625 3.70957 21.7331 3.74239 21.7902L3.86734 22.0058L6.42315 26.4195L6.2982 26.6355Z" fill="white"/>
</mask>
<g mask="url(#mask23)">
<path fill-rule="evenodd" clip-rule="evenodd" d="M2.86914 27.3938H34.6994V0.422607H2.86914V27.3938Z" fill="#ADCA00"/>
</g>
<mask id="mask24" mask-type="alpha" maskUnits="userSpaceOnUse" x="12" y="16" width="4" height="6">
<path d="M15.697 21.0813L15.5721 21.297C15.5531 21.3297 15.5373 21.3636 15.5231 21.3983C15.4863 21.3931 15.4491 21.39 15.4112 21.39H15.1617L15.1613 21.3896L12.6055 16.976L12.7304 16.7603C12.7636 16.7032 12.8249 16.6677 12.8909 16.6677H13.1412V16.6681L15.697 21.0813Z" fill="white"/>
</mask>
<g mask="url(#mask24)">
<path fill-rule="evenodd" clip-rule="evenodd" d="M12.374 21.6292H15.9289V16.4368H12.374V21.6292Z" fill="#ADCA00"/>
</g>
<mask id="mask25" mask-type="alpha" maskUnits="userSpaceOnUse" x="9" y="22" width="4" height="6">
<path d="M9.80012 22.0063H10.0504L12.6062 26.4192V26.4196L12.4809 26.6356C12.3876 26.7968 12.3563 26.9836 12.3852 27.163C12.3105 27.1023 12.2452 27.029 12.1958 26.9434L12.0709 26.7278L9.51465 22.3142L9.63959 22.0986C9.67242 22.0418 9.73409 22.0063 9.80012 22.0063Z" fill="white"/>
</mask>
<g mask="url(#mask25)">
<path fill-rule="evenodd" clip-rule="evenodd" d="M9.2832 27.394H12.8381V21.7754H9.2832V27.394Z" fill="#30A8A2"/>
</g>
<mask id="mask26" mask-type="alpha" maskUnits="userSpaceOnUse" x="12" y="26" width="7" height="2">
<path d="M18.3777 27.1287L18.2532 27.3439H13.1408L13.0158 27.1287C12.983 27.0715 12.983 27.0009 13.0158 26.9438L13.1412 26.7278H18.2528L18.3777 26.9434C18.4105 27.0009 18.4105 27.0715 18.3777 27.1287Z" fill="white"/>
</mask>
<g mask="url(#mask26)">
<path fill-rule="evenodd" clip-rule="evenodd" d="M12.7598 27.5749H18.6342V26.4968H12.7598V27.5749Z" fill="#30A8A2"/>
</g>
<mask id="mask27" mask-type="alpha" maskUnits="userSpaceOnUse" x="9" y="16" width="10" height="6">
<path d="M12.6062 16.9763L10.0503 21.3895L10.0499 21.3899H9.80006C9.61303 21.3899 9.4351 21.4565 9.29395 21.5708C9.30898 21.4758 9.34021 21.3828 9.39004 21.2972L9.51499 21.0816L9.51459 21.0812L12.0704 16.668H12.0708L12.1957 16.4524C12.3389 16.2052 12.6058 16.0515 12.892 16.0515H13.1415H18.2535H18.5034C18.5414 16.0515 18.5785 16.0547 18.6157 16.0598C18.6754 16.0685 18.7335 16.0842 18.7889 16.1055C18.6193 16.1706 18.4722 16.2908 18.3789 16.452L18.2539 16.668H18.2535H13.1419H12.892C12.826 16.668 12.7643 16.7035 12.7311 16.7602L12.6062 16.9763Z" fill="white"/>
</mask>
<g mask="url(#mask27)">
<path fill-rule="evenodd" clip-rule="evenodd" d="M9.0625 21.8018H19.0208V15.8206H9.0625V21.8018Z" fill="#30A8A2"/>
</g>
<mask id="mask28" mask-type="alpha" maskUnits="userSpaceOnUse" x="18" y="16" width="4" height="6">
<path d="M19.0749 16.6677H19.3244L21.8806 21.0817L21.7561 21.2973C21.7371 21.3297 21.7209 21.3636 21.7071 21.3979C21.6699 21.3927 21.6327 21.3896 21.5948 21.3896H21.3453H21.3449L18.7891 16.976L18.9144 16.76C18.9472 16.7032 19.0089 16.6677 19.0749 16.6677Z" fill="white"/>
</mask>
<g mask="url(#mask28)">
<path fill-rule="evenodd" clip-rule="evenodd" d="M18.5576 21.6288H22.1125V16.4368H18.5576V21.6288Z" fill="#30A8A2"/>
</g>
<mask id="mask29" mask-type="alpha" maskUnits="userSpaceOnUse" x="24" y="22" width="5" height="5">
<path d="M25.0966 26.6353L24.9717 26.4193L27.5271 22.0061H27.7774C27.8434 22.0061 27.9051 22.0416 27.9379 22.0987L28.0628 22.3143L25.507 26.7276H25.2575C25.1915 26.7276 25.1294 26.6921 25.0966 26.6353Z" fill="white"/>
</mask>
<g mask="url(#mask29)">
<path fill-rule="evenodd" clip-rule="evenodd" d="M24.7402 26.9585H28.2948V21.7751H24.7402V26.9585Z" fill="#254E6A"/>
</g>
<mask id="mask30" mask-type="alpha" maskUnits="userSpaceOnUse" x="19" y="26" width="6" height="2">
<path d="M24.5612 27.1286L24.4367 27.3438H19.3243L19.1997 27.1286C19.1665 27.0714 19.1665 27.0008 19.1997 26.9437L19.3247 26.7273H24.4363L24.5612 26.9437C24.594 27.0008 24.594 27.0714 24.5612 27.1286Z" fill="white"/>
</mask>
<g mask="url(#mask30)">
<path fill-rule="evenodd" clip-rule="evenodd" d="M18.9434 27.5747H24.8177V26.4963H18.9434V27.5747Z" fill="#254E6A"/>
</g>
<mask id="mask31" mask-type="alpha" maskUnits="userSpaceOnUse" x="22" y="16" width="7" height="6">
<path d="M28.284 21.571C28.1428 21.4563 27.9645 21.3901 27.7775 21.3901H22.416V21.3897H27.5276L24.9718 16.9765L25.0968 16.7605C25.1296 16.7033 25.1917 16.6682 25.2577 16.6682H25.5072L28.1879 21.2971C28.2377 21.3826 28.269 21.476 28.284 21.571Z" fill="white"/>
</mask>
<g mask="url(#mask31)">
<path fill-rule="evenodd" clip-rule="evenodd" d="M22.1846 21.802H28.5159V16.4373H22.1846V21.802Z" fill="#254E6A"/>
</g>
<mask id="mask32" mask-type="alpha" maskUnits="userSpaceOnUse" x="21" y="16" width="14" height="12">
<path d="M34.3714 21.297C34.4647 21.4586 34.496 21.6455 34.4675 21.8248C34.4521 21.9198 34.4209 22.0129 34.3714 22.0984L31.5657 26.9432C31.5159 27.0292 31.4507 27.1025 31.3755 27.1632C31.4044 26.9838 31.3732 26.797 31.2795 26.6354L31.1549 26.4198L33.7111 22.0058L33.8361 21.7901C33.8689 21.733 33.8689 21.6624 33.8361 21.6053L33.7111 21.3892L31.1549 16.976L31.03 16.7604C30.9972 16.7033 30.9355 16.6678 30.8695 16.6678H30.6196H25.5079H25.5075H25.2581C25.192 16.6678 25.1299 16.7033 25.0971 16.7604L24.9722 16.9764L22.4164 21.3892V21.3896H22.1661C22.0668 21.3896 21.9704 21.4094 21.8802 21.4436C21.8249 21.4224 21.7667 21.4066 21.707 21.3979C21.7209 21.3636 21.7371 21.3297 21.7561 21.297L21.8806 21.0818L21.881 21.0814L24.4368 16.6678L24.5618 16.4522C24.6555 16.2905 24.8022 16.1703 24.9726 16.1053C25.0627 16.071 25.1588 16.0513 25.2581 16.0513H25.5079H30.6196H30.8695C31.0565 16.0513 31.2344 16.1179 31.3759 16.2322C31.4226 16.27 31.4653 16.3122 31.5025 16.3599C31.5254 16.3887 31.5468 16.4194 31.5657 16.4522L34.2465 21.0814L34.3714 21.297Z" fill="white"/>
</mask>
<g mask="url(#mask32)">
<path fill-rule="evenodd" clip-rule="evenodd" d="M21.4756 27.3942H34.7095V15.8203H21.4756V27.3942Z" fill="#8C7AA7"/>
</g>
<mask id="mask33" mask-type="alpha" maskUnits="userSpaceOnUse" x="22" y="22" width="9" height="6">
<path d="M30.6186 26.7276L30.7436 26.9436C30.7768 27.0007 30.7768 27.0713 30.7436 27.1284L30.619 27.3437H25.2575C25.2196 27.3437 25.182 27.3409 25.1452 27.3354C25.2366 27.1091 25.2204 26.8502 25.0962 26.6353L22.415 22.0061H22.4158L24.9716 26.4193L25.0966 26.6353C25.1298 26.6921 25.1915 26.7276 25.2575 26.7276H25.507H30.6186Z" fill="white"/>
</mask>
<g mask="url(#mask33)">
<path fill-rule="evenodd" clip-rule="evenodd" d="M22.1836 27.5746H31.0004V21.7751H22.1836V27.5746Z" fill="#8C7AA7"/>
</g>
<mask id="mask34" mask-type="alpha" maskUnits="userSpaceOnUse" x="6" y="21" width="10" height="12">
<path d="M15.2865 32.2818C15.3802 32.4435 15.5269 32.5637 15.6969 32.6283C15.6067 32.663 15.5103 32.6823 15.4114 32.6823H9.79963C9.51337 32.6823 9.24688 32.529 9.10372 32.2818L6.29763 27.4366C6.24821 27.3511 6.21698 27.258 6.20156 27.163C6.17308 26.9837 6.20434 26.7968 6.29763 26.6356L6.42297 26.4196L8.97878 22.006L9.10372 21.7908C9.12272 21.758 9.14366 21.7273 9.16699 21.6977C9.20415 21.6504 9.24688 21.6083 9.29351 21.5708C9.43467 21.4565 9.6126 21.3899 9.79963 21.3899H10.0495H15.1619H15.4114C15.4494 21.3899 15.4866 21.393 15.5233 21.3982C15.583 21.4068 15.6411 21.4226 15.6969 21.4439C15.5269 21.5085 15.3802 21.6291 15.2865 21.7908L15.1615 22.0064H10.0499H9.79963C9.7336 22.0064 9.67191 22.0419 9.6391 22.099L9.51416 22.3142L6.95834 26.7279L6.8334 26.9439C6.80018 27.001 6.80018 27.0716 6.8334 27.1287L6.95795 27.344L9.6391 31.9736C9.67191 32.0307 9.7336 32.0662 9.79963 32.0662H15.1615L15.2865 32.2818Z" fill="white"/>
</mask>
<g mask="url(#mask34)">
<path fill-rule="evenodd" clip-rule="evenodd" d="M5.95996 32.9133H15.9288V21.1589H5.95996V32.9133Z" fill="#FF9900"/>
</g>
<mask id="mask35" mask-type="alpha" maskUnits="userSpaceOnUse" x="15" y="22" width="4" height="11">
<path d="M15.9831 22.0063H16.2326L18.7888 26.42L18.6643 26.6356C18.5207 26.8827 18.5207 27.1894 18.6643 27.4366L18.7888 27.6522L16.2326 32.0662H15.9831C15.9171 32.0662 15.8554 32.0303 15.8222 31.9735L15.6973 31.7575L18.2535 27.3439L18.3784 27.1287C18.4112 27.0715 18.4112 27.0006 18.3784 26.9434L18.2531 26.7278L15.6973 22.3146L15.8222 22.099C15.8554 22.0418 15.9171 22.0063 15.9831 22.0063Z" fill="white"/>
</mask>
<g mask="url(#mask35)">
<path fill-rule="evenodd" clip-rule="evenodd" d="M15.4658 32.2971H19.0207V21.7754H15.4658V32.2971Z" fill="#FF9900"/>
</g>
<mask id="mask36" mask-type="alpha" maskUnits="userSpaceOnUse" x="21" y="22" width="5" height="11">
<path d="M25.145 27.3358C25.1312 27.3705 25.115 27.4044 25.096 27.4371L22.4152 32.066H22.1654C22.0993 32.066 22.038 32.0305 22.0048 31.9737L21.8799 31.7577L24.4361 27.3441L24.5606 27.1289C24.5934 27.0717 24.5934 27.0007 24.5606 26.9436L24.4357 26.7276L21.8799 22.3148L22.0048 22.0987C22.038 22.042 22.0993 22.0061 22.1654 22.0061H22.4152L25.096 26.6357C25.2202 26.8502 25.2364 27.1096 25.145 27.3358Z" fill="white"/>
</mask>
<g mask="url(#mask36)">
<path fill-rule="evenodd" clip-rule="evenodd" d="M21.6484 32.2969H25.4351V21.7751H21.6484V32.2969Z" fill="#ADCA00"/>
</g>
<mask id="mask37" mask-type="alpha" maskUnits="userSpaceOnUse" x="6" y="21" width="16" height="12">
<path d="M21.6045 32.6824H15.9727C15.877 32.6811 15.7841 32.6616 15.697 32.6285C15.527 32.5638 15.3803 32.4432 15.2866 32.2816L15.1616 32.066L12.4809 27.4367C12.4619 27.404 12.4461 27.3705 12.4323 27.3358C12.3951 27.341 12.3579 27.3441 12.3204 27.3441H6.95806L6.83351 27.1285C6.80029 27.0713 6.80029 27.0008 6.83351 26.9436L6.95845 26.7276H12.0705L12.1954 26.9436C12.2448 27.0288 12.3101 27.1021 12.3848 27.1628C12.3563 26.9838 12.3876 26.797 12.4809 26.6354L12.6062 26.4194H12.6058L15.1616 22.0066L15.2866 21.7905C15.3803 21.6289 15.527 21.5087 15.697 21.4436C15.7871 21.4094 15.8836 21.39 15.9829 21.39H16.2327L16.2331 21.3896H21.3448L21.3452 21.39H21.5943C21.6322 21.39 21.6698 21.3928 21.7066 21.3983C21.7663 21.4066 21.8244 21.4228 21.8801 21.4436C21.7097 21.5087 21.563 21.6289 21.4697 21.7905L21.3448 22.0066H21.3444H16.2331H16.2324H15.9829C15.9168 22.0066 15.8552 22.0416 15.8219 22.0988L15.697 22.3144L13.1416 26.7276L13.0162 26.9436C12.9834 27.0008 12.9834 27.0713 13.0162 27.1285L13.1412 27.3441L15.697 31.7577L15.8219 31.9733C15.8552 32.0305 15.9168 32.066 15.9829 32.066H16.2324H21.3448L21.4697 32.2816C21.563 32.4432 21.7101 32.5634 21.8805 32.6285C21.7931 32.6616 21.7001 32.6811 21.6045 32.6824Z" fill="white"/>
</mask>
<g mask="url(#mask37)">
<path fill-rule="evenodd" clip-rule="evenodd" d="M6.57715 32.9135H22.1124V21.1587H6.57715V32.9135Z" fill="#ADCA00"/>
</g>
<mask id="mask38" mask-type="alpha" maskUnits="userSpaceOnUse" x="18" y="21" width="14" height="12">
<path d="M30.744 27.1285C30.7768 27.0713 30.7768 27.0008 30.744 26.9436L30.6191 26.7276L28.0632 22.3144L27.9383 22.0984C27.9051 22.0416 27.8438 22.0062 27.7778 22.0062H27.5275H22.4163H22.4155H22.166C22.1 22.0062 22.0383 22.0416 22.0051 22.0988L21.8801 22.3144L19.3247 26.7272L19.1994 26.9436C19.1665 27.0008 19.1665 27.0713 19.1994 27.1285L19.3243 27.3437L21.8805 31.7577L22.0051 31.9733C22.0383 32.0305 22.1 32.0656 22.166 32.0656H22.4159H27.7778C27.8438 32.0656 27.9051 32.0305 27.9383 31.9733L30.6195 27.3437L30.744 27.1285ZM31.2794 26.6354C31.3731 26.797 31.4043 26.9838 31.3755 27.1632C31.3604 27.2582 31.3288 27.3512 31.2794 27.4368L28.4737 32.2816C28.3305 32.5287 28.064 32.6821 27.7778 32.6821H22.166C22.0667 32.6821 21.9707 32.6628 21.8805 32.6285C21.7101 32.5634 21.5634 32.4432 21.4697 32.2816L21.3452 32.066L18.789 27.6524L18.664 27.4368C18.5209 27.1896 18.5209 26.8825 18.664 26.6354L18.789 26.4198L18.7893 26.4194L18.789 26.419L21.3447 22.0062L21.4697 21.7905C21.5634 21.6289 21.7101 21.5087 21.8801 21.4436C21.9703 21.4094 22.0667 21.3896 22.166 21.3896H22.4163H27.7778C27.9648 21.3896 28.1427 21.4563 28.2843 21.571C28.359 21.6317 28.4242 21.705 28.4737 21.7905L28.5982 22.0058L31.1548 26.4198L31.2794 26.6354Z" fill="white"/>
</mask>
<g mask="url(#mask38)">
<path fill-rule="evenodd" clip-rule="evenodd" d="M18.3252 32.9131H31.6177V21.1587H18.3252V32.9131Z" fill="#30A8A2"/>
</g>
</g>
<path d="M50.9274 9.12096V15.9958H59.945V17.5958H50.9274V25.0206H49.084V7.521H61.0411V9.12096H50.9274Z" fill="white"/>
<path d="M71.8725 25.1706C69.6139 25.1706 67.8536 24.5206 66.5914 23.2207C65.3293 21.9207 64.6982 20.0291 64.6982 17.5458V7.521H66.5416V17.4708C66.5416 19.5041 66.9983 21.0207 67.9117 22.0207C68.8251 23.0207 70.1453 23.5206 71.8725 23.5206C73.6162 23.5206 74.9448 23.0207 75.8582 22.0207C76.7716 21.0207 77.2282 19.5041 77.2282 17.4708V7.521H79.0218V17.5458C79.0218 20.0291 78.3907 21.9207 77.1286 23.2207C75.8831 24.5206 74.131 25.1706 71.8725 25.1706Z" fill="white"/>
<path d="M87.6239 9.12096H81.4959V7.521H95.5953V9.12096H89.4673V25.0206H87.6239V9.12096Z" fill="white"/>
<path d="M105.224 25.1706C102.966 25.1706 101.206 24.5206 99.9434 23.2207C98.6812 21.9207 98.0502 20.0291 98.0502 17.5458V7.521H99.8935V17.4708C99.8935 19.5041 100.35 21.0207 101.264 22.0207C102.177 23.0207 103.497 23.5206 105.224 23.5206C106.968 23.5206 108.297 23.0207 109.21 22.0207C110.123 21.0207 110.58 19.5041 110.58 17.4708V7.521H112.374V17.5458C112.374 20.0291 111.743 21.9207 110.481 23.2207C109.235 24.5206 107.483 25.1706 105.224 25.1706Z" fill="white"/>
<path d="M129.836 25.0206L125.85 19.3957C125.402 19.4457 124.937 19.4707 124.455 19.4707H119.772V25.0206H117.929V7.521H124.455C126.681 7.521 128.424 8.05432 129.686 9.12096C130.949 10.1876 131.58 11.6542 131.58 13.5209C131.58 14.8875 131.231 16.0458 130.533 16.9958C129.852 17.9291 128.873 18.6041 127.594 19.0207L131.854 25.0206H129.836ZM124.405 17.8958C126.132 17.8958 127.453 17.5124 128.366 16.7458C129.28 15.9791 129.736 14.9042 129.736 13.5209C129.736 12.1042 129.28 11.0209 128.366 10.2709C127.453 9.50429 126.132 9.12096 124.405 9.12096H119.772V17.8958H124.405Z" fill="white"/>
<path d="M154.04 7.521V25.0206H152.272V11.0209L145.421 22.7957H144.549L137.699 11.0959V25.0206H135.93V7.521H137.45L145.023 20.4957L152.521 7.521H154.04Z" fill="white"/>
<path d="M170.658 20.3457H160.943L158.85 25.0206H156.932L164.903 7.521H166.722L174.693 25.0206H172.75L170.658 20.3457ZM169.985 18.8458L165.8 9.44595L161.615 18.8458H169.985Z" fill="white"/>
<path d="M182.983 16.7958L179.421 20.4207V25.0206H177.578V7.521H179.421V18.0958L189.659 7.521H191.777L184.229 15.4458L192.3 25.0206H190.108L182.983 16.7958Z" fill="white"/>
<path d="M207.195 25.0206L203.209 19.3957C202.761 19.4457 202.296 19.4707 201.814 19.4707H197.131V25.0206H195.288V7.521H201.814C204.039 7.521 205.783 8.05432 207.045 9.12096C208.307 10.1876 208.939 11.6542 208.939 13.5209C208.939 14.8875 208.59 16.0458 207.892 16.9958C207.211 17.9291 206.232 18.6041 204.953 19.0207L209.213 25.0206H207.195ZM201.764 17.8958C203.491 17.8958 204.812 17.5124 205.725 16.7458C206.638 15.9791 207.095 14.9042 207.095 13.5209C207.095 12.1042 206.638 11.0209 205.725 10.2709C204.812 9.50429 203.491 9.12096 201.764 9.12096H197.131V17.8958H201.764Z" fill="white"/>
<path d="M221.49 25.3456C220.144 25.3456 218.841 25.1539 217.579 24.7706C216.333 24.3872 215.345 23.8789 214.614 23.2456L215.735 20.7207C216.449 21.2873 217.321 21.754 218.351 22.1206C219.397 22.4706 220.443 22.6456 221.49 22.6456C222.785 22.6456 223.748 22.4373 224.379 22.0206C225.027 21.604 225.351 21.054 225.351 20.3707C225.351 19.8707 225.168 19.4623 224.803 19.1457C224.454 18.8124 224.006 18.554 223.458 18.3707C222.909 18.1874 222.162 17.979 221.216 17.7457C219.887 17.4291 218.808 17.1124 217.977 16.7957C217.163 16.4791 216.458 15.9874 215.86 15.3208C215.279 14.6375 214.988 13.7208 214.988 12.5708C214.988 11.6042 215.245 10.7292 215.76 9.94589C216.292 9.14591 217.08 8.51259 218.127 8.04593C219.189 7.57928 220.485 7.34595 222.013 7.34595C223.076 7.34595 224.122 7.47928 225.151 7.74594C226.181 8.0126 227.07 8.39592 227.817 8.89591L226.796 11.4209C226.032 10.9709 225.234 10.6292 224.404 10.3959C223.574 10.1626 222.768 10.0459 221.988 10.0459C220.709 10.0459 219.754 10.2625 219.123 10.6959C218.509 11.1292 218.201 11.7042 218.201 12.4208C218.201 12.9208 218.376 13.3291 218.725 13.6458C219.09 13.9625 219.547 14.2125 220.095 14.3958C220.643 14.5791 221.39 14.7875 222.337 15.0208C223.632 15.3208 224.695 15.6374 225.525 15.9708C226.355 16.2874 227.061 16.7791 227.642 17.4457C228.24 18.1124 228.539 19.0124 228.539 20.1457C228.539 21.1123 228.274 21.9873 227.742 22.7706C227.227 23.5539 226.438 24.1789 225.376 24.6456C224.313 25.1122 223.017 25.3456 221.49 25.3456Z" fill="white"/>
<path d="M235.044 10.3459H229.265V7.59594H244.062V10.3459H238.283V25.0956H235.044V10.3459Z" fill="white"/>
<path d="M253.674 25.3456C251.266 25.3456 249.39 24.6706 248.044 23.3206C246.699 21.954 246.027 20.004 246.027 17.4707V7.59594H249.265V17.3457C249.265 20.779 250.743 22.4956 253.699 22.4956C256.639 22.4956 258.108 20.779 258.108 17.3457V7.59594H261.297V17.4707C261.297 20.004 260.624 21.954 259.279 23.3206C257.951 24.6706 256.082 25.3456 253.674 25.3456Z" fill="white"/>
<path d="M265.832 7.59594H273.455C275.315 7.59594 276.967 7.9626 278.412 8.69592C279.857 9.41257 280.978 10.4375 281.775 11.7708C282.572 13.0875 282.971 14.6125 282.971 16.3458C282.971 18.079 282.572 19.6123 281.775 20.9457C280.978 22.2623 279.857 23.2873 278.412 24.0206C276.967 24.7372 275.315 25.0956 273.455 25.0956H265.832V7.59594ZM273.305 22.3456C274.584 22.3456 275.705 22.104 276.668 21.6206C277.648 21.1206 278.395 20.4207 278.91 19.5207C279.442 18.604 279.707 17.5457 279.707 16.3458C279.707 15.1458 279.442 14.0958 278.91 13.1958C278.395 12.2792 277.648 11.5792 276.668 11.0959C275.705 10.5959 274.584 10.3459 273.305 10.3459H269.07V22.3456H273.305Z" fill="white"/>
<path d="M286.413 7.59594H289.651V25.0956H286.413V7.59594Z" fill="white"/>
<path d="M302.513 25.3456C300.736 25.3456 299.134 24.9622 297.705 24.1956C296.277 23.4123 295.156 22.3373 294.342 20.9706C293.529 19.5873 293.122 18.0457 293.122 16.3458C293.122 14.6458 293.529 13.1125 294.342 11.7459C295.156 10.3625 296.277 9.28757 297.705 8.52092C299.134 7.73761 300.736 7.34595 302.513 7.34595C304.29 7.34595 305.893 7.73761 307.321 8.52092C308.749 9.28757 309.87 10.3542 310.684 11.7209C311.498 13.0875 311.904 14.6291 311.904 16.3458C311.904 18.0624 311.498 19.604 310.684 20.9706C309.87 22.3373 308.749 23.4123 307.321 24.1956C305.893 24.9622 304.29 25.3456 302.513 25.3456ZM302.513 22.4956C303.676 22.4956 304.722 22.2373 305.652 21.7206C306.582 21.1873 307.313 20.454 307.844 19.5207C308.375 18.5707 308.641 17.5124 308.641 16.3458C308.641 15.1791 308.375 14.1291 307.844 13.1958C307.313 12.2458 306.582 11.5125 305.652 10.9959C304.722 10.4625 303.676 10.1959 302.513 10.1959C301.351 10.1959 300.304 10.4625 299.374 10.9959C298.444 11.5125 297.714 12.2458 297.182 13.1958C296.651 14.1291 296.385 15.1791 296.385 16.3458C296.385 17.5124 296.651 18.5707 297.182 19.5207C297.714 20.454 298.444 21.1873 299.374 21.7206C300.304 22.2373 301.351 22.4956 302.513 22.4956Z" fill="white"/>
</g>
<defs>
<clipPath id="clip0">
<path d="M0 0H318V32.6916H0V0Z" fill="white"/>
</clipPath>
<clipPath id="clip1">
<rect width="37.5869" height="32.6916" fill="white"/>
</clipPath>
</defs>
</svg>
