<svg width="98" height="371" viewBox="0 0 98 371" fill="none" xmlns="http://www.w3.org/2000/svg">
<mask id="mask0" mask-type="alpha" maskUnits="userSpaceOnUse" x="-26" y="0" width="124" height="371">
<path d="M94.9796 196.519C94.4671 197.798 93.8662 199.048 93.1632 200.254L-6.16407 370.931H-15.4228C-17.8692 370.931 -20.1406 369.623 -21.3706 367.53L-26 359.565L68.7125 196.824L73.3273 188.889C74.5428 186.781 74.5428 184.165 73.3273 182.057L68.6979 174.093L-26 11.3811L-21.3706 3.41585C-20.1406 1.32257 -17.8692 0 -15.4228 0H-6.16407L93.1632 170.706C97.7634 178.613 98.3643 188.177 94.9796 196.519Z" fill="white"/>
</mask>
<g mask="url(#mask0)">
<path fill-rule="evenodd" clip-rule="evenodd" d="M-34.5833 379.447H105.72V-8.51636H-34.5833V379.447Z" fill="#ADCA00"/>
</g>
</svg>
