<svg width="366" height="224" viewBox="0 0 366 224" fill="none" xmlns="http://www.w3.org/2000/svg">
<path d="M162.337 41.8132C163.803 41.8357 165.123 42.5981 165.801 43.8132L203.33 111.056C204.008 112.271 203.941 113.754 203.154 114.947L159.588 180.946C158.801 182.139 157.413 182.86 155.948 182.837L74.8545 181.594C73.3891 181.572 72.0686 180.809 71.3904 179.594L33.8621 112.351C33.1839 111.136 33.2511 109.653 34.0384 108.46L77.6035 42.4608C78.3908 41.2681 79.7785 40.5472 81.2439 40.5697L162.337 41.8132Z" fill="#30A8A2"/>
<path fill-rule="evenodd" clip-rule="evenodd" d="M138.844 99.5056C139.538 99.457 140.249 99.6987 140.781 100.231C141.298 100.747 141.54 101.439 141.506 102.12V114.381C141.506 115.756 140.381 116.881 139.006 116.881C137.631 116.881 136.506 115.756 136.506 114.381V108.043L123.681 120.906C123.669 120.918 123.656 120.925 123.644 120.931C123.631 120.937 123.619 120.943 123.606 120.956C123.606 120.966 123.606 120.973 123.604 120.978C123.602 120.985 123.596 120.991 123.581 121.006C123.544 121.043 123.5 121.068 123.456 121.093C123.412 121.118 123.369 121.143 123.331 121.181C123.156 121.331 122.981 121.456 122.781 121.556C122.696 121.59 122.622 121.601 122.544 121.612C122.508 121.617 122.471 121.623 122.431 121.631C122.378 121.644 122.327 121.659 122.276 121.674C122.135 121.715 121.997 121.756 121.831 121.756C121.131 121.756 120.481 121.456 120.031 120.981L111.206 112.131L98.2813 125.031C97.7813 125.506 97.1563 125.756 96.5063 125.756C95.8563 125.756 95.2312 125.506 94.7312 125.006C93.7563 124.031 93.7563 122.456 94.7312 121.481L109.331 106.906C109.356 106.893 109.369 106.875 109.381 106.856C109.394 106.837 109.406 106.818 109.431 106.806C110.406 105.831 111.981 105.831 112.956 106.806L121.856 115.681L132.995 104.506H126.631C125.256 104.506 124.131 103.381 124.131 102.006C124.131 100.631 125.256 99.5056 126.631 99.5056H138.844Z" fill="#111111"/>
<path d="M342.859 139.987L360 111.993L342.859 84" stroke="#FF9900" stroke-width="12" stroke-linecap="round" stroke-linejoin="round"/>
</svg>
