<svg width="365" height="224" viewBox="0 0 365 224" fill="none" xmlns="http://www.w3.org/2000/svg">
<path d="M162.337 41.8132C163.803 41.8357 165.123 42.5981 165.801 43.8132L203.33 111.056C204.008 112.271 203.941 113.754 203.154 114.947L159.588 180.946C158.801 182.139 157.413 182.86 155.948 182.837L74.8545 181.594C73.3891 181.572 72.0686 180.809 71.3904 179.594L33.8621 112.351C33.1839 111.136 33.2511 109.653 34.0384 108.46L77.6035 42.4608C78.3908 41.2681 79.7785 40.5472 81.2439 40.5697L162.337 41.8132Z" fill="#ADCA00"/>
<path fill-rule="evenodd" clip-rule="evenodd" d="M96.9394 123.656C96.3536 124.242 96.3536 125.192 96.9394 125.778L103.303 132.142C103.694 132.532 104.327 132.532 104.718 132.142L105.425 131.435C105.815 131.044 105.815 130.411 105.425 130.02L101.621 126.217H132.252C134.602 126.217 135.69 125.971 136.811 125.372C137.887 124.796 138.741 123.943 139.316 122.867C139.916 121.745 140.162 120.658 140.162 118.307V108.717C140.162 108.251 140.162 108.018 140.085 107.834C139.984 107.589 139.789 107.395 139.544 107.293C139.36 107.217 139.127 107.217 138.662 107.217C138.196 107.217 137.963 107.217 137.779 107.293C137.534 107.395 137.339 107.589 137.238 107.834C137.162 108.018 137.162 108.251 137.162 108.717V118.307C137.162 120.415 136.943 120.943 136.671 121.452C136.375 122.005 135.95 122.43 135.396 122.726C134.888 122.998 134.359 123.217 132.252 123.217H101.621L105.425 119.414C105.815 119.023 105.815 118.39 105.425 118L104.718 117.292C104.327 116.902 103.694 116.902 103.303 117.292L96.9394 123.656ZM135.04 98.7172H104.41C102.302 98.7172 101.774 98.9357 101.265 99.2077C100.712 99.5037 100.287 99.929 99.9906 100.482C99.7186 100.991 99.5 101.519 99.5 103.627V113.217C99.5 113.683 99.5 113.916 99.4239 114.1C99.3224 114.345 99.1277 114.539 98.8827 114.641C98.6989 114.717 98.4659 114.717 98 114.717C97.5341 114.717 97.3011 114.717 97.1173 114.641C96.8723 114.539 96.6776 114.345 96.5761 114.1C96.5 113.916 96.5 113.683 96.5 113.217V103.627C96.5 101.276 96.7455 100.189 97.3451 99.0675C97.9207 97.9915 98.7743 97.1377 99.8505 96.5622C100.972 95.9627 102.059 95.7172 104.41 95.7172H135.04L131.237 91.9137C130.846 91.5232 130.846 90.89 131.237 90.4995L131.944 89.7925C132.335 89.402 132.968 89.402 133.358 89.7925L139.722 96.1565C140.308 96.7422 140.308 97.692 139.722 98.2777L133.358 104.642C132.968 105.032 132.335 105.032 131.944 104.642L131.237 103.934C130.846 103.544 130.846 102.911 131.237 102.52L135.04 98.7172Z" fill="#111111"/>
<path d="M341.859 139.968L359 111.975L341.859 83.9814" stroke="#30A8A2" stroke-width="12" stroke-linecap="round" stroke-linejoin="round"/>
</svg>
